<?xml version="1.0" encoding="utf-8" standalone="no"?>
<!DOCTYPE svg PUBLIC "-//W3C//DTD SVG 1.1//EN"
  "http://www.w3.org/Graphics/SVG/1.1/DTD/svg11.dtd">
<svg xmlns:xlink="http://www.w3.org/1999/xlink" width="854.3825pt" height="565.9525pt" viewBox="0 0 854.3825 565.9525" xmlns="http://www.w3.org/2000/svg" version="1.1">
 <metadata>
  <rdf:RDF xmlns:dc="http://purl.org/dc/elements/1.1/" xmlns:cc="http://creativecommons.org/ns#" xmlns:rdf="http://www.w3.org/1999/02/22-rdf-syntax-ns#">
   <cc:Work>
    <dc:type rdf:resource="http://purl.org/dc/dcmitype/StillImage"/>
    <dc:date>2025-10-15T13:18:50.732756</dc:date>
    <dc:format>image/svg+xml</dc:format>
    <dc:creator>
     <cc:Agent>
      <dc:title>Matplotlib v3.10.3, https://matplotlib.org/</dc:title>
     </cc:Agent>
    </dc:creator>
   </cc:Work>
  </rdf:RDF>
 </metadata>
 <defs>
  <style type="text/css">*{stroke-linejoin: round; stroke-linecap: butt}</style>
 </defs>
 <g id="figure_1">
  <g id="patch_1">
   <path d="M 0 565.9525 
L 854.3825 565.9525 
L 854.3825 0 
L 0 0 
z
" style="fill: #ffffff"/>
  </g>
  <g id="axes_1">
   <g id="patch_2">
    <path d="M 66.3775 518.525 
L 847.1825 518.525 
L 847.1825 39.645 
L 66.3775 39.645 
z
" style="fill: #ffffff"/>
   </g>
   <g id="patch_3">
    <path d="M 101.868636 518.525 
L 119.614205 518.525 
L 119.614205 370.201214 
L 101.868636 370.201214 
z
" clip-path="url(#p5193211919)" style="fill: #adb5bd; opacity: 0.6"/>
   </g>
   <g id="patch_4">
    <path d="M 119.614205 518.525 
L 137.359773 518.525 
L 137.359773 419.642476 
L 119.614205 419.642476 
z
" clip-path="url(#p5193211919)" style="fill: #adb5bd; opacity: 0.6"/>
   </g>
   <g id="patch_5">
    <path d="M 137.359773 518.525 
L 155.105341 518.525 
L 155.105341 469.083738 
L 137.359773 469.083738 
z
" clip-path="url(#p5193211919)" style="fill: #adb5bd; opacity: 0.6"/>
   </g>
   <g id="patch_6">
    <path d="M 155.105341 518.525 
L 172.850909 518.525 
L 172.850909 518.525 
L 155.105341 518.525 
z
" clip-path="url(#p5193211919)" style="fill: #adb5bd; opacity: 0.6"/>
   </g>
   <g id="patch_7">
    <path d="M 172.850909 518.525 
L 190.596477 518.525 
L 190.596477 320.759952 
L 172.850909 320.759952 
z
" clip-path="url(#p5193211919)" style="fill: #adb5bd; opacity: 0.6"/>
   </g>
   <g id="patch_8">
    <path d="M 190.596477 518.525 
L 208.342045 518.525 
L 208.342045 221.877428 
L 190.596477 221.877428 
z
" clip-path="url(#p5193211919)" style="fill: #adb5bd; opacity: 0.6"/>
   </g>
   <g id="patch_9">
    <path d="M 208.342045 518.525 
L 226.087614 518.525 
L 226.087614 320.759952 
L 208.342045 320.759952 
z
" clip-path="url(#p5193211919)" style="fill: #adb5bd; opacity: 0.6"/>
   </g>
   <g id="patch_10">
    <path d="M 226.087614 518.525 
L 243.833182 518.525 
L 243.833182 221.877428 
L 226.087614 221.877428 
z
" clip-path="url(#p5193211919)" style="fill: #adb5bd; opacity: 0.6"/>
   </g>
   <g id="patch_11">
    <path d="M 243.833182 518.525 
L 261.57875 518.525 
L 261.57875 469.083738 
L 243.833182 469.083738 
z
" clip-path="url(#p5193211919)" style="fill: #adb5bd; opacity: 0.6"/>
   </g>
   <g id="patch_12">
    <path d="M 261.57875 518.525 
L 279.324318 518.525 
L 279.324318 469.083738 
L 261.57875 469.083738 
z
" clip-path="url(#p5193211919)" style="fill: #adb5bd; opacity: 0.6"/>
   </g>
   <g id="patch_13">
    <path d="M 279.324318 518.525 
L 297.069886 518.525 
L 297.069886 419.642476 
L 279.324318 419.642476 
z
" clip-path="url(#p5193211919)" style="fill: #adb5bd; opacity: 0.6"/>
   </g>
   <g id="patch_14">
    <path d="M 297.069886 518.525 
L 314.815455 518.525 
L 314.815455 172.436166 
L 297.069886 172.436166 
z
" clip-path="url(#p5193211919)" style="fill: #adb5bd; opacity: 0.6"/>
   </g>
   <g id="patch_15">
    <path d="M 314.815455 518.525 
L 332.561023 518.525 
L 332.561023 419.642476 
L 314.815455 419.642476 
z
" clip-path="url(#p5193211919)" style="fill: #adb5bd; opacity: 0.6"/>
   </g>
   <g id="patch_16">
    <path d="M 332.561023 518.525 
L 350.306591 518.525 
L 350.306591 271.31869 
L 332.561023 271.31869 
z
" clip-path="url(#p5193211919)" style="fill: #adb5bd; opacity: 0.6"/>
   </g>
   <g id="patch_17">
    <path d="M 350.306591 518.525 
L 368.052159 518.525 
L 368.052159 122.994904 
L 350.306591 122.994904 
z
" clip-path="url(#p5193211919)" style="fill: #adb5bd; opacity: 0.6"/>
   </g>
   <g id="patch_18">
    <path d="M 368.052159 518.525 
L 385.797727 518.525 
L 385.797727 271.31869 
L 368.052159 271.31869 
z
" clip-path="url(#p5193211919)" style="fill: #adb5bd; opacity: 0.6"/>
   </g>
   <g id="patch_19">
    <path d="M 385.797727 518.525 
L 403.543295 518.525 
L 403.543295 122.994904 
L 385.797727 122.994904 
z
" clip-path="url(#p5193211919)" style="fill: #adb5bd; opacity: 0.6"/>
   </g>
   <g id="patch_20">
    <path d="M 403.543295 518.525 
L 421.288864 518.525 
L 421.288864 370.201214 
L 403.543295 370.201214 
z
" clip-path="url(#p5193211919)" style="fill: #adb5bd; opacity: 0.6"/>
   </g>
   <g id="patch_21">
    <path d="M 421.288864 518.525 
L 439.034432 518.525 
L 439.034432 122.994904 
L 421.288864 122.994904 
z
" clip-path="url(#p5193211919)" style="fill: #adb5bd; opacity: 0.6"/>
   </g>
   <g id="patch_22">
    <path d="M 439.034432 518.525 
L 456.78 518.525 
L 456.78 370.201214 
L 439.034432 370.201214 
z
" clip-path="url(#p5193211919)" style="fill: #adb5bd; opacity: 0.6"/>
   </g>
   <g id="patch_23">
    <path d="M 456.78 518.525 
L 474.525568 518.525 
L 474.525568 419.642476 
L 456.78 419.642476 
z
" clip-path="url(#p5193211919)" style="fill: #adb5bd; opacity: 0.6"/>
   </g>
   <g id="patch_24">
    <path d="M 474.525568 518.525 
L 492.271136 518.525 
L 492.271136 320.759952 
L 474.525568 320.759952 
z
" clip-path="url(#p5193211919)" style="fill: #adb5bd; opacity: 0.6"/>
   </g>
   <g id="patch_25">
    <path d="M 492.271136 518.525 
L 510.016705 518.525 
L 510.016705 518.525 
L 492.271136 518.525 
z
" clip-path="url(#p5193211919)" style="fill: #adb5bd; opacity: 0.6"/>
   </g>
   <g id="patch_26">
    <path d="M 510.016705 518.525 
L 527.762273 518.525 
L 527.762273 419.642476 
L 510.016705 419.642476 
z
" clip-path="url(#p5193211919)" style="fill: #adb5bd; opacity: 0.6"/>
   </g>
   <g id="patch_27">
    <path d="M 527.762273 518.525 
L 545.507841 518.525 
L 545.507841 172.436166 
L 527.762273 172.436166 
z
" clip-path="url(#p5193211919)" style="fill: #adb5bd; opacity: 0.6"/>
   </g>
   <g id="patch_28">
    <path d="M 545.507841 518.525 
L 563.253409 518.525 
L 563.253409 419.642476 
L 545.507841 419.642476 
z
" clip-path="url(#p5193211919)" style="fill: #adb5bd; opacity: 0.6"/>
   </g>
   <g id="patch_29">
    <path d="M 563.253409 518.525 
L 580.998977 518.525 
L 580.998977 221.877428 
L 563.253409 221.877428 
z
" clip-path="url(#p5193211919)" style="fill: #adb5bd; opacity: 0.6"/>
   </g>
   <g id="patch_30">
    <path d="M 580.998977 518.525 
L 598.744545 518.525 
L 598.744545 419.642476 
L 580.998977 419.642476 
z
" clip-path="url(#p5193211919)" style="fill: #adb5bd; opacity: 0.6"/>
   </g>
   <g id="patch_31">
    <path d="M 598.744545 518.525 
L 616.490114 518.525 
L 616.490114 271.31869 
L 598.744545 271.31869 
z
" clip-path="url(#p5193211919)" style="fill: #adb5bd; opacity: 0.6"/>
   </g>
   <g id="patch_32">
    <path d="M 616.490114 518.525 
L 634.235682 518.525 
L 634.235682 320.759952 
L 616.490114 320.759952 
z
" clip-path="url(#p5193211919)" style="fill: #adb5bd; opacity: 0.6"/>
   </g>
   <g id="patch_33">
    <path d="M 634.235682 518.525 
L 651.98125 518.525 
L 651.98125 419.642476 
L 634.235682 419.642476 
z
" clip-path="url(#p5193211919)" style="fill: #adb5bd; opacity: 0.6"/>
   </g>
   <g id="patch_34">
    <path d="M 651.98125 518.525 
L 669.726818 518.525 
L 669.726818 419.642476 
L 651.98125 419.642476 
z
" clip-path="url(#p5193211919)" style="fill: #adb5bd; opacity: 0.6"/>
   </g>
   <g id="patch_35">
    <path d="M 669.726818 518.525 
L 687.472386 518.525 
L 687.472386 221.877428 
L 669.726818 221.877428 
z
" clip-path="url(#p5193211919)" style="fill: #adb5bd; opacity: 0.6"/>
   </g>
   <g id="patch_36">
    <path d="M 687.472386 518.525 
L 705.217955 518.525 
L 705.217955 370.201214 
L 687.472386 370.201214 
z
" clip-path="url(#p5193211919)" style="fill: #adb5bd; opacity: 0.6"/>
   </g>
   <g id="patch_37">
    <path d="M 705.217955 518.525 
L 722.963523 518.525 
L 722.963523 122.994904 
L 705.217955 122.994904 
z
" clip-path="url(#p5193211919)" style="fill: #adb5bd; opacity: 0.6"/>
   </g>
   <g id="patch_38">
    <path d="M 722.963523 518.525 
L 740.709091 518.525 
L 740.709091 172.436166 
L 722.963523 172.436166 
z
" clip-path="url(#p5193211919)" style="fill: #adb5bd; opacity: 0.6"/>
   </g>
   <g id="patch_39">
    <path d="M 740.709091 518.525 
L 758.454659 518.525 
L 758.454659 221.877428 
L 740.709091 221.877428 
z
" clip-path="url(#p5193211919)" style="fill: #adb5bd; opacity: 0.6"/>
   </g>
   <g id="patch_40">
    <path d="M 758.454659 518.525 
L 776.200227 518.525 
L 776.200227 370.201214 
L 758.454659 370.201214 
z
" clip-path="url(#p5193211919)" style="fill: #adb5bd; opacity: 0.6"/>
   </g>
   <g id="patch_41">
    <path d="M 776.200227 518.525 
L 793.945795 518.525 
L 793.945795 419.642476 
L 776.200227 419.642476 
z
" clip-path="url(#p5193211919)" style="fill: #adb5bd; opacity: 0.6"/>
   </g>
   <g id="patch_42">
    <path d="M 793.945795 518.525 
L 811.691364 518.525 
L 811.691364 320.759952 
L 793.945795 320.759952 
z
" clip-path="url(#p5193211919)" style="fill: #adb5bd; opacity: 0.6"/>
   </g>
   <g id="patch_43">
    <path d="M 101.868636 518.525 
L 118.540884 518.525 
L 118.540884 119.458333 
L 101.868636 119.458333 
z
" clip-path="url(#p5193211919)" style="fill: #2e4a6b; opacity: 0.6"/>
   </g>
   <g id="patch_44">
    <path d="M 118.540884 518.525 
L 135.213131 518.525 
L 135.213131 62.44881 
L 118.540884 62.44881 
z
" clip-path="url(#p5193211919)" style="fill: #2e4a6b; opacity: 0.6"/>
   </g>
   <g id="patch_45">
    <path d="M 135.213131 518.525 
L 151.885379 518.525 
L 151.885379 404.505952 
L 135.213131 404.505952 
z
" clip-path="url(#p5193211919)" style="fill: #2e4a6b; opacity: 0.6"/>
   </g>
   <g id="patch_46">
    <path d="M 151.885379 518.525 
L 168.557626 518.525 
L 168.557626 233.477381 
L 151.885379 233.477381 
z
" clip-path="url(#p5193211919)" style="fill: #2e4a6b; opacity: 0.6"/>
   </g>
   <g id="patch_47">
    <path d="M 168.557626 518.525 
L 185.229874 518.525 
L 185.229874 119.458333 
L 168.557626 119.458333 
z
" clip-path="url(#p5193211919)" style="fill: #2e4a6b; opacity: 0.6"/>
   </g>
   <g id="patch_48">
    <path d="M 185.229874 518.525 
L 201.902122 518.525 
L 201.902122 290.486905 
L 185.229874 290.486905 
z
" clip-path="url(#p5193211919)" style="fill: #2e4a6b; opacity: 0.6"/>
   </g>
   <g id="patch_49">
    <path d="M 201.902122 518.525 
L 218.574369 518.525 
L 218.574369 404.505952 
L 201.902122 404.505952 
z
" clip-path="url(#p5193211919)" style="fill: #2e4a6b; opacity: 0.6"/>
   </g>
   <g id="patch_50">
    <path d="M 218.574369 518.525 
L 235.246617 518.525 
L 235.246617 290.486905 
L 218.574369 290.486905 
z
" clip-path="url(#p5193211919)" style="fill: #2e4a6b; opacity: 0.6"/>
   </g>
   <g id="patch_51">
    <path d="M 235.246617 518.525 
L 251.918864 518.525 
L 251.918864 347.496429 
L 235.246617 347.496429 
z
" clip-path="url(#p5193211919)" style="fill: #2e4a6b; opacity: 0.6"/>
   </g>
   <g id="patch_52">
    <path d="M 251.918864 518.525 
L 268.591112 518.525 
L 268.591112 233.477381 
L 251.918864 233.477381 
z
" clip-path="url(#p5193211919)" style="fill: #2e4a6b; opacity: 0.6"/>
   </g>
   <g id="patch_53">
    <path d="M 268.591112 518.525 
L 285.263359 518.525 
L 285.263359 347.496429 
L 268.591112 347.496429 
z
" clip-path="url(#p5193211919)" style="fill: #2e4a6b; opacity: 0.6"/>
   </g>
   <g id="patch_54">
    <path d="M 285.263359 518.525 
L 301.935607 518.525 
L 301.935607 461.515476 
L 285.263359 461.515476 
z
" clip-path="url(#p5193211919)" style="fill: #2e4a6b; opacity: 0.6"/>
   </g>
   <g id="patch_55">
    <path d="M 301.935607 518.525 
L 318.607854 518.525 
L 318.607854 347.496429 
L 301.935607 347.496429 
z
" clip-path="url(#p5193211919)" style="fill: #2e4a6b; opacity: 0.6"/>
   </g>
   <g id="patch_56">
    <path d="M 318.607854 518.525 
L 335.280102 518.525 
L 335.280102 233.477381 
L 318.607854 233.477381 
z
" clip-path="url(#p5193211919)" style="fill: #2e4a6b; opacity: 0.6"/>
   </g>
   <g id="patch_57">
    <path d="M 335.280102 518.525 
L 351.952349 518.525 
L 351.952349 347.496429 
L 335.280102 347.496429 
z
" clip-path="url(#p5193211919)" style="fill: #2e4a6b; opacity: 0.6"/>
   </g>
   <g id="patch_58">
    <path d="M 351.952349 518.525 
L 368.624597 518.525 
L 368.624597 404.505952 
L 351.952349 404.505952 
z
" clip-path="url(#p5193211919)" style="fill: #2e4a6b; opacity: 0.6"/>
   </g>
   <g id="patch_59">
    <path d="M 368.624597 518.525 
L 385.296844 518.525 
L 385.296844 290.486905 
L 368.624597 290.486905 
z
" clip-path="url(#p5193211919)" style="fill: #2e4a6b; opacity: 0.6"/>
   </g>
   <g id="patch_60">
    <path d="M 385.296844 518.525 
L 401.969092 518.525 
L 401.969092 233.477381 
L 385.296844 233.477381 
z
" clip-path="url(#p5193211919)" style="fill: #2e4a6b; opacity: 0.6"/>
   </g>
   <g id="patch_61">
    <path d="M 401.969092 518.525 
L 418.641339 518.525 
L 418.641339 461.515476 
L 401.969092 461.515476 
z
" clip-path="url(#p5193211919)" style="fill: #2e4a6b; opacity: 0.6"/>
   </g>
   <g id="patch_62">
    <path d="M 418.641339 518.525 
L 435.313587 518.525 
L 435.313587 290.486905 
L 418.641339 290.486905 
z
" clip-path="url(#p5193211919)" style="fill: #2e4a6b; opacity: 0.6"/>
   </g>
   <g id="patch_63">
    <path d="M 435.313587 518.525 
L 451.985834 518.525 
L 451.985834 518.525 
L 435.313587 518.525 
z
" clip-path="url(#p5193211919)" style="fill: #2e4a6b; opacity: 0.6"/>
   </g>
   <g id="patch_64">
    <path d="M 451.985834 518.525 
L 468.658082 518.525 
L 468.658082 233.477381 
L 451.985834 233.477381 
z
" clip-path="url(#p5193211919)" style="fill: #2e4a6b; opacity: 0.6"/>
   </g>
   <g id="patch_65">
    <path d="M 468.658082 518.525 
L 485.330329 518.525 
L 485.330329 290.486905 
L 468.658082 290.486905 
z
" clip-path="url(#p5193211919)" style="fill: #2e4a6b; opacity: 0.6"/>
   </g>
   <g id="patch_66">
    <path d="M 485.330329 518.525 
L 502.002577 518.525 
L 502.002577 347.496429 
L 485.330329 347.496429 
z
" clip-path="url(#p5193211919)" style="fill: #2e4a6b; opacity: 0.6"/>
   </g>
   <g id="patch_67">
    <path d="M 502.002577 518.525 
L 518.674825 518.525 
L 518.674825 347.496429 
L 502.002577 347.496429 
z
" clip-path="url(#p5193211919)" style="fill: #2e4a6b; opacity: 0.6"/>
   </g>
   <g id="patch_68">
    <path d="M 518.674825 518.525 
L 535.347072 518.525 
L 535.347072 461.515476 
L 518.674825 461.515476 
z
" clip-path="url(#p5193211919)" style="fill: #2e4a6b; opacity: 0.6"/>
   </g>
   <g id="patch_69">
    <path d="M 535.347072 518.525 
L 552.01932 518.525 
L 552.01932 233.477381 
L 535.347072 233.477381 
z
" clip-path="url(#p5193211919)" style="fill: #2e4a6b; opacity: 0.6"/>
   </g>
   <g id="patch_70">
    <path d="M 552.01932 518.525 
L 568.691567 518.525 
L 568.691567 176.467857 
L 552.01932 176.467857 
z
" clip-path="url(#p5193211919)" style="fill: #2e4a6b; opacity: 0.6"/>
   </g>
   <g id="patch_71">
    <path d="M 568.691567 518.525 
L 585.363815 518.525 
L 585.363815 347.496429 
L 568.691567 347.496429 
z
" clip-path="url(#p5193211919)" style="fill: #2e4a6b; opacity: 0.6"/>
   </g>
   <g id="patch_72">
    <path d="M 585.363815 518.525 
L 602.036062 518.525 
L 602.036062 290.486905 
L 585.363815 290.486905 
z
" clip-path="url(#p5193211919)" style="fill: #2e4a6b; opacity: 0.6"/>
   </g>
   <g id="patch_73">
    <path d="M 602.036062 518.525 
L 618.70831 518.525 
L 618.70831 347.496429 
L 602.036062 347.496429 
z
" clip-path="url(#p5193211919)" style="fill: #2e4a6b; opacity: 0.6"/>
   </g>
   <g id="patch_74">
    <path d="M 618.70831 518.525 
L 635.380557 518.525 
L 635.380557 404.505952 
L 618.70831 404.505952 
z
" clip-path="url(#p5193211919)" style="fill: #2e4a6b; opacity: 0.6"/>
   </g>
   <g id="patch_75">
    <path d="M 635.380557 518.525 
L 652.052805 518.525 
L 652.052805 290.486905 
L 635.380557 290.486905 
z
" clip-path="url(#p5193211919)" style="fill: #2e4a6b; opacity: 0.6"/>
   </g>
   <g id="patch_76">
    <path d="M 652.052805 518.525 
L 668.725052 518.525 
L 668.725052 233.477381 
L 652.052805 233.477381 
z
" clip-path="url(#p5193211919)" style="fill: #2e4a6b; opacity: 0.6"/>
   </g>
   <g id="patch_77">
    <path d="M 668.725052 518.525 
L 685.3973 518.525 
L 685.3973 233.477381 
L 668.725052 233.477381 
z
" clip-path="url(#p5193211919)" style="fill: #2e4a6b; opacity: 0.6"/>
   </g>
   <g id="patch_78">
    <path d="M 685.3973 518.525 
L 702.069547 518.525 
L 702.069547 404.505952 
L 685.3973 404.505952 
z
" clip-path="url(#p5193211919)" style="fill: #2e4a6b; opacity: 0.6"/>
   </g>
   <g id="patch_79">
    <path d="M 702.069547 518.525 
L 718.741795 518.525 
L 718.741795 233.477381 
L 702.069547 233.477381 
z
" clip-path="url(#p5193211919)" style="fill: #2e4a6b; opacity: 0.6"/>
   </g>
   <g id="patch_80">
    <path d="M 718.741795 518.525 
L 735.414042 518.525 
L 735.414042 518.525 
L 718.741795 518.525 
z
" clip-path="url(#p5193211919)" style="fill: #2e4a6b; opacity: 0.6"/>
   </g>
   <g id="patch_81">
    <path d="M 735.414042 518.525 
L 752.08629 518.525 
L 752.08629 461.515476 
L 735.414042 461.515476 
z
" clip-path="url(#p5193211919)" style="fill: #2e4a6b; opacity: 0.6"/>
   </g>
   <g id="patch_82">
    <path d="M 752.08629 518.525 
L 768.758537 518.525 
L 768.758537 233.477381 
L 752.08629 233.477381 
z
" clip-path="url(#p5193211919)" style="fill: #2e4a6b; opacity: 0.6"/>
   </g>
   <g id="matplotlib.axis_1">
    <g id="xtick_1">
     <g id="line2d_1">
      <path d="M 99.006448 518.525 
L 99.006448 39.645 
" clip-path="url(#p5193211919)" style="fill: none; stroke: #e0e0e0; stroke-opacity: 0.2; stroke-width: 0.8; stroke-linecap: square"/>
     </g>
     <g id="line2d_2">
      <defs>
       <path id="m8a2ef7b724" d="M 0 0 
L 0 3.5 
" style="stroke: #000000; stroke-width: 0.8"/>
      </defs>
      <g>
       <use xlink:href="#m8a2ef7b724" x="99.006448" y="518.525" style="stroke: #000000; stroke-width: 0.8"/>
      </g>
     </g>
     <g id="text_1">
      <!-- 0 -->
      <g transform="translate(95.825198 533.123437) scale(0.1 -0.1)">
       <defs>
        <path id="DejaVuSans-30" d="M 2034 4250 
Q 1547 4250 1301 3770 
Q 1056 3291 1056 2328 
Q 1056 1369 1301 889 
Q 1547 409 2034 409 
Q 2525 409 2770 889 
Q 3016 1369 3016 2328 
Q 3016 3291 2770 3770 
Q 2525 4250 2034 4250 
z
M 2034 4750 
Q 2819 4750 3233 4129 
Q 3647 3509 3647 2328 
Q 3647 1150 3233 529 
Q 2819 -91 2034 -91 
Q 1250 -91 836 529 
Q 422 1150 422 2328 
Q 422 3509 836 4129 
Q 1250 4750 2034 4750 
z
" transform="scale(0.015625)"/>
       </defs>
       <use xlink:href="#DejaVuSans-30"/>
      </g>
     </g>
    </g>
    <g id="xtick_2">
     <g id="line2d_3">
      <path d="M 242.115869 518.525 
L 242.115869 39.645 
" clip-path="url(#p5193211919)" style="fill: none; stroke: #e0e0e0; stroke-opacity: 0.2; stroke-width: 0.8; stroke-linecap: square"/>
     </g>
     <g id="line2d_4">
      <g>
       <use xlink:href="#m8a2ef7b724" x="242.115869" y="518.525" style="stroke: #000000; stroke-width: 0.8"/>
      </g>
     </g>
     <g id="text_2">
      <!-- 50 -->
      <g transform="translate(235.753369 533.123437) scale(0.1 -0.1)">
       <defs>
        <path id="DejaVuSans-35" d="M 691 4666 
L 3169 4666 
L 3169 4134 
L 1269 4134 
L 1269 2991 
Q 1406 3038 1543 3061 
Q 1681 3084 1819 3084 
Q 2600 3084 3056 2656 
Q 3513 2228 3513 1497 
Q 3513 744 3044 326 
Q 2575 -91 1722 -91 
Q 1428 -91 1123 -41 
Q 819 9 494 109 
L 494 744 
Q 775 591 1075 516 
Q 1375 441 1709 441 
Q 2250 441 2565 725 
Q 2881 1009 2881 1497 
Q 2881 1984 2565 2268 
Q 2250 2553 1709 2553 
Q 1456 2553 1204 2497 
Q 953 2441 691 2322 
L 691 4666 
z
" transform="scale(0.015625)"/>
       </defs>
       <use xlink:href="#DejaVuSans-35"/>
       <use xlink:href="#DejaVuSans-30" transform="translate(63.623047 0)"/>
      </g>
     </g>
    </g>
    <g id="xtick_3">
     <g id="line2d_5">
      <path d="M 385.22529 518.525 
L 385.22529 39.645 
" clip-path="url(#p5193211919)" style="fill: none; stroke: #e0e0e0; stroke-opacity: 0.2; stroke-width: 0.8; stroke-linecap: square"/>
     </g>
     <g id="line2d_6">
      <g>
       <use xlink:href="#m8a2ef7b724" x="385.22529" y="518.525" style="stroke: #000000; stroke-width: 0.8"/>
      </g>
     </g>
     <g id="text_3">
      <!-- 100 -->
      <g transform="translate(375.68154 533.123437) scale(0.1 -0.1)">
       <defs>
        <path id="DejaVuSans-31" d="M 794 531 
L 1825 531 
L 1825 4091 
L 703 3866 
L 703 4441 
L 1819 4666 
L 2450 4666 
L 2450 531 
L 3481 531 
L 3481 0 
L 794 0 
L 794 531 
z
" transform="scale(0.015625)"/>
       </defs>
       <use xlink:href="#DejaVuSans-31"/>
       <use xlink:href="#DejaVuSans-30" transform="translate(63.623047 0)"/>
       <use xlink:href="#DejaVuSans-30" transform="translate(127.246094 0)"/>
      </g>
     </g>
    </g>
    <g id="xtick_4">
     <g id="line2d_7">
      <path d="M 528.33471 518.525 
L 528.33471 39.645 
" clip-path="url(#p5193211919)" style="fill: none; stroke: #e0e0e0; stroke-opacity: 0.2; stroke-width: 0.8; stroke-linecap: square"/>
     </g>
     <g id="line2d_8">
      <g>
       <use xlink:href="#m8a2ef7b724" x="528.33471" y="518.525" style="stroke: #000000; stroke-width: 0.8"/>
      </g>
     </g>
     <g id="text_4">
      <!-- 150 -->
      <g transform="translate(518.79096 533.123437) scale(0.1 -0.1)">
       <use xlink:href="#DejaVuSans-31"/>
       <use xlink:href="#DejaVuSans-35" transform="translate(63.623047 0)"/>
       <use xlink:href="#DejaVuSans-30" transform="translate(127.246094 0)"/>
      </g>
     </g>
    </g>
    <g id="xtick_5">
     <g id="line2d_9">
      <path d="M 671.444131 518.525 
L 671.444131 39.645 
" clip-path="url(#p5193211919)" style="fill: none; stroke: #e0e0e0; stroke-opacity: 0.2; stroke-width: 0.8; stroke-linecap: square"/>
     </g>
     <g id="line2d_10">
      <g>
       <use xlink:href="#m8a2ef7b724" x="671.444131" y="518.525" style="stroke: #000000; stroke-width: 0.8"/>
      </g>
     </g>
     <g id="text_5">
      <!-- 200 -->
      <g transform="translate(661.900381 533.123437) scale(0.1 -0.1)">
       <defs>
        <path id="DejaVuSans-32" d="M 1228 531 
L 3431 531 
L 3431 0 
L 469 0 
L 469 531 
Q 828 903 1448 1529 
Q 2069 2156 2228 2338 
Q 2531 2678 2651 2914 
Q 2772 3150 2772 3378 
Q 2772 3750 2511 3984 
Q 2250 4219 1831 4219 
Q 1534 4219 1204 4116 
Q 875 4013 500 3803 
L 500 4441 
Q 881 4594 1212 4672 
Q 1544 4750 1819 4750 
Q 2544 4750 2975 4387 
Q 3406 4025 3406 3419 
Q 3406 3131 3298 2873 
Q 3191 2616 2906 2266 
Q 2828 2175 2409 1742 
Q 1991 1309 1228 531 
z
" transform="scale(0.015625)"/>
       </defs>
       <use xlink:href="#DejaVuSans-32"/>
       <use xlink:href="#DejaVuSans-30" transform="translate(63.623047 0)"/>
       <use xlink:href="#DejaVuSans-30" transform="translate(127.246094 0)"/>
      </g>
     </g>
    </g>
    <g id="xtick_6">
     <g id="line2d_11">
      <path d="M 814.553552 518.525 
L 814.553552 39.645 
" clip-path="url(#p5193211919)" style="fill: none; stroke: #e0e0e0; stroke-opacity: 0.2; stroke-width: 0.8; stroke-linecap: square"/>
     </g>
     <g id="line2d_12">
      <g>
       <use xlink:href="#m8a2ef7b724" x="814.553552" y="518.525" style="stroke: #000000; stroke-width: 0.8"/>
      </g>
     </g>
     <g id="text_6">
      <!-- 250 -->
      <g transform="translate(805.009802 533.123437) scale(0.1 -0.1)">
       <use xlink:href="#DejaVuSans-32"/>
       <use xlink:href="#DejaVuSans-35" transform="translate(63.623047 0)"/>
       <use xlink:href="#DejaVuSans-30" transform="translate(127.246094 0)"/>
      </g>
     </g>
    </g>
    <g id="text_7">
     <!-- Days Since First Touch -->
     <g transform="translate(378.833906 555.840937) scale(0.14 -0.14)">
      <defs>
       <path id="DejaVuSans-44" d="M 1259 4147 
L 1259 519 
L 2022 519 
Q 2988 519 3436 956 
Q 3884 1394 3884 2338 
Q 3884 3275 3436 3711 
Q 2988 4147 2022 4147 
L 1259 4147 
z
M 628 4666 
L 1925 4666 
Q 3281 4666 3915 4102 
Q 4550 3538 4550 2338 
Q 4550 1131 3912 565 
Q 3275 0 1925 0 
L 628 0 
L 628 4666 
z
" transform="scale(0.015625)"/>
       <path id="DejaVuSans-61" d="M 2194 1759 
Q 1497 1759 1228 1600 
Q 959 1441 959 1056 
Q 959 750 1161 570 
Q 1363 391 1709 391 
Q 2188 391 2477 730 
Q 2766 1069 2766 1631 
L 2766 1759 
L 2194 1759 
z
M 3341 1997 
L 3341 0 
L 2766 0 
L 2766 531 
Q 2569 213 2275 61 
Q 1981 -91 1556 -91 
Q 1019 -91 701 211 
Q 384 513 384 1019 
Q 384 1609 779 1909 
Q 1175 2209 1959 2209 
L 2766 2209 
L 2766 2266 
Q 2766 2663 2505 2880 
Q 2244 3097 1772 3097 
Q 1472 3097 1187 3025 
Q 903 2953 641 2809 
L 641 3341 
Q 956 3463 1253 3523 
Q 1550 3584 1831 3584 
Q 2591 3584 2966 3190 
Q 3341 2797 3341 1997 
z
" transform="scale(0.015625)"/>
       <path id="DejaVuSans-79" d="M 2059 -325 
Q 1816 -950 1584 -1140 
Q 1353 -1331 966 -1331 
L 506 -1331 
L 506 -850 
L 844 -850 
Q 1081 -850 1212 -737 
Q 1344 -625 1503 -206 
L 1606 56 
L 191 3500 
L 800 3500 
L 1894 763 
L 2988 3500 
L 3597 3500 
L 2059 -325 
z
" transform="scale(0.015625)"/>
       <path id="DejaVuSans-73" d="M 2834 3397 
L 2834 2853 
Q 2591 2978 2328 3040 
Q 2066 3103 1784 3103 
Q 1356 3103 1142 2972 
Q 928 2841 928 2578 
Q 928 2378 1081 2264 
Q 1234 2150 1697 2047 
L 1894 2003 
Q 2506 1872 2764 1633 
Q 3022 1394 3022 966 
Q 3022 478 2636 193 
Q 2250 -91 1575 -91 
Q 1294 -91 989 -36 
Q 684 19 347 128 
L 347 722 
Q 666 556 975 473 
Q 1284 391 1588 391 
Q 1994 391 2212 530 
Q 2431 669 2431 922 
Q 2431 1156 2273 1281 
Q 2116 1406 1581 1522 
L 1381 1569 
Q 847 1681 609 1914 
Q 372 2147 372 2553 
Q 372 3047 722 3315 
Q 1072 3584 1716 3584 
Q 2034 3584 2315 3537 
Q 2597 3491 2834 3397 
z
" transform="scale(0.015625)"/>
       <path id="DejaVuSans-20" transform="scale(0.015625)"/>
       <path id="DejaVuSans-53" d="M 3425 4513 
L 3425 3897 
Q 3066 4069 2747 4153 
Q 2428 4238 2131 4238 
Q 1616 4238 1336 4038 
Q 1056 3838 1056 3469 
Q 1056 3159 1242 3001 
Q 1428 2844 1947 2747 
L 2328 2669 
Q 3034 2534 3370 2195 
Q 3706 1856 3706 1288 
Q 3706 609 3251 259 
Q 2797 -91 1919 -91 
Q 1588 -91 1214 -16 
Q 841 59 441 206 
L 441 856 
Q 825 641 1194 531 
Q 1563 422 1919 422 
Q 2459 422 2753 634 
Q 3047 847 3047 1241 
Q 3047 1584 2836 1778 
Q 2625 1972 2144 2069 
L 1759 2144 
Q 1053 2284 737 2584 
Q 422 2884 422 3419 
Q 422 4038 858 4394 
Q 1294 4750 2059 4750 
Q 2388 4750 2728 4690 
Q 3069 4631 3425 4513 
z
" transform="scale(0.015625)"/>
       <path id="DejaVuSans-69" d="M 603 3500 
L 1178 3500 
L 1178 0 
L 603 0 
L 603 3500 
z
M 603 4863 
L 1178 4863 
L 1178 4134 
L 603 4134 
L 603 4863 
z
" transform="scale(0.015625)"/>
       <path id="DejaVuSans-6e" d="M 3513 2113 
L 3513 0 
L 2938 0 
L 2938 2094 
Q 2938 2591 2744 2837 
Q 2550 3084 2163 3084 
Q 1697 3084 1428 2787 
Q 1159 2491 1159 1978 
L 1159 0 
L 581 0 
L 581 3500 
L 1159 3500 
L 1159 2956 
Q 1366 3272 1645 3428 
Q 1925 3584 2291 3584 
Q 2894 3584 3203 3211 
Q 3513 2838 3513 2113 
z
" transform="scale(0.015625)"/>
       <path id="DejaVuSans-63" d="M 3122 3366 
L 3122 2828 
Q 2878 2963 2633 3030 
Q 2388 3097 2138 3097 
Q 1578 3097 1268 2742 
Q 959 2388 959 1747 
Q 959 1106 1268 751 
Q 1578 397 2138 397 
Q 2388 397 2633 464 
Q 2878 531 3122 666 
L 3122 134 
Q 2881 22 2623 -34 
Q 2366 -91 2075 -91 
Q 1284 -91 818 406 
Q 353 903 353 1747 
Q 353 2603 823 3093 
Q 1294 3584 2113 3584 
Q 2378 3584 2631 3529 
Q 2884 3475 3122 3366 
z
" transform="scale(0.015625)"/>
       <path id="DejaVuSans-65" d="M 3597 1894 
L 3597 1613 
L 953 1613 
Q 991 1019 1311 708 
Q 1631 397 2203 397 
Q 2534 397 2845 478 
Q 3156 559 3463 722 
L 3463 178 
Q 3153 47 2828 -22 
Q 2503 -91 2169 -91 
Q 1331 -91 842 396 
Q 353 884 353 1716 
Q 353 2575 817 3079 
Q 1281 3584 2069 3584 
Q 2775 3584 3186 3129 
Q 3597 2675 3597 1894 
z
M 3022 2063 
Q 3016 2534 2758 2815 
Q 2500 3097 2075 3097 
Q 1594 3097 1305 2825 
Q 1016 2553 972 2059 
L 3022 2063 
z
" transform="scale(0.015625)"/>
       <path id="DejaVuSans-46" d="M 628 4666 
L 3309 4666 
L 3309 4134 
L 1259 4134 
L 1259 2759 
L 3109 2759 
L 3109 2228 
L 1259 2228 
L 1259 0 
L 628 0 
L 628 4666 
z
" transform="scale(0.015625)"/>
       <path id="DejaVuSans-72" d="M 2631 2963 
Q 2534 3019 2420 3045 
Q 2306 3072 2169 3072 
Q 1681 3072 1420 2755 
Q 1159 2438 1159 1844 
L 1159 0 
L 581 0 
L 581 3500 
L 1159 3500 
L 1159 2956 
Q 1341 3275 1631 3429 
Q 1922 3584 2338 3584 
Q 2397 3584 2469 3576 
Q 2541 3569 2628 3553 
L 2631 2963 
z
" transform="scale(0.015625)"/>
       <path id="DejaVuSans-74" d="M 1172 4494 
L 1172 3500 
L 2356 3500 
L 2356 3053 
L 1172 3053 
L 1172 1153 
Q 1172 725 1289 603 
Q 1406 481 1766 481 
L 2356 481 
L 2356 0 
L 1766 0 
Q 1100 0 847 248 
Q 594 497 594 1153 
L 594 3053 
L 172 3053 
L 172 3500 
L 594 3500 
L 594 4494 
L 1172 4494 
z
" transform="scale(0.015625)"/>
       <path id="DejaVuSans-54" d="M -19 4666 
L 3928 4666 
L 3928 4134 
L 2272 4134 
L 2272 0 
L 1638 0 
L 1638 4134 
L -19 4134 
L -19 4666 
z
" transform="scale(0.015625)"/>
       <path id="DejaVuSans-6f" d="M 1959 3097 
Q 1497 3097 1228 2736 
Q 959 2375 959 1747 
Q 959 1119 1226 758 
Q 1494 397 1959 397 
Q 2419 397 2687 759 
Q 2956 1122 2956 1747 
Q 2956 2369 2687 2733 
Q 2419 3097 1959 3097 
z
M 1959 3584 
Q 2709 3584 3137 3096 
Q 3566 2609 3566 1747 
Q 3566 888 3137 398 
Q 2709 -91 1959 -91 
Q 1206 -91 779 398 
Q 353 888 353 1747 
Q 353 2609 779 3096 
Q 1206 3584 1959 3584 
z
" transform="scale(0.015625)"/>
       <path id="DejaVuSans-75" d="M 544 1381 
L 544 3500 
L 1119 3500 
L 1119 1403 
Q 1119 906 1312 657 
Q 1506 409 1894 409 
Q 2359 409 2629 706 
Q 2900 1003 2900 1516 
L 2900 3500 
L 3475 3500 
L 3475 0 
L 2900 0 
L 2900 538 
Q 2691 219 2414 64 
Q 2138 -91 1772 -91 
Q 1169 -91 856 284 
Q 544 659 544 1381 
z
M 1991 3584 
L 1991 3584 
z
" transform="scale(0.015625)"/>
       <path id="DejaVuSans-68" d="M 3513 2113 
L 3513 0 
L 2938 0 
L 2938 2094 
Q 2938 2591 2744 2837 
Q 2550 3084 2163 3084 
Q 1697 3084 1428 2787 
Q 1159 2491 1159 1978 
L 1159 0 
L 581 0 
L 581 4863 
L 1159 4863 
L 1159 2956 
Q 1366 3272 1645 3428 
Q 1925 3584 2291 3584 
Q 2894 3584 3203 3211 
Q 3513 2838 3513 2113 
z
" transform="scale(0.015625)"/>
      </defs>
      <use xlink:href="#DejaVuSans-44"/>
      <use xlink:href="#DejaVuSans-61" transform="translate(77.001953 0)"/>
      <use xlink:href="#DejaVuSans-79" transform="translate(138.28125 0)"/>
      <use xlink:href="#DejaVuSans-73" transform="translate(197.460938 0)"/>
      <use xlink:href="#DejaVuSans-20" transform="translate(249.560547 0)"/>
      <use xlink:href="#DejaVuSans-53" transform="translate(281.347656 0)"/>
      <use xlink:href="#DejaVuSans-69" transform="translate(344.824219 0)"/>
      <use xlink:href="#DejaVuSans-6e" transform="translate(372.607422 0)"/>
      <use xlink:href="#DejaVuSans-63" transform="translate(435.986328 0)"/>
      <use xlink:href="#DejaVuSans-65" transform="translate(490.966797 0)"/>
      <use xlink:href="#DejaVuSans-20" transform="translate(552.490234 0)"/>
      <use xlink:href="#DejaVuSans-46" transform="translate(584.277344 0)"/>
      <use xlink:href="#DejaVuSans-69" transform="translate(634.546875 0)"/>
      <use xlink:href="#DejaVuSans-72" transform="translate(662.330078 0)"/>
      <use xlink:href="#DejaVuSans-73" transform="translate(703.443359 0)"/>
      <use xlink:href="#DejaVuSans-74" transform="translate(755.542969 0)"/>
      <use xlink:href="#DejaVuSans-20" transform="translate(794.751953 0)"/>
      <use xlink:href="#DejaVuSans-54" transform="translate(826.539062 0)"/>
      <use xlink:href="#DejaVuSans-6f" transform="translate(870.623047 0)"/>
      <use xlink:href="#DejaVuSans-75" transform="translate(931.804688 0)"/>
      <use xlink:href="#DejaVuSans-63" transform="translate(995.183594 0)"/>
      <use xlink:href="#DejaVuSans-68" transform="translate(1050.164062 0)"/>
     </g>
    </g>
   </g>
   <g id="matplotlib.axis_2">
    <g id="ytick_1">
     <g id="line2d_13">
      <path d="M 66.3775 518.525 
L 847.1825 518.525 
" clip-path="url(#p5193211919)" style="fill: none; stroke: #e0e0e0; stroke-opacity: 0.2; stroke-width: 0.8; stroke-linecap: square"/>
     </g>
     <g id="line2d_14">
      <defs>
       <path id="m436ca97c62" d="M 0 0 
L -3.5 0 
" style="stroke: #000000; stroke-width: 0.8"/>
      </defs>
      <g>
       <use xlink:href="#m436ca97c62" x="66.3775" y="518.525" style="stroke: #000000; stroke-width: 0.8"/>
      </g>
     </g>
     <g id="text_8">
      <!-- 0.000 -->
      <g transform="translate(30.749375 522.324219) scale(0.1 -0.1)">
       <defs>
        <path id="DejaVuSans-2e" d="M 684 794 
L 1344 794 
L 1344 0 
L 684 0 
L 684 794 
z
" transform="scale(0.015625)"/>
       </defs>
       <use xlink:href="#DejaVuSans-30"/>
       <use xlink:href="#DejaVuSans-2e" transform="translate(63.623047 0)"/>
       <use xlink:href="#DejaVuSans-30" transform="translate(95.410156 0)"/>
       <use xlink:href="#DejaVuSans-30" transform="translate(159.033203 0)"/>
       <use xlink:href="#DejaVuSans-30" transform="translate(222.65625 0)"/>
      </g>
     </g>
    </g>
    <g id="ytick_2">
     <g id="line2d_15">
      <path d="M 66.3775 422.885823 
L 847.1825 422.885823 
" clip-path="url(#p5193211919)" style="fill: none; stroke: #e0e0e0; stroke-opacity: 0.2; stroke-width: 0.8; stroke-linecap: square"/>
     </g>
     <g id="line2d_16">
      <g>
       <use xlink:href="#m436ca97c62" x="66.3775" y="422.885823" style="stroke: #000000; stroke-width: 0.8"/>
      </g>
     </g>
     <g id="text_9">
      <!-- 0.002 -->
      <g transform="translate(30.749375 426.685042) scale(0.1 -0.1)">
       <use xlink:href="#DejaVuSans-30"/>
       <use xlink:href="#DejaVuSans-2e" transform="translate(63.623047 0)"/>
       <use xlink:href="#DejaVuSans-30" transform="translate(95.410156 0)"/>
       <use xlink:href="#DejaVuSans-30" transform="translate(159.033203 0)"/>
       <use xlink:href="#DejaVuSans-32" transform="translate(222.65625 0)"/>
      </g>
     </g>
    </g>
    <g id="ytick_3">
     <g id="line2d_17">
      <path d="M 66.3775 327.246646 
L 847.1825 327.246646 
" clip-path="url(#p5193211919)" style="fill: none; stroke: #e0e0e0; stroke-opacity: 0.2; stroke-width: 0.8; stroke-linecap: square"/>
     </g>
     <g id="line2d_18">
      <g>
       <use xlink:href="#m436ca97c62" x="66.3775" y="327.246646" style="stroke: #000000; stroke-width: 0.8"/>
      </g>
     </g>
     <g id="text_10">
      <!-- 0.004 -->
      <g transform="translate(30.749375 331.045864) scale(0.1 -0.1)">
       <defs>
        <path id="DejaVuSans-34" d="M 2419 4116 
L 825 1625 
L 2419 1625 
L 2419 4116 
z
M 2253 4666 
L 3047 4666 
L 3047 1625 
L 3713 1625 
L 3713 1100 
L 3047 1100 
L 3047 0 
L 2419 0 
L 2419 1100 
L 313 1100 
L 313 1709 
L 2253 4666 
z
" transform="scale(0.015625)"/>
       </defs>
       <use xlink:href="#DejaVuSans-30"/>
       <use xlink:href="#DejaVuSans-2e" transform="translate(63.623047 0)"/>
       <use xlink:href="#DejaVuSans-30" transform="translate(95.410156 0)"/>
       <use xlink:href="#DejaVuSans-30" transform="translate(159.033203 0)"/>
       <use xlink:href="#DejaVuSans-34" transform="translate(222.65625 0)"/>
      </g>
     </g>
    </g>
    <g id="ytick_4">
     <g id="line2d_19">
      <path d="M 66.3775 231.607469 
L 847.1825 231.607469 
" clip-path="url(#p5193211919)" style="fill: none; stroke: #e0e0e0; stroke-opacity: 0.2; stroke-width: 0.8; stroke-linecap: square"/>
     </g>
     <g id="line2d_20">
      <g>
       <use xlink:href="#m436ca97c62" x="66.3775" y="231.607469" style="stroke: #000000; stroke-width: 0.8"/>
      </g>
     </g>
     <g id="text_11">
      <!-- 0.006 -->
      <g transform="translate(30.749375 235.406687) scale(0.1 -0.1)">
       <defs>
        <path id="DejaVuSans-36" d="M 2113 2584 
Q 1688 2584 1439 2293 
Q 1191 2003 1191 1497 
Q 1191 994 1439 701 
Q 1688 409 2113 409 
Q 2538 409 2786 701 
Q 3034 994 3034 1497 
Q 3034 2003 2786 2293 
Q 2538 2584 2113 2584 
z
M 3366 4563 
L 3366 3988 
Q 3128 4100 2886 4159 
Q 2644 4219 2406 4219 
Q 1781 4219 1451 3797 
Q 1122 3375 1075 2522 
Q 1259 2794 1537 2939 
Q 1816 3084 2150 3084 
Q 2853 3084 3261 2657 
Q 3669 2231 3669 1497 
Q 3669 778 3244 343 
Q 2819 -91 2113 -91 
Q 1303 -91 875 529 
Q 447 1150 447 2328 
Q 447 3434 972 4092 
Q 1497 4750 2381 4750 
Q 2619 4750 2861 4703 
Q 3103 4656 3366 4563 
z
" transform="scale(0.015625)"/>
       </defs>
       <use xlink:href="#DejaVuSans-30"/>
       <use xlink:href="#DejaVuSans-2e" transform="translate(63.623047 0)"/>
       <use xlink:href="#DejaVuSans-30" transform="translate(95.410156 0)"/>
       <use xlink:href="#DejaVuSans-30" transform="translate(159.033203 0)"/>
       <use xlink:href="#DejaVuSans-36" transform="translate(222.65625 0)"/>
      </g>
     </g>
    </g>
    <g id="ytick_5">
     <g id="line2d_21">
      <path d="M 66.3775 135.968291 
L 847.1825 135.968291 
" clip-path="url(#p5193211919)" style="fill: none; stroke: #e0e0e0; stroke-opacity: 0.2; stroke-width: 0.8; stroke-linecap: square"/>
     </g>
     <g id="line2d_22">
      <g>
       <use xlink:href="#m436ca97c62" x="66.3775" y="135.968291" style="stroke: #000000; stroke-width: 0.8"/>
      </g>
     </g>
     <g id="text_12">
      <!-- 0.008 -->
      <g transform="translate(30.749375 139.76751) scale(0.1 -0.1)">
       <defs>
        <path id="DejaVuSans-38" d="M 2034 2216 
Q 1584 2216 1326 1975 
Q 1069 1734 1069 1313 
Q 1069 891 1326 650 
Q 1584 409 2034 409 
Q 2484 409 2743 651 
Q 3003 894 3003 1313 
Q 3003 1734 2745 1975 
Q 2488 2216 2034 2216 
z
M 1403 2484 
Q 997 2584 770 2862 
Q 544 3141 544 3541 
Q 544 4100 942 4425 
Q 1341 4750 2034 4750 
Q 2731 4750 3128 4425 
Q 3525 4100 3525 3541 
Q 3525 3141 3298 2862 
Q 3072 2584 2669 2484 
Q 3125 2378 3379 2068 
Q 3634 1759 3634 1313 
Q 3634 634 3220 271 
Q 2806 -91 2034 -91 
Q 1263 -91 848 271 
Q 434 634 434 1313 
Q 434 1759 690 2068 
Q 947 2378 1403 2484 
z
M 1172 3481 
Q 1172 3119 1398 2916 
Q 1625 2713 2034 2713 
Q 2441 2713 2670 2916 
Q 2900 3119 2900 3481 
Q 2900 3844 2670 4047 
Q 2441 4250 2034 4250 
Q 1625 4250 1398 4047 
Q 1172 3844 1172 3481 
z
" transform="scale(0.015625)"/>
       </defs>
       <use xlink:href="#DejaVuSans-30"/>
       <use xlink:href="#DejaVuSans-2e" transform="translate(63.623047 0)"/>
       <use xlink:href="#DejaVuSans-30" transform="translate(95.410156 0)"/>
       <use xlink:href="#DejaVuSans-30" transform="translate(159.033203 0)"/>
       <use xlink:href="#DejaVuSans-38" transform="translate(222.65625 0)"/>
      </g>
     </g>
    </g>
    <g id="ytick_6">
     <g id="line2d_23">
      <path d="M 66.3775 40.329114 
L 847.1825 40.329114 
" clip-path="url(#p5193211919)" style="fill: none; stroke: #e0e0e0; stroke-opacity: 0.2; stroke-width: 0.8; stroke-linecap: square"/>
     </g>
     <g id="line2d_24">
      <g>
       <use xlink:href="#m436ca97c62" x="66.3775" y="40.329114" style="stroke: #000000; stroke-width: 0.8"/>
      </g>
     </g>
     <g id="text_13">
      <!-- 0.010 -->
      <g transform="translate(30.749375 44.128333) scale(0.1 -0.1)">
       <use xlink:href="#DejaVuSans-30"/>
       <use xlink:href="#DejaVuSans-2e" transform="translate(63.623047 0)"/>
       <use xlink:href="#DejaVuSans-30" transform="translate(95.410156 0)"/>
       <use xlink:href="#DejaVuSans-31" transform="translate(159.033203 0)"/>
       <use xlink:href="#DejaVuSans-30" transform="translate(222.65625 0)"/>
      </g>
     </g>
    </g>
    <g id="text_14">
     <!-- Densidade -->
     <g transform="translate(17.837812 316.294375) rotate(-90) scale(0.14 -0.14)">
      <defs>
       <path id="DejaVuSans-64" d="M 2906 2969 
L 2906 4863 
L 3481 4863 
L 3481 0 
L 2906 0 
L 2906 525 
Q 2725 213 2448 61 
Q 2172 -91 1784 -91 
Q 1150 -91 751 415 
Q 353 922 353 1747 
Q 353 2572 751 3078 
Q 1150 3584 1784 3584 
Q 2172 3584 2448 3432 
Q 2725 3281 2906 2969 
z
M 947 1747 
Q 947 1113 1208 752 
Q 1469 391 1925 391 
Q 2381 391 2643 752 
Q 2906 1113 2906 1747 
Q 2906 2381 2643 2742 
Q 2381 3103 1925 3103 
Q 1469 3103 1208 2742 
Q 947 2381 947 1747 
z
" transform="scale(0.015625)"/>
      </defs>
      <use xlink:href="#DejaVuSans-44"/>
      <use xlink:href="#DejaVuSans-65" transform="translate(77.001953 0)"/>
      <use xlink:href="#DejaVuSans-6e" transform="translate(138.525391 0)"/>
      <use xlink:href="#DejaVuSans-73" transform="translate(201.904297 0)"/>
      <use xlink:href="#DejaVuSans-69" transform="translate(254.003906 0)"/>
      <use xlink:href="#DejaVuSans-64" transform="translate(281.787109 0)"/>
      <use xlink:href="#DejaVuSans-61" transform="translate(345.263672 0)"/>
      <use xlink:href="#DejaVuSans-64" transform="translate(406.542969 0)"/>
      <use xlink:href="#DejaVuSans-65" transform="translate(470.019531 0)"/>
     </g>
    </g>
   </g>
   <g id="line2d_25">
    <path d="M 410.030923 518.525 
L 410.030923 39.645 
" clip-path="url(#p5193211919)" style="fill: none; stroke-dasharray: 7.4,3.2; stroke-dashoffset: 0; stroke: #2e4a6b; stroke-opacity: 0.8; stroke-width: 2"/>
   </g>
   <g id="line2d_26">
    <path d="M 478.117982 518.525 
L 478.117982 39.645 
" clip-path="url(#p5193211919)" style="fill: none; stroke-dasharray: 7.4,3.2; stroke-dashoffset: 0; stroke: #adb5bd; stroke-opacity: 0.8; stroke-width: 2"/>
   </g>
   <g id="patch_83">
    <path d="M 66.3775 518.525 
L 66.3775 39.645 
" style="fill: none; stroke: #000000; stroke-width: 0.8; stroke-linejoin: miter; stroke-linecap: square"/>
   </g>
   <g id="patch_84">
    <path d="M 66.3775 518.525 
L 847.1825 518.525 
" style="fill: none; stroke: #000000; stroke-width: 0.8; stroke-linejoin: miter; stroke-linecap: square"/>
   </g>
   <g id="text_15">
    <g id="patch_85">
     <path d="M 81.9936 75.486131 
L 206.149225 75.486131 
Q 209.449225 75.486131 209.449225 72.186131 
L 209.449225 49.2226 
Q 209.449225 45.9226 206.149225 45.9226 
L 81.9936 45.9226 
Q 78.6936 45.9226 78.6936 49.2226 
L 78.6936 72.186131 
Q 78.6936 75.486131 81.9936 75.486131 
z
" style="fill: #e8f4fd; opacity: 0.8; stroke: #000000; stroke-linejoin: miter"/>
    </g>
    <!-- Convertido: 108.7 -->
    <g transform="translate(81.9936 57.580881) scale(0.11 -0.11)">
     <defs>
      <path id="DejaVuSans-43" d="M 4122 4306 
L 4122 3641 
Q 3803 3938 3442 4084 
Q 3081 4231 2675 4231 
Q 1875 4231 1450 3742 
Q 1025 3253 1025 2328 
Q 1025 1406 1450 917 
Q 1875 428 2675 428 
Q 3081 428 3442 575 
Q 3803 722 4122 1019 
L 4122 359 
Q 3791 134 3420 21 
Q 3050 -91 2638 -91 
Q 1578 -91 968 557 
Q 359 1206 359 2328 
Q 359 3453 968 4101 
Q 1578 4750 2638 4750 
Q 3056 4750 3426 4639 
Q 3797 4528 4122 4306 
z
" transform="scale(0.015625)"/>
      <path id="DejaVuSans-76" d="M 191 3500 
L 800 3500 
L 1894 563 
L 2988 3500 
L 3597 3500 
L 2284 0 
L 1503 0 
L 191 3500 
z
" transform="scale(0.015625)"/>
      <path id="DejaVuSans-3a" d="M 750 794 
L 1409 794 
L 1409 0 
L 750 0 
L 750 794 
z
M 750 3309 
L 1409 3309 
L 1409 2516 
L 750 2516 
L 750 3309 
z
" transform="scale(0.015625)"/>
      <path id="DejaVuSans-37" d="M 525 4666 
L 3525 4666 
L 3525 4397 
L 1831 0 
L 1172 0 
L 2766 4134 
L 525 4134 
L 525 4666 
z
" transform="scale(0.015625)"/>
     </defs>
     <use xlink:href="#DejaVuSans-43"/>
     <use xlink:href="#DejaVuSans-6f" transform="translate(69.824219 0)"/>
     <use xlink:href="#DejaVuSans-6e" transform="translate(131.005859 0)"/>
     <use xlink:href="#DejaVuSans-76" transform="translate(194.384766 0)"/>
     <use xlink:href="#DejaVuSans-65" transform="translate(253.564453 0)"/>
     <use xlink:href="#DejaVuSans-72" transform="translate(315.087891 0)"/>
     <use xlink:href="#DejaVuSans-74" transform="translate(356.201172 0)"/>
     <use xlink:href="#DejaVuSans-69" transform="translate(395.410156 0)"/>
     <use xlink:href="#DejaVuSans-64" transform="translate(423.193359 0)"/>
     <use xlink:href="#DejaVuSans-6f" transform="translate(486.669922 0)"/>
     <use xlink:href="#DejaVuSans-3a" transform="translate(547.851562 0)"/>
     <use xlink:href="#DejaVuSans-20" transform="translate(581.542969 0)"/>
     <use xlink:href="#DejaVuSans-31" transform="translate(613.330078 0)"/>
     <use xlink:href="#DejaVuSans-30" transform="translate(676.953125 0)"/>
     <use xlink:href="#DejaVuSans-38" transform="translate(740.576172 0)"/>
     <use xlink:href="#DejaVuSans-2e" transform="translate(804.199219 0)"/>
     <use xlink:href="#DejaVuSans-37" transform="translate(835.986328 0)"/>
    </g>
    <!-- Não Convertido: 132.5 -->
    <g transform="translate(81.9936 69.898475) scale(0.11 -0.11)">
     <defs>
      <path id="DejaVuSans-4e" d="M 628 4666 
L 1478 4666 
L 3547 763 
L 3547 4666 
L 4159 4666 
L 4159 0 
L 3309 0 
L 1241 3903 
L 1241 0 
L 628 0 
L 628 4666 
z
" transform="scale(0.015625)"/>
      <path id="DejaVuSans-e3" d="M 2194 1759 
Q 1497 1759 1228 1600 
Q 959 1441 959 1056 
Q 959 750 1161 570 
Q 1363 391 1709 391 
Q 2188 391 2477 730 
Q 2766 1069 2766 1631 
L 2766 1759 
L 2194 1759 
z
M 3341 1997 
L 3341 0 
L 2766 0 
L 2766 531 
Q 2569 213 2275 61 
Q 1981 -91 1556 -91 
Q 1019 -91 701 211 
Q 384 513 384 1019 
Q 384 1609 779 1909 
Q 1175 2209 1959 2209 
L 2766 2209 
L 2766 2266 
Q 2766 2663 2505 2880 
Q 2244 3097 1772 3097 
Q 1472 3097 1187 3025 
Q 903 2953 641 2809 
L 641 3341 
Q 956 3463 1253 3523 
Q 1550 3584 1831 3584 
Q 2591 3584 2966 3190 
Q 3341 2797 3341 1997 
z
M 1844 4281 
L 1665 4453 
Q 1597 4516 1545 4545 
Q 1494 4575 1453 4575 
Q 1334 4575 1278 4461 
Q 1222 4347 1215 4091 
L 825 4091 
Q 831 4513 990 4742 
Q 1150 4972 1434 4972 
Q 1553 4972 1653 4928 
Q 1753 4884 1869 4781 
L 2047 4609 
Q 2115 4547 2167 4517 
Q 2219 4488 2259 4488 
Q 2378 4488 2434 4602 
Q 2490 4716 2497 4972 
L 2887 4972 
Q 2881 4550 2721 4320 
Q 2562 4091 2278 4091 
Q 2159 4091 2059 4134 
Q 1959 4178 1844 4281 
z
" transform="scale(0.015625)"/>
      <path id="DejaVuSans-33" d="M 2597 2516 
Q 3050 2419 3304 2112 
Q 3559 1806 3559 1356 
Q 3559 666 3084 287 
Q 2609 -91 1734 -91 
Q 1441 -91 1130 -33 
Q 819 25 488 141 
L 488 750 
Q 750 597 1062 519 
Q 1375 441 1716 441 
Q 2309 441 2620 675 
Q 2931 909 2931 1356 
Q 2931 1769 2642 2001 
Q 2353 2234 1838 2234 
L 1294 2234 
L 1294 2753 
L 1863 2753 
Q 2328 2753 2575 2939 
Q 2822 3125 2822 3475 
Q 2822 3834 2567 4026 
Q 2313 4219 1838 4219 
Q 1578 4219 1281 4162 
Q 984 4106 628 3988 
L 628 4550 
Q 988 4650 1302 4700 
Q 1616 4750 1894 4750 
Q 2613 4750 3031 4423 
Q 3450 4097 3450 3541 
Q 3450 3153 3228 2886 
Q 3006 2619 2597 2516 
z
" transform="scale(0.015625)"/>
     </defs>
     <use xlink:href="#DejaVuSans-4e"/>
     <use xlink:href="#DejaVuSans-e3" transform="translate(74.804688 0)"/>
     <use xlink:href="#DejaVuSans-6f" transform="translate(136.083984 0)"/>
     <use xlink:href="#DejaVuSans-20" transform="translate(197.265625 0)"/>
     <use xlink:href="#DejaVuSans-43" transform="translate(229.052734 0)"/>
     <use xlink:href="#DejaVuSans-6f" transform="translate(298.876953 0)"/>
     <use xlink:href="#DejaVuSans-6e" transform="translate(360.058594 0)"/>
     <use xlink:href="#DejaVuSans-76" transform="translate(423.4375 0)"/>
     <use xlink:href="#DejaVuSans-65" transform="translate(482.617188 0)"/>
     <use xlink:href="#DejaVuSans-72" transform="translate(544.140625 0)"/>
     <use xlink:href="#DejaVuSans-74" transform="translate(585.253906 0)"/>
     <use xlink:href="#DejaVuSans-69" transform="translate(624.462891 0)"/>
     <use xlink:href="#DejaVuSans-64" transform="translate(652.246094 0)"/>
     <use xlink:href="#DejaVuSans-6f" transform="translate(715.722656 0)"/>
     <use xlink:href="#DejaVuSans-3a" transform="translate(776.904297 0)"/>
     <use xlink:href="#DejaVuSans-20" transform="translate(810.595703 0)"/>
     <use xlink:href="#DejaVuSans-31" transform="translate(842.382812 0)"/>
     <use xlink:href="#DejaVuSans-33" transform="translate(906.005859 0)"/>
     <use xlink:href="#DejaVuSans-32" transform="translate(969.628906 0)"/>
     <use xlink:href="#DejaVuSans-2e" transform="translate(1033.251953 0)"/>
     <use xlink:href="#DejaVuSans-35" transform="translate(1065.039062 0)"/>
    </g>
   </g>
   <g id="text_16">
    <!-- Distribuição de Days Since First Touch -->
    <g transform="translate(284.3475 19.645) scale(0.16 -0.16)">
     <defs>
      <path id="DejaVuSans-Bold-44" d="M 1791 3756 
L 1791 909 
L 2222 909 
Q 2959 909 3348 1275 
Q 3738 1641 3738 2338 
Q 3738 3031 3350 3393 
Q 2963 3756 2222 3756 
L 1791 3756 
z
M 588 4666 
L 1856 4666 
Q 2919 4666 3439 4514 
Q 3959 4363 4331 4000 
Q 4659 3684 4818 3271 
Q 4978 2859 4978 2338 
Q 4978 1809 4818 1395 
Q 4659 981 4331 666 
Q 3956 303 3431 151 
Q 2906 0 1856 0 
L 588 0 
L 588 4666 
z
" transform="scale(0.015625)"/>
      <path id="DejaVuSans-Bold-69" d="M 538 3500 
L 1656 3500 
L 1656 0 
L 538 0 
L 538 3500 
z
M 538 4863 
L 1656 4863 
L 1656 3950 
L 538 3950 
L 538 4863 
z
" transform="scale(0.015625)"/>
      <path id="DejaVuSans-Bold-73" d="M 3272 3391 
L 3272 2541 
Q 2913 2691 2578 2766 
Q 2244 2841 1947 2841 
Q 1628 2841 1473 2761 
Q 1319 2681 1319 2516 
Q 1319 2381 1436 2309 
Q 1553 2238 1856 2203 
L 2053 2175 
Q 2913 2066 3209 1816 
Q 3506 1566 3506 1031 
Q 3506 472 3093 190 
Q 2681 -91 1863 -91 
Q 1516 -91 1145 -36 
Q 775 19 384 128 
L 384 978 
Q 719 816 1070 734 
Q 1422 653 1784 653 
Q 2113 653 2278 743 
Q 2444 834 2444 1013 
Q 2444 1163 2330 1236 
Q 2216 1309 1875 1350 
L 1678 1375 
Q 931 1469 631 1722 
Q 331 1975 331 2491 
Q 331 3047 712 3315 
Q 1094 3584 1881 3584 
Q 2191 3584 2531 3537 
Q 2872 3491 3272 3391 
z
" transform="scale(0.015625)"/>
      <path id="DejaVuSans-Bold-74" d="M 1759 4494 
L 1759 3500 
L 2913 3500 
L 2913 2700 
L 1759 2700 
L 1759 1216 
Q 1759 972 1856 886 
Q 1953 800 2241 800 
L 2816 800 
L 2816 0 
L 1856 0 
Q 1194 0 917 276 
Q 641 553 641 1216 
L 641 2700 
L 84 2700 
L 84 3500 
L 641 3500 
L 641 4494 
L 1759 4494 
z
" transform="scale(0.015625)"/>
      <path id="DejaVuSans-Bold-72" d="M 3138 2547 
Q 2991 2616 2845 2648 
Q 2700 2681 2553 2681 
Q 2122 2681 1889 2404 
Q 1656 2128 1656 1613 
L 1656 0 
L 538 0 
L 538 3500 
L 1656 3500 
L 1656 2925 
Q 1872 3269 2151 3426 
Q 2431 3584 2822 3584 
Q 2878 3584 2943 3579 
Q 3009 3575 3134 3559 
L 3138 2547 
z
" transform="scale(0.015625)"/>
      <path id="DejaVuSans-Bold-62" d="M 2400 722 
Q 2759 722 2948 984 
Q 3138 1247 3138 1747 
Q 3138 2247 2948 2509 
Q 2759 2772 2400 2772 
Q 2041 2772 1848 2508 
Q 1656 2244 1656 1747 
Q 1656 1250 1848 986 
Q 2041 722 2400 722 
z
M 1656 2988 
Q 1888 3294 2169 3439 
Q 2450 3584 2816 3584 
Q 3463 3584 3878 3070 
Q 4294 2556 4294 1747 
Q 4294 938 3878 423 
Q 3463 -91 2816 -91 
Q 2450 -91 2169 54 
Q 1888 200 1656 506 
L 1656 0 
L 538 0 
L 538 4863 
L 1656 4863 
L 1656 2988 
z
" transform="scale(0.015625)"/>
      <path id="DejaVuSans-Bold-75" d="M 500 1363 
L 500 3500 
L 1625 3500 
L 1625 3150 
Q 1625 2866 1622 2436 
Q 1619 2006 1619 1863 
Q 1619 1441 1641 1255 
Q 1663 1069 1716 984 
Q 1784 875 1895 815 
Q 2006 756 2150 756 
Q 2500 756 2700 1025 
Q 2900 1294 2900 1772 
L 2900 3500 
L 4019 3500 
L 4019 0 
L 2900 0 
L 2900 506 
Q 2647 200 2364 54 
Q 2081 -91 1741 -91 
Q 1134 -91 817 281 
Q 500 653 500 1363 
z
" transform="scale(0.015625)"/>
      <path id="DejaVuSans-Bold-e7" d="M 3366 3391 
L 3366 2478 
Q 3138 2634 2908 2709 
Q 2678 2784 2431 2784 
Q 1963 2784 1702 2511 
Q 1441 2238 1441 1747 
Q 1441 1256 1702 982 
Q 1963 709 2431 709 
Q 2694 709 2930 787 
Q 3166 866 3366 1019 
L 3366 103 
Q 3103 6 2833 -42 
Q 2563 -91 2291 -91 
Q 1344 -91 809 395 
Q 275 881 275 1747 
Q 275 2613 809 3098 
Q 1344 3584 2291 3584 
Q 2566 3584 2833 3536 
Q 3100 3488 3366 3391 
z
M 2457 0 
Q 2639 -194 2724 -359 
Q 2810 -525 2810 -672 
Q 2810 -969 2618 -1111 
Q 2426 -1253 2029 -1253 
Q 1879 -1253 1719 -1233 
Q 1560 -1213 1398 -1172 
L 1395 -697 
Q 1551 -747 1680 -770 
Q 1810 -794 1914 -794 
Q 2095 -794 2196 -722 
Q 2298 -650 2298 -525 
Q 2298 -444 2231 -316 
Q 2164 -188 2023 0 
L 2457 0 
z
" transform="scale(0.015625)"/>
      <path id="DejaVuSans-Bold-e3" d="M 2106 1575 
Q 1756 1575 1579 1456 
Q 1403 1338 1403 1106 
Q 1403 894 1545 773 
Q 1688 653 1941 653 
Q 2256 653 2472 879 
Q 2688 1106 2688 1447 
L 2688 1575 
L 2106 1575 
z
M 3816 1997 
L 3816 0 
L 2688 0 
L 2688 519 
Q 2463 200 2181 54 
Q 1900 -91 1497 -91 
Q 953 -91 614 226 
Q 275 544 275 1050 
Q 275 1666 698 1953 
Q 1122 2241 2028 2241 
L 2688 2241 
L 2688 2328 
Q 2688 2594 2478 2717 
Q 2269 2841 1825 2841 
Q 1466 2841 1156 2769 
Q 847 2697 581 2553 
L 581 3406 
Q 941 3494 1303 3539 
Q 1666 3584 2028 3584 
Q 2975 3584 3395 3211 
Q 3816 2838 3816 1997 
z
M 2190 4263 
L 2018 4378 
Q 2006 4384 1987 4397 
Q 1840 4494 1762 4494 
Q 1650 4494 1590 4397 
Q 1531 4300 1531 4116 
L 1531 4091 
L 1097 4091 
Q 1097 4516 1257 4747 
Q 1418 4978 1709 4978 
Q 1822 4978 1936 4936 
Q 2050 4894 2178 4800 
L 2368 4666 
Q 2437 4619 2495 4594 
Q 2553 4569 2600 4569 
Q 2712 4569 2774 4669 
Q 2837 4769 2837 4947 
L 2837 4972 
L 3272 4972 
Q 3272 4547 3111 4315 
Q 2950 4084 2659 4084 
Q 2547 4084 2442 4121 
Q 2337 4159 2190 4263 
z
" transform="scale(0.015625)"/>
      <path id="DejaVuSans-Bold-6f" d="M 2203 2784 
Q 1831 2784 1636 2517 
Q 1441 2250 1441 1747 
Q 1441 1244 1636 976 
Q 1831 709 2203 709 
Q 2569 709 2762 976 
Q 2956 1244 2956 1747 
Q 2956 2250 2762 2517 
Q 2569 2784 2203 2784 
z
M 2203 3584 
Q 3106 3584 3614 3096 
Q 4122 2609 4122 1747 
Q 4122 884 3614 396 
Q 3106 -91 2203 -91 
Q 1297 -91 786 396 
Q 275 884 275 1747 
Q 275 2609 786 3096 
Q 1297 3584 2203 3584 
z
" transform="scale(0.015625)"/>
      <path id="DejaVuSans-Bold-20" transform="scale(0.015625)"/>
      <path id="DejaVuSans-Bold-64" d="M 2919 2988 
L 2919 4863 
L 4044 4863 
L 4044 0 
L 2919 0 
L 2919 506 
Q 2688 197 2409 53 
Q 2131 -91 1766 -91 
Q 1119 -91 703 423 
Q 288 938 288 1747 
Q 288 2556 703 3070 
Q 1119 3584 1766 3584 
Q 2128 3584 2408 3439 
Q 2688 3294 2919 2988 
z
M 2181 722 
Q 2541 722 2730 984 
Q 2919 1247 2919 1747 
Q 2919 2247 2730 2509 
Q 2541 2772 2181 2772 
Q 1825 2772 1636 2509 
Q 1447 2247 1447 1747 
Q 1447 1247 1636 984 
Q 1825 722 2181 722 
z
" transform="scale(0.015625)"/>
      <path id="DejaVuSans-Bold-65" d="M 4031 1759 
L 4031 1441 
L 1416 1441 
Q 1456 1047 1700 850 
Q 1944 653 2381 653 
Q 2734 653 3104 758 
Q 3475 863 3866 1075 
L 3866 213 
Q 3469 63 3072 -14 
Q 2675 -91 2278 -91 
Q 1328 -91 801 392 
Q 275 875 275 1747 
Q 275 2603 792 3093 
Q 1309 3584 2216 3584 
Q 3041 3584 3536 3087 
Q 4031 2591 4031 1759 
z
M 2881 2131 
Q 2881 2450 2695 2645 
Q 2509 2841 2209 2841 
Q 1884 2841 1681 2658 
Q 1478 2475 1428 2131 
L 2881 2131 
z
" transform="scale(0.015625)"/>
      <path id="DejaVuSans-Bold-61" d="M 2106 1575 
Q 1756 1575 1579 1456 
Q 1403 1338 1403 1106 
Q 1403 894 1545 773 
Q 1688 653 1941 653 
Q 2256 653 2472 879 
Q 2688 1106 2688 1447 
L 2688 1575 
L 2106 1575 
z
M 3816 1997 
L 3816 0 
L 2688 0 
L 2688 519 
Q 2463 200 2181 54 
Q 1900 -91 1497 -91 
Q 953 -91 614 226 
Q 275 544 275 1050 
Q 275 1666 698 1953 
Q 1122 2241 2028 2241 
L 2688 2241 
L 2688 2328 
Q 2688 2594 2478 2717 
Q 2269 2841 1825 2841 
Q 1466 2841 1156 2769 
Q 847 2697 581 2553 
L 581 3406 
Q 941 3494 1303 3539 
Q 1666 3584 2028 3584 
Q 2975 3584 3395 3211 
Q 3816 2838 3816 1997 
z
" transform="scale(0.015625)"/>
      <path id="DejaVuSans-Bold-79" d="M 78 3500 
L 1197 3500 
L 2138 1125 
L 2938 3500 
L 4056 3500 
L 2584 -331 
Q 2363 -916 2067 -1148 
Q 1772 -1381 1288 -1381 
L 641 -1381 
L 641 -647 
L 991 -647 
Q 1275 -647 1404 -556 
Q 1534 -466 1606 -231 
L 1638 -134 
L 78 3500 
z
" transform="scale(0.015625)"/>
      <path id="DejaVuSans-Bold-53" d="M 3834 4519 
L 3834 3531 
Q 3450 3703 3084 3790 
Q 2719 3878 2394 3878 
Q 1963 3878 1756 3759 
Q 1550 3641 1550 3391 
Q 1550 3203 1689 3098 
Q 1828 2994 2194 2919 
L 2706 2816 
Q 3484 2659 3812 2340 
Q 4141 2022 4141 1434 
Q 4141 663 3683 286 
Q 3225 -91 2284 -91 
Q 1841 -91 1394 -6 
Q 947 78 500 244 
L 500 1259 
Q 947 1022 1364 901 
Q 1781 781 2169 781 
Q 2563 781 2772 912 
Q 2981 1044 2981 1288 
Q 2981 1506 2839 1625 
Q 2697 1744 2272 1838 
L 1806 1941 
Q 1106 2091 782 2419 
Q 459 2747 459 3303 
Q 459 4000 909 4375 
Q 1359 4750 2203 4750 
Q 2588 4750 2994 4692 
Q 3400 4634 3834 4519 
z
" transform="scale(0.015625)"/>
      <path id="DejaVuSans-Bold-6e" d="M 4056 2131 
L 4056 0 
L 2931 0 
L 2931 347 
L 2931 1631 
Q 2931 2084 2911 2256 
Q 2891 2428 2841 2509 
Q 2775 2619 2662 2680 
Q 2550 2741 2406 2741 
Q 2056 2741 1856 2470 
Q 1656 2200 1656 1722 
L 1656 0 
L 538 0 
L 538 3500 
L 1656 3500 
L 1656 2988 
Q 1909 3294 2193 3439 
Q 2478 3584 2822 3584 
Q 3428 3584 3742 3212 
Q 4056 2841 4056 2131 
z
" transform="scale(0.015625)"/>
      <path id="DejaVuSans-Bold-63" d="M 3366 3391 
L 3366 2478 
Q 3138 2634 2908 2709 
Q 2678 2784 2431 2784 
Q 1963 2784 1702 2511 
Q 1441 2238 1441 1747 
Q 1441 1256 1702 982 
Q 1963 709 2431 709 
Q 2694 709 2930 787 
Q 3166 866 3366 1019 
L 3366 103 
Q 3103 6 2833 -42 
Q 2563 -91 2291 -91 
Q 1344 -91 809 395 
Q 275 881 275 1747 
Q 275 2613 809 3098 
Q 1344 3584 2291 3584 
Q 2566 3584 2833 3536 
Q 3100 3488 3366 3391 
z
" transform="scale(0.015625)"/>
      <path id="DejaVuSans-Bold-46" d="M 588 4666 
L 3834 4666 
L 3834 3756 
L 1791 3756 
L 1791 2888 
L 3713 2888 
L 3713 1978 
L 1791 1978 
L 1791 0 
L 588 0 
L 588 4666 
z
" transform="scale(0.015625)"/>
      <path id="DejaVuSans-Bold-54" d="M 31 4666 
L 4331 4666 
L 4331 3756 
L 2784 3756 
L 2784 0 
L 1581 0 
L 1581 3756 
L 31 3756 
L 31 4666 
z
" transform="scale(0.015625)"/>
      <path id="DejaVuSans-Bold-68" d="M 4056 2131 
L 4056 0 
L 2931 0 
L 2931 347 
L 2931 1625 
Q 2931 2084 2911 2256 
Q 2891 2428 2841 2509 
Q 2775 2619 2662 2680 
Q 2550 2741 2406 2741 
Q 2056 2741 1856 2470 
Q 1656 2200 1656 1722 
L 1656 0 
L 538 0 
L 538 4863 
L 1656 4863 
L 1656 2988 
Q 1909 3294 2193 3439 
Q 2478 3584 2822 3584 
Q 3428 3584 3742 3212 
Q 4056 2841 4056 2131 
z
" transform="scale(0.015625)"/>
     </defs>
     <use xlink:href="#DejaVuSans-Bold-44"/>
     <use xlink:href="#DejaVuSans-Bold-69" transform="translate(83.007812 0)"/>
     <use xlink:href="#DejaVuSans-Bold-73" transform="translate(117.285156 0)"/>
     <use xlink:href="#DejaVuSans-Bold-74" transform="translate(176.806641 0)"/>
     <use xlink:href="#DejaVuSans-Bold-72" transform="translate(224.609375 0)"/>
     <use xlink:href="#DejaVuSans-Bold-69" transform="translate(273.925781 0)"/>
     <use xlink:href="#DejaVuSans-Bold-62" transform="translate(308.203125 0)"/>
     <use xlink:href="#DejaVuSans-Bold-75" transform="translate(379.785156 0)"/>
     <use xlink:href="#DejaVuSans-Bold-69" transform="translate(450.976562 0)"/>
     <use xlink:href="#DejaVuSans-Bold-e7" transform="translate(485.253906 0)"/>
     <use xlink:href="#DejaVuSans-Bold-e3" transform="translate(544.53125 0)"/>
     <use xlink:href="#DejaVuSans-Bold-6f" transform="translate(612.011719 0)"/>
     <use xlink:href="#DejaVuSans-Bold-20" transform="translate(680.712891 0)"/>
     <use xlink:href="#DejaVuSans-Bold-64" transform="translate(715.527344 0)"/>
     <use xlink:href="#DejaVuSans-Bold-65" transform="translate(787.109375 0)"/>
     <use xlink:href="#DejaVuSans-Bold-20" transform="translate(854.931641 0)"/>
     <use xlink:href="#DejaVuSans-Bold-44" transform="translate(889.746094 0)"/>
     <use xlink:href="#DejaVuSans-Bold-61" transform="translate(972.753906 0)"/>
     <use xlink:href="#DejaVuSans-Bold-79" transform="translate(1037.109375 0)"/>
     <use xlink:href="#DejaVuSans-Bold-73" transform="translate(1102.294922 0)"/>
     <use xlink:href="#DejaVuSans-Bold-20" transform="translate(1161.816406 0)"/>
     <use xlink:href="#DejaVuSans-Bold-53" transform="translate(1196.630859 0)"/>
     <use xlink:href="#DejaVuSans-Bold-69" transform="translate(1268.652344 0)"/>
     <use xlink:href="#DejaVuSans-Bold-6e" transform="translate(1302.929688 0)"/>
     <use xlink:href="#DejaVuSans-Bold-63" transform="translate(1374.121094 0)"/>
     <use xlink:href="#DejaVuSans-Bold-65" transform="translate(1433.398438 0)"/>
     <use xlink:href="#DejaVuSans-Bold-20" transform="translate(1501.220703 0)"/>
     <use xlink:href="#DejaVuSans-Bold-46" transform="translate(1536.035156 0)"/>
     <use xlink:href="#DejaVuSans-Bold-69" transform="translate(1604.345703 0)"/>
     <use xlink:href="#DejaVuSans-Bold-72" transform="translate(1638.623047 0)"/>
     <use xlink:href="#DejaVuSans-Bold-73" transform="translate(1687.939453 0)"/>
     <use xlink:href="#DejaVuSans-Bold-74" transform="translate(1747.460938 0)"/>
     <use xlink:href="#DejaVuSans-Bold-20" transform="translate(1795.263672 0)"/>
     <use xlink:href="#DejaVuSans-Bold-54" transform="translate(1830.078125 0)"/>
     <use xlink:href="#DejaVuSans-Bold-6f" transform="translate(1885.041016 0)"/>
     <use xlink:href="#DejaVuSans-Bold-75" transform="translate(1953.742188 0)"/>
     <use xlink:href="#DejaVuSans-Bold-63" transform="translate(2024.933594 0)"/>
     <use xlink:href="#DejaVuSans-Bold-68" transform="translate(2084.210938 0)"/>
    </g>
   </g>
   <g id="legend_1">
    <g id="patch_86">
     <path d="M 707.15 84.4725 
L 838.7825 84.4725 
Q 841.1825 84.4725 841.1825 82.0725 
L 841.1825 48.045 
Q 841.1825 45.645 838.7825 45.645 
L 707.15 45.645 
Q 704.75 45.645 704.75 48.045 
L 704.75 82.0725 
Q 704.75 84.4725 707.15 84.4725 
z
" style="fill: #ffffff; opacity: 0.8; stroke: #cccccc; stroke-linejoin: miter"/>
    </g>
    <g id="patch_87">
     <path d="M 709.55 59.563125 
L 733.55 59.563125 
L 733.55 51.163125 
L 709.55 51.163125 
z
" style="fill: #adb5bd; opacity: 0.6"/>
    </g>
    <g id="text_17">
     <!-- Não Convertido -->
     <g transform="translate(743.15 59.563125) scale(0.12 -0.12)">
      <use xlink:href="#DejaVuSans-4e"/>
      <use xlink:href="#DejaVuSans-e3" transform="translate(74.804688 0)"/>
      <use xlink:href="#DejaVuSans-6f" transform="translate(136.083984 0)"/>
      <use xlink:href="#DejaVuSans-20" transform="translate(197.265625 0)"/>
      <use xlink:href="#DejaVuSans-43" transform="translate(229.052734 0)"/>
      <use xlink:href="#DejaVuSans-6f" transform="translate(298.876953 0)"/>
      <use xlink:href="#DejaVuSans-6e" transform="translate(360.058594 0)"/>
      <use xlink:href="#DejaVuSans-76" transform="translate(423.4375 0)"/>
      <use xlink:href="#DejaVuSans-65" transform="translate(482.617188 0)"/>
      <use xlink:href="#DejaVuSans-72" transform="translate(544.140625 0)"/>
      <use xlink:href="#DejaVuSans-74" transform="translate(585.253906 0)"/>
      <use xlink:href="#DejaVuSans-69" transform="translate(624.462891 0)"/>
      <use xlink:href="#DejaVuSans-64" transform="translate(652.246094 0)"/>
      <use xlink:href="#DejaVuSans-6f" transform="translate(715.722656 0)"/>
     </g>
    </g>
    <g id="patch_88">
     <path d="M 709.55 77.176875 
L 733.55 77.176875 
L 733.55 68.776875 
L 709.55 68.776875 
z
" style="fill: #2e4a6b; opacity: 0.6"/>
    </g>
    <g id="text_18">
     <!-- Convertido -->
     <g transform="translate(743.15 77.176875) scale(0.12 -0.12)">
      <use xlink:href="#DejaVuSans-43"/>
      <use xlink:href="#DejaVuSans-6f" transform="translate(69.824219 0)"/>
      <use xlink:href="#DejaVuSans-6e" transform="translate(131.005859 0)"/>
      <use xlink:href="#DejaVuSans-76" transform="translate(194.384766 0)"/>
      <use xlink:href="#DejaVuSans-65" transform="translate(253.564453 0)"/>
      <use xlink:href="#DejaVuSans-72" transform="translate(315.087891 0)"/>
      <use xlink:href="#DejaVuSans-74" transform="translate(356.201172 0)"/>
      <use xlink:href="#DejaVuSans-69" transform="translate(395.410156 0)"/>
      <use xlink:href="#DejaVuSans-64" transform="translate(423.193359 0)"/>
      <use xlink:href="#DejaVuSans-6f" transform="translate(486.669922 0)"/>
     </g>
    </g>
   </g>
  </g>
 </g>
 <defs>
  <clipPath id="p5193211919">
   <rect x="66.3775" y="39.645" width="780.805" height="478.88"/>
  </clipPath>
 </defs>
</svg>
