<?xml version="1.0" encoding="utf-8" standalone="no"?>
<!DOCTYPE svg PUBLIC "-//W3C//DTD SVG 1.1//EN"
  "http://www.w3.org/Graphics/SVG/1.1/DTD/svg11.dtd">
<svg xmlns:xlink="http://www.w3.org/1999/xlink" width="854.481875pt" height="565.7575pt" viewBox="0 0 854.481875 565.7575" xmlns="http://www.w3.org/2000/svg" version="1.1">
 <metadata>
  <rdf:RDF xmlns:dc="http://purl.org/dc/elements/1.1/" xmlns:cc="http://creativecommons.org/ns#" xmlns:rdf="http://www.w3.org/1999/02/22-rdf-syntax-ns#">
   <cc:Work>
    <dc:type rdf:resource="http://purl.org/dc/dcmitype/StillImage"/>
    <dc:date>2025-10-15T13:18:50.524287</dc:date>
    <dc:format>image/svg+xml</dc:format>
    <dc:creator>
     <cc:Agent>
      <dc:title>Matplotlib v3.10.3, https://matplotlib.org/</dc:title>
     </cc:Agent>
    </dc:creator>
   </cc:Work>
  </rdf:RDF>
 </metadata>
 <defs>
  <style type="text/css">*{stroke-linejoin: round; stroke-linecap: butt}</style>
 </defs>
 <g id="figure_1">
  <g id="patch_1">
   <path d="M 0 565.7575 
L 854.481875 565.7575 
L 854.481875 0 
L 0 0 
z
" style="fill: #ffffff"/>
  </g>
  <g id="axes_1">
   <g id="patch_2">
    <path d="M 44.111875 518.33 
L 847.281875 518.33 
L 847.281875 39.45 
L 44.111875 39.45 
z
" style="fill: #ffffff"/>
   </g>
   <g id="patch_3">
    <path d="M 80.619602 518.33 
L 98.873466 518.33 
L 98.873466 62.25381 
L 80.619602 62.25381 
z
" clip-path="url(#pdacbfd8166)" style="fill: #adb5bd; opacity: 0.6"/>
   </g>
   <g id="patch_4">
    <path d="M 98.873466 518.33 
L 117.12733 518.33 
L 117.12733 518.33 
L 98.873466 518.33 
z
" clip-path="url(#pdacbfd8166)" style="fill: #adb5bd; opacity: 0.6"/>
   </g>
   <g id="patch_5">
    <path d="M 117.12733 518.33 
L 135.381193 518.33 
L 135.381193 518.33 
L 117.12733 518.33 
z
" clip-path="url(#pdacbfd8166)" style="fill: #adb5bd; opacity: 0.6"/>
   </g>
   <g id="patch_6">
    <path d="M 135.381193 518.33 
L 153.635057 518.33 
L 153.635057 518.33 
L 135.381193 518.33 
z
" clip-path="url(#pdacbfd8166)" style="fill: #adb5bd; opacity: 0.6"/>
   </g>
   <g id="patch_7">
    <path d="M 153.635057 518.33 
L 171.88892 518.33 
L 171.88892 518.33 
L 153.635057 518.33 
z
" clip-path="url(#pdacbfd8166)" style="fill: #adb5bd; opacity: 0.6"/>
   </g>
   <g id="patch_8">
    <path d="M 171.88892 518.33 
L 190.142784 518.33 
L 190.142784 518.33 
L 171.88892 518.33 
z
" clip-path="url(#pdacbfd8166)" style="fill: #adb5bd; opacity: 0.6"/>
   </g>
   <g id="patch_9">
    <path d="M 190.142784 518.33 
L 208.396648 518.33 
L 208.396648 518.33 
L 190.142784 518.33 
z
" clip-path="url(#pdacbfd8166)" style="fill: #adb5bd; opacity: 0.6"/>
   </g>
   <g id="patch_10">
    <path d="M 208.396648 518.33 
L 226.650511 518.33 
L 226.650511 518.33 
L 208.396648 518.33 
z
" clip-path="url(#pdacbfd8166)" style="fill: #adb5bd; opacity: 0.6"/>
   </g>
   <g id="patch_11">
    <path d="M 226.650511 518.33 
L 244.904375 518.33 
L 244.904375 518.33 
L 226.650511 518.33 
z
" clip-path="url(#pdacbfd8166)" style="fill: #adb5bd; opacity: 0.6"/>
   </g>
   <g id="patch_12">
    <path d="M 244.904375 518.33 
L 263.158239 518.33 
L 263.158239 518.33 
L 244.904375 518.33 
z
" clip-path="url(#pdacbfd8166)" style="fill: #adb5bd; opacity: 0.6"/>
   </g>
   <g id="patch_13">
    <path d="M 263.158239 518.33 
L 281.412102 518.33 
L 281.412102 518.33 
L 263.158239 518.33 
z
" clip-path="url(#pdacbfd8166)" style="fill: #adb5bd; opacity: 0.6"/>
   </g>
   <g id="patch_14">
    <path d="M 281.412102 518.33 
L 299.665966 518.33 
L 299.665966 518.33 
L 281.412102 518.33 
z
" clip-path="url(#pdacbfd8166)" style="fill: #adb5bd; opacity: 0.6"/>
   </g>
   <g id="patch_15">
    <path d="M 299.665966 518.33 
L 317.91983 518.33 
L 317.91983 518.33 
L 299.665966 518.33 
z
" clip-path="url(#pdacbfd8166)" style="fill: #adb5bd; opacity: 0.6"/>
   </g>
   <g id="patch_16">
    <path d="M 317.91983 518.33 
L 336.173693 518.33 
L 336.173693 230.567642 
L 317.91983 230.567642 
z
" clip-path="url(#pdacbfd8166)" style="fill: #adb5bd; opacity: 0.6"/>
   </g>
   <g id="patch_17">
    <path d="M 336.173693 518.33 
L 354.427557 518.33 
L 354.427557 518.33 
L 336.173693 518.33 
z
" clip-path="url(#pdacbfd8166)" style="fill: #adb5bd; opacity: 0.6"/>
   </g>
   <g id="patch_18">
    <path d="M 354.427557 518.33 
L 372.68142 518.33 
L 372.68142 518.33 
L 354.427557 518.33 
z
" clip-path="url(#pdacbfd8166)" style="fill: #adb5bd; opacity: 0.6"/>
   </g>
   <g id="patch_19">
    <path d="M 372.68142 518.33 
L 390.935284 518.33 
L 390.935284 518.33 
L 372.68142 518.33 
z
" clip-path="url(#pdacbfd8166)" style="fill: #adb5bd; opacity: 0.6"/>
   </g>
   <g id="patch_20">
    <path d="M 390.935284 518.33 
L 409.189148 518.33 
L 409.189148 518.33 
L 390.935284 518.33 
z
" clip-path="url(#pdacbfd8166)" style="fill: #adb5bd; opacity: 0.6"/>
   </g>
   <g id="patch_21">
    <path d="M 409.189148 518.33 
L 427.443011 518.33 
L 427.443011 518.33 
L 409.189148 518.33 
z
" clip-path="url(#pdacbfd8166)" style="fill: #adb5bd; opacity: 0.6"/>
   </g>
   <g id="patch_22">
    <path d="M 427.443011 518.33 
L 445.696875 518.33 
L 445.696875 518.33 
L 427.443011 518.33 
z
" clip-path="url(#pdacbfd8166)" style="fill: #adb5bd; opacity: 0.6"/>
   </g>
   <g id="patch_23">
    <path d="M 445.696875 518.33 
L 463.950739 518.33 
L 463.950739 518.33 
L 445.696875 518.33 
z
" clip-path="url(#pdacbfd8166)" style="fill: #adb5bd; opacity: 0.6"/>
   </g>
   <g id="patch_24">
    <path d="M 463.950739 518.33 
L 482.204602 518.33 
L 482.204602 518.33 
L 463.950739 518.33 
z
" clip-path="url(#pdacbfd8166)" style="fill: #adb5bd; opacity: 0.6"/>
   </g>
   <g id="patch_25">
    <path d="M 482.204602 518.33 
L 500.458466 518.33 
L 500.458466 518.33 
L 482.204602 518.33 
z
" clip-path="url(#pdacbfd8166)" style="fill: #adb5bd; opacity: 0.6"/>
   </g>
   <g id="patch_26">
    <path d="M 500.458466 518.33 
L 518.71233 518.33 
L 518.71233 518.33 
L 500.458466 518.33 
z
" clip-path="url(#pdacbfd8166)" style="fill: #adb5bd; opacity: 0.6"/>
   </g>
   <g id="patch_27">
    <path d="M 518.71233 518.33 
L 536.966193 518.33 
L 536.966193 518.33 
L 518.71233 518.33 
z
" clip-path="url(#pdacbfd8166)" style="fill: #adb5bd; opacity: 0.6"/>
   </g>
   <g id="patch_28">
    <path d="M 536.966193 518.33 
L 555.220057 518.33 
L 555.220057 518.33 
L 536.966193 518.33 
z
" clip-path="url(#pdacbfd8166)" style="fill: #adb5bd; opacity: 0.6"/>
   </g>
   <g id="patch_29">
    <path d="M 555.220057 518.33 
L 573.47392 518.33 
L 573.47392 420.599388 
L 555.220057 420.599388 
z
" clip-path="url(#pdacbfd8166)" style="fill: #adb5bd; opacity: 0.6"/>
   </g>
   <g id="patch_30">
    <path d="M 573.47392 518.33 
L 591.727784 518.33 
L 591.727784 518.33 
L 573.47392 518.33 
z
" clip-path="url(#pdacbfd8166)" style="fill: #adb5bd; opacity: 0.6"/>
   </g>
   <g id="patch_31">
    <path d="M 591.727784 518.33 
L 609.981648 518.33 
L 609.981648 518.33 
L 591.727784 518.33 
z
" clip-path="url(#pdacbfd8166)" style="fill: #adb5bd; opacity: 0.6"/>
   </g>
   <g id="patch_32">
    <path d="M 609.981648 518.33 
L 628.235511 518.33 
L 628.235511 518.33 
L 609.981648 518.33 
z
" clip-path="url(#pdacbfd8166)" style="fill: #adb5bd; opacity: 0.6"/>
   </g>
   <g id="patch_33">
    <path d="M 628.235511 518.33 
L 646.489375 518.33 
L 646.489375 518.33 
L 628.235511 518.33 
z
" clip-path="url(#pdacbfd8166)" style="fill: #adb5bd; opacity: 0.6"/>
   </g>
   <g id="patch_34">
    <path d="M 646.489375 518.33 
L 664.743239 518.33 
L 664.743239 518.33 
L 646.489375 518.33 
z
" clip-path="url(#pdacbfd8166)" style="fill: #adb5bd; opacity: 0.6"/>
   </g>
   <g id="patch_35">
    <path d="M 664.743239 518.33 
L 682.997102 518.33 
L 682.997102 518.33 
L 664.743239 518.33 
z
" clip-path="url(#pdacbfd8166)" style="fill: #adb5bd; opacity: 0.6"/>
   </g>
   <g id="patch_36">
    <path d="M 682.997102 518.33 
L 701.250966 518.33 
L 701.250966 518.33 
L 682.997102 518.33 
z
" clip-path="url(#pdacbfd8166)" style="fill: #adb5bd; opacity: 0.6"/>
   </g>
   <g id="patch_37">
    <path d="M 701.250966 518.33 
L 719.50483 518.33 
L 719.50483 518.33 
L 701.250966 518.33 
z
" clip-path="url(#pdacbfd8166)" style="fill: #adb5bd; opacity: 0.6"/>
   </g>
   <g id="patch_38">
    <path d="M 719.50483 518.33 
L 737.758693 518.33 
L 737.758693 518.33 
L 719.50483 518.33 
z
" clip-path="url(#pdacbfd8166)" style="fill: #adb5bd; opacity: 0.6"/>
   </g>
   <g id="patch_39">
    <path d="M 737.758693 518.33 
L 756.012557 518.33 
L 756.012557 518.33 
L 737.758693 518.33 
z
" clip-path="url(#pdacbfd8166)" style="fill: #adb5bd; opacity: 0.6"/>
   </g>
   <g id="patch_40">
    <path d="M 756.012557 518.33 
L 774.26642 518.33 
L 774.26642 518.33 
L 756.012557 518.33 
z
" clip-path="url(#pdacbfd8166)" style="fill: #adb5bd; opacity: 0.6"/>
   </g>
   <g id="patch_41">
    <path d="M 774.26642 518.33 
L 792.520284 518.33 
L 792.520284 518.33 
L 774.26642 518.33 
z
" clip-path="url(#pdacbfd8166)" style="fill: #adb5bd; opacity: 0.6"/>
   </g>
   <g id="patch_42">
    <path d="M 792.520284 518.33 
L 810.774148 518.33 
L 810.774148 512.900522 
L 792.520284 512.900522 
z
" clip-path="url(#pdacbfd8166)" style="fill: #adb5bd; opacity: 0.6"/>
   </g>
   <g id="patch_43">
    <path d="M 80.619602 518.33 
L 98.873466 518.33 
L 98.873466 136.004225 
L 80.619602 136.004225 
z
" clip-path="url(#pdacbfd8166)" style="fill: #2e4a6b; opacity: 0.6"/>
   </g>
   <g id="patch_44">
    <path d="M 98.873466 518.33 
L 117.12733 518.33 
L 117.12733 518.33 
L 98.873466 518.33 
z
" clip-path="url(#pdacbfd8166)" style="fill: #2e4a6b; opacity: 0.6"/>
   </g>
   <g id="patch_45">
    <path d="M 117.12733 518.33 
L 135.381193 518.33 
L 135.381193 518.33 
L 117.12733 518.33 
z
" clip-path="url(#pdacbfd8166)" style="fill: #2e4a6b; opacity: 0.6"/>
   </g>
   <g id="patch_46">
    <path d="M 135.381193 518.33 
L 153.635057 518.33 
L 153.635057 518.33 
L 135.381193 518.33 
z
" clip-path="url(#pdacbfd8166)" style="fill: #2e4a6b; opacity: 0.6"/>
   </g>
   <g id="patch_47">
    <path d="M 153.635057 518.33 
L 171.88892 518.33 
L 171.88892 518.33 
L 153.635057 518.33 
z
" clip-path="url(#pdacbfd8166)" style="fill: #2e4a6b; opacity: 0.6"/>
   </g>
   <g id="patch_48">
    <path d="M 171.88892 518.33 
L 190.142784 518.33 
L 190.142784 518.33 
L 171.88892 518.33 
z
" clip-path="url(#pdacbfd8166)" style="fill: #2e4a6b; opacity: 0.6"/>
   </g>
   <g id="patch_49">
    <path d="M 190.142784 518.33 
L 208.396648 518.33 
L 208.396648 518.33 
L 190.142784 518.33 
z
" clip-path="url(#pdacbfd8166)" style="fill: #2e4a6b; opacity: 0.6"/>
   </g>
   <g id="patch_50">
    <path d="M 208.396648 518.33 
L 226.650511 518.33 
L 226.650511 518.33 
L 208.396648 518.33 
z
" clip-path="url(#pdacbfd8166)" style="fill: #2e4a6b; opacity: 0.6"/>
   </g>
   <g id="patch_51">
    <path d="M 226.650511 518.33 
L 244.904375 518.33 
L 244.904375 518.33 
L 226.650511 518.33 
z
" clip-path="url(#pdacbfd8166)" style="fill: #2e4a6b; opacity: 0.6"/>
   </g>
   <g id="patch_52">
    <path d="M 244.904375 518.33 
L 263.158239 518.33 
L 263.158239 518.33 
L 244.904375 518.33 
z
" clip-path="url(#pdacbfd8166)" style="fill: #2e4a6b; opacity: 0.6"/>
   </g>
   <g id="patch_53">
    <path d="M 263.158239 518.33 
L 281.412102 518.33 
L 281.412102 518.33 
L 263.158239 518.33 
z
" clip-path="url(#pdacbfd8166)" style="fill: #2e4a6b; opacity: 0.6"/>
   </g>
   <g id="patch_54">
    <path d="M 281.412102 518.33 
L 299.665966 518.33 
L 299.665966 518.33 
L 281.412102 518.33 
z
" clip-path="url(#pdacbfd8166)" style="fill: #2e4a6b; opacity: 0.6"/>
   </g>
   <g id="patch_55">
    <path d="M 299.665966 518.33 
L 317.91983 518.33 
L 317.91983 518.33 
L 299.665966 518.33 
z
" clip-path="url(#pdacbfd8166)" style="fill: #2e4a6b; opacity: 0.6"/>
   </g>
   <g id="patch_56">
    <path d="M 317.91983 518.33 
L 336.173693 518.33 
L 336.173693 153.65003 
L 317.91983 153.65003 
z
" clip-path="url(#pdacbfd8166)" style="fill: #2e4a6b; opacity: 0.6"/>
   </g>
   <g id="patch_57">
    <path d="M 336.173693 518.33 
L 354.427557 518.33 
L 354.427557 518.33 
L 336.173693 518.33 
z
" clip-path="url(#pdacbfd8166)" style="fill: #2e4a6b; opacity: 0.6"/>
   </g>
   <g id="patch_58">
    <path d="M 354.427557 518.33 
L 372.68142 518.33 
L 372.68142 518.33 
L 354.427557 518.33 
z
" clip-path="url(#pdacbfd8166)" style="fill: #2e4a6b; opacity: 0.6"/>
   </g>
   <g id="patch_59">
    <path d="M 372.68142 518.33 
L 390.935284 518.33 
L 390.935284 518.33 
L 372.68142 518.33 
z
" clip-path="url(#pdacbfd8166)" style="fill: #2e4a6b; opacity: 0.6"/>
   </g>
   <g id="patch_60">
    <path d="M 390.935284 518.33 
L 409.189148 518.33 
L 409.189148 518.33 
L 390.935284 518.33 
z
" clip-path="url(#pdacbfd8166)" style="fill: #2e4a6b; opacity: 0.6"/>
   </g>
   <g id="patch_61">
    <path d="M 409.189148 518.33 
L 427.443011 518.33 
L 427.443011 518.33 
L 409.189148 518.33 
z
" clip-path="url(#pdacbfd8166)" style="fill: #2e4a6b; opacity: 0.6"/>
   </g>
   <g id="patch_62">
    <path d="M 427.443011 518.33 
L 445.696875 518.33 
L 445.696875 518.33 
L 427.443011 518.33 
z
" clip-path="url(#pdacbfd8166)" style="fill: #2e4a6b; opacity: 0.6"/>
   </g>
   <g id="patch_63">
    <path d="M 445.696875 518.33 
L 463.950739 518.33 
L 463.950739 518.33 
L 445.696875 518.33 
z
" clip-path="url(#pdacbfd8166)" style="fill: #2e4a6b; opacity: 0.6"/>
   </g>
   <g id="patch_64">
    <path d="M 463.950739 518.33 
L 482.204602 518.33 
L 482.204602 518.33 
L 463.950739 518.33 
z
" clip-path="url(#pdacbfd8166)" style="fill: #2e4a6b; opacity: 0.6"/>
   </g>
   <g id="patch_65">
    <path d="M 482.204602 518.33 
L 500.458466 518.33 
L 500.458466 518.33 
L 482.204602 518.33 
z
" clip-path="url(#pdacbfd8166)" style="fill: #2e4a6b; opacity: 0.6"/>
   </g>
   <g id="patch_66">
    <path d="M 500.458466 518.33 
L 518.71233 518.33 
L 518.71233 518.33 
L 500.458466 518.33 
z
" clip-path="url(#pdacbfd8166)" style="fill: #2e4a6b; opacity: 0.6"/>
   </g>
   <g id="patch_67">
    <path d="M 518.71233 518.33 
L 536.966193 518.33 
L 536.966193 518.33 
L 518.71233 518.33 
z
" clip-path="url(#pdacbfd8166)" style="fill: #2e4a6b; opacity: 0.6"/>
   </g>
   <g id="patch_68">
    <path d="M 536.966193 518.33 
L 555.220057 518.33 
L 555.220057 518.33 
L 536.966193 518.33 
z
" clip-path="url(#pdacbfd8166)" style="fill: #2e4a6b; opacity: 0.6"/>
   </g>
   <g id="patch_69">
    <path d="M 555.220057 518.33 
L 573.47392 518.33 
L 573.47392 453.628715 
L 555.220057 453.628715 
z
" clip-path="url(#pdacbfd8166)" style="fill: #2e4a6b; opacity: 0.6"/>
   </g>
   <g id="patch_70">
    <path d="M 573.47392 518.33 
L 591.727784 518.33 
L 591.727784 518.33 
L 573.47392 518.33 
z
" clip-path="url(#pdacbfd8166)" style="fill: #2e4a6b; opacity: 0.6"/>
   </g>
   <g id="patch_71">
    <path d="M 591.727784 518.33 
L 609.981648 518.33 
L 609.981648 518.33 
L 591.727784 518.33 
z
" clip-path="url(#pdacbfd8166)" style="fill: #2e4a6b; opacity: 0.6"/>
   </g>
   <g id="patch_72">
    <path d="M 609.981648 518.33 
L 628.235511 518.33 
L 628.235511 518.33 
L 609.981648 518.33 
z
" clip-path="url(#pdacbfd8166)" style="fill: #2e4a6b; opacity: 0.6"/>
   </g>
   <g id="patch_73">
    <path d="M 628.235511 518.33 
L 646.489375 518.33 
L 646.489375 518.33 
L 628.235511 518.33 
z
" clip-path="url(#pdacbfd8166)" style="fill: #2e4a6b; opacity: 0.6"/>
   </g>
   <g id="patch_74">
    <path d="M 646.489375 518.33 
L 664.743239 518.33 
L 664.743239 518.33 
L 646.489375 518.33 
z
" clip-path="url(#pdacbfd8166)" style="fill: #2e4a6b; opacity: 0.6"/>
   </g>
   <g id="patch_75">
    <path d="M 664.743239 518.33 
L 682.997102 518.33 
L 682.997102 518.33 
L 664.743239 518.33 
z
" clip-path="url(#pdacbfd8166)" style="fill: #2e4a6b; opacity: 0.6"/>
   </g>
   <g id="patch_76">
    <path d="M 682.997102 518.33 
L 701.250966 518.33 
L 701.250966 518.33 
L 682.997102 518.33 
z
" clip-path="url(#pdacbfd8166)" style="fill: #2e4a6b; opacity: 0.6"/>
   </g>
   <g id="patch_77">
    <path d="M 701.250966 518.33 
L 719.50483 518.33 
L 719.50483 518.33 
L 701.250966 518.33 
z
" clip-path="url(#pdacbfd8166)" style="fill: #2e4a6b; opacity: 0.6"/>
   </g>
   <g id="patch_78">
    <path d="M 719.50483 518.33 
L 737.758693 518.33 
L 737.758693 518.33 
L 719.50483 518.33 
z
" clip-path="url(#pdacbfd8166)" style="fill: #2e4a6b; opacity: 0.6"/>
   </g>
   <g id="patch_79">
    <path d="M 737.758693 518.33 
L 756.012557 518.33 
L 756.012557 518.33 
L 737.758693 518.33 
z
" clip-path="url(#pdacbfd8166)" style="fill: #2e4a6b; opacity: 0.6"/>
   </g>
   <g id="patch_80">
    <path d="M 756.012557 518.33 
L 774.26642 518.33 
L 774.26642 518.33 
L 756.012557 518.33 
z
" clip-path="url(#pdacbfd8166)" style="fill: #2e4a6b; opacity: 0.6"/>
   </g>
   <g id="patch_81">
    <path d="M 774.26642 518.33 
L 792.520284 518.33 
L 792.520284 518.33 
L 774.26642 518.33 
z
" clip-path="url(#pdacbfd8166)" style="fill: #2e4a6b; opacity: 0.6"/>
   </g>
   <g id="patch_82">
    <path d="M 792.520284 518.33 
L 810.774148 518.33 
L 810.774148 483.03839 
L 792.520284 483.03839 
z
" clip-path="url(#pdacbfd8166)" style="fill: #2e4a6b; opacity: 0.6"/>
   </g>
   <g id="matplotlib.axis_1">
    <g id="xtick_1">
     <g id="line2d_1">
      <path d="M 80.619602 518.33 
L 80.619602 39.45 
" clip-path="url(#pdacbfd8166)" style="fill: none; stroke: #e0e0e0; stroke-opacity: 0.2; stroke-width: 0.8; stroke-linecap: square"/>
     </g>
     <g id="line2d_2">
      <defs>
       <path id="m84164e9c1e" d="M 0 0 
L 0 3.5 
" style="stroke: #000000; stroke-width: 0.8"/>
      </defs>
      <g>
       <use xlink:href="#m84164e9c1e" x="80.619602" y="518.33" style="stroke: #000000; stroke-width: 0.8"/>
      </g>
     </g>
     <g id="text_1">
      <!-- 0.0 -->
      <g transform="translate(72.66804 532.928437) scale(0.1 -0.1)">
       <defs>
        <path id="DejaVuSans-30" d="M 2034 4250 
Q 1547 4250 1301 3770 
Q 1056 3291 1056 2328 
Q 1056 1369 1301 889 
Q 1547 409 2034 409 
Q 2525 409 2770 889 
Q 3016 1369 3016 2328 
Q 3016 3291 2770 3770 
Q 2525 4250 2034 4250 
z
M 2034 4750 
Q 2819 4750 3233 4129 
Q 3647 3509 3647 2328 
Q 3647 1150 3233 529 
Q 2819 -91 2034 -91 
Q 1250 -91 836 529 
Q 422 1150 422 2328 
Q 422 3509 836 4129 
Q 1250 4750 2034 4750 
z
" transform="scale(0.015625)"/>
        <path id="DejaVuSans-2e" d="M 684 794 
L 1344 794 
L 1344 0 
L 684 0 
L 684 794 
z
" transform="scale(0.015625)"/>
       </defs>
       <use xlink:href="#DejaVuSans-30"/>
       <use xlink:href="#DejaVuSans-2e" transform="translate(63.623047 0)"/>
       <use xlink:href="#DejaVuSans-30" transform="translate(95.410156 0)"/>
      </g>
     </g>
    </g>
    <g id="xtick_2">
     <g id="line2d_3">
      <path d="M 202.312027 518.33 
L 202.312027 39.45 
" clip-path="url(#pdacbfd8166)" style="fill: none; stroke: #e0e0e0; stroke-opacity: 0.2; stroke-width: 0.8; stroke-linecap: square"/>
     </g>
     <g id="line2d_4">
      <g>
       <use xlink:href="#m84164e9c1e" x="202.312027" y="518.33" style="stroke: #000000; stroke-width: 0.8"/>
      </g>
     </g>
     <g id="text_2">
      <!-- 0.5 -->
      <g transform="translate(194.360464 532.928437) scale(0.1 -0.1)">
       <defs>
        <path id="DejaVuSans-35" d="M 691 4666 
L 3169 4666 
L 3169 4134 
L 1269 4134 
L 1269 2991 
Q 1406 3038 1543 3061 
Q 1681 3084 1819 3084 
Q 2600 3084 3056 2656 
Q 3513 2228 3513 1497 
Q 3513 744 3044 326 
Q 2575 -91 1722 -91 
Q 1428 -91 1123 -41 
Q 819 9 494 109 
L 494 744 
Q 775 591 1075 516 
Q 1375 441 1709 441 
Q 2250 441 2565 725 
Q 2881 1009 2881 1497 
Q 2881 1984 2565 2268 
Q 2250 2553 1709 2553 
Q 1456 2553 1204 2497 
Q 953 2441 691 2322 
L 691 4666 
z
" transform="scale(0.015625)"/>
       </defs>
       <use xlink:href="#DejaVuSans-30"/>
       <use xlink:href="#DejaVuSans-2e" transform="translate(63.623047 0)"/>
       <use xlink:href="#DejaVuSans-35" transform="translate(95.410156 0)"/>
      </g>
     </g>
    </g>
    <g id="xtick_3">
     <g id="line2d_5">
      <path d="M 324.004451 518.33 
L 324.004451 39.45 
" clip-path="url(#pdacbfd8166)" style="fill: none; stroke: #e0e0e0; stroke-opacity: 0.2; stroke-width: 0.8; stroke-linecap: square"/>
     </g>
     <g id="line2d_6">
      <g>
       <use xlink:href="#m84164e9c1e" x="324.004451" y="518.33" style="stroke: #000000; stroke-width: 0.8"/>
      </g>
     </g>
     <g id="text_3">
      <!-- 1.0 -->
      <g transform="translate(316.052888 532.928437) scale(0.1 -0.1)">
       <defs>
        <path id="DejaVuSans-31" d="M 794 531 
L 1825 531 
L 1825 4091 
L 703 3866 
L 703 4441 
L 1819 4666 
L 2450 4666 
L 2450 531 
L 3481 531 
L 3481 0 
L 794 0 
L 794 531 
z
" transform="scale(0.015625)"/>
       </defs>
       <use xlink:href="#DejaVuSans-31"/>
       <use xlink:href="#DejaVuSans-2e" transform="translate(63.623047 0)"/>
       <use xlink:href="#DejaVuSans-30" transform="translate(95.410156 0)"/>
      </g>
     </g>
    </g>
    <g id="xtick_4">
     <g id="line2d_7">
      <path d="M 445.696875 518.33 
L 445.696875 39.45 
" clip-path="url(#pdacbfd8166)" style="fill: none; stroke: #e0e0e0; stroke-opacity: 0.2; stroke-width: 0.8; stroke-linecap: square"/>
     </g>
     <g id="line2d_8">
      <g>
       <use xlink:href="#m84164e9c1e" x="445.696875" y="518.33" style="stroke: #000000; stroke-width: 0.8"/>
      </g>
     </g>
     <g id="text_4">
      <!-- 1.5 -->
      <g transform="translate(437.745312 532.928437) scale(0.1 -0.1)">
       <use xlink:href="#DejaVuSans-31"/>
       <use xlink:href="#DejaVuSans-2e" transform="translate(63.623047 0)"/>
       <use xlink:href="#DejaVuSans-35" transform="translate(95.410156 0)"/>
      </g>
     </g>
    </g>
    <g id="xtick_5">
     <g id="line2d_9">
      <path d="M 567.389299 518.33 
L 567.389299 39.45 
" clip-path="url(#pdacbfd8166)" style="fill: none; stroke: #e0e0e0; stroke-opacity: 0.2; stroke-width: 0.8; stroke-linecap: square"/>
     </g>
     <g id="line2d_10">
      <g>
       <use xlink:href="#m84164e9c1e" x="567.389299" y="518.33" style="stroke: #000000; stroke-width: 0.8"/>
      </g>
     </g>
     <g id="text_5">
      <!-- 2.0 -->
      <g transform="translate(559.437737 532.928437) scale(0.1 -0.1)">
       <defs>
        <path id="DejaVuSans-32" d="M 1228 531 
L 3431 531 
L 3431 0 
L 469 0 
L 469 531 
Q 828 903 1448 1529 
Q 2069 2156 2228 2338 
Q 2531 2678 2651 2914 
Q 2772 3150 2772 3378 
Q 2772 3750 2511 3984 
Q 2250 4219 1831 4219 
Q 1534 4219 1204 4116 
Q 875 4013 500 3803 
L 500 4441 
Q 881 4594 1212 4672 
Q 1544 4750 1819 4750 
Q 2544 4750 2975 4387 
Q 3406 4025 3406 3419 
Q 3406 3131 3298 2873 
Q 3191 2616 2906 2266 
Q 2828 2175 2409 1742 
Q 1991 1309 1228 531 
z
" transform="scale(0.015625)"/>
       </defs>
       <use xlink:href="#DejaVuSans-32"/>
       <use xlink:href="#DejaVuSans-2e" transform="translate(63.623047 0)"/>
       <use xlink:href="#DejaVuSans-30" transform="translate(95.410156 0)"/>
      </g>
     </g>
    </g>
    <g id="xtick_6">
     <g id="line2d_11">
      <path d="M 689.081723 518.33 
L 689.081723 39.45 
" clip-path="url(#pdacbfd8166)" style="fill: none; stroke: #e0e0e0; stroke-opacity: 0.2; stroke-width: 0.8; stroke-linecap: square"/>
     </g>
     <g id="line2d_12">
      <g>
       <use xlink:href="#m84164e9c1e" x="689.081723" y="518.33" style="stroke: #000000; stroke-width: 0.8"/>
      </g>
     </g>
     <g id="text_6">
      <!-- 2.5 -->
      <g transform="translate(681.130161 532.928437) scale(0.1 -0.1)">
       <use xlink:href="#DejaVuSans-32"/>
       <use xlink:href="#DejaVuSans-2e" transform="translate(63.623047 0)"/>
       <use xlink:href="#DejaVuSans-35" transform="translate(95.410156 0)"/>
      </g>
     </g>
    </g>
    <g id="xtick_7">
     <g id="line2d_13">
      <path d="M 810.774148 518.33 
L 810.774148 39.45 
" clip-path="url(#pdacbfd8166)" style="fill: none; stroke: #e0e0e0; stroke-opacity: 0.2; stroke-width: 0.8; stroke-linecap: square"/>
     </g>
     <g id="line2d_14">
      <g>
       <use xlink:href="#m84164e9c1e" x="810.774148" y="518.33" style="stroke: #000000; stroke-width: 0.8"/>
      </g>
     </g>
     <g id="text_7">
      <!-- 3.0 -->
      <g transform="translate(802.822585 532.928437) scale(0.1 -0.1)">
       <defs>
        <path id="DejaVuSans-33" d="M 2597 2516 
Q 3050 2419 3304 2112 
Q 3559 1806 3559 1356 
Q 3559 666 3084 287 
Q 2609 -91 1734 -91 
Q 1441 -91 1130 -33 
Q 819 25 488 141 
L 488 750 
Q 750 597 1062 519 
Q 1375 441 1716 441 
Q 2309 441 2620 675 
Q 2931 909 2931 1356 
Q 2931 1769 2642 2001 
Q 2353 2234 1838 2234 
L 1294 2234 
L 1294 2753 
L 1863 2753 
Q 2328 2753 2575 2939 
Q 2822 3125 2822 3475 
Q 2822 3834 2567 4026 
Q 2313 4219 1838 4219 
Q 1578 4219 1281 4162 
Q 984 4106 628 3988 
L 628 4550 
Q 988 4650 1302 4700 
Q 1616 4750 1894 4750 
Q 2613 4750 3031 4423 
Q 3450 4097 3450 3541 
Q 3450 3153 3228 2886 
Q 3006 2619 2597 2516 
z
" transform="scale(0.015625)"/>
       </defs>
       <use xlink:href="#DejaVuSans-33"/>
       <use xlink:href="#DejaVuSans-2e" transform="translate(63.623047 0)"/>
       <use xlink:href="#DejaVuSans-30" transform="translate(95.410156 0)"/>
      </g>
     </g>
    </g>
    <g id="text_8">
     <!-- Reunioes Realizadas -->
     <g transform="translate(374.183125 555.645937) scale(0.14 -0.14)">
      <defs>
       <path id="DejaVuSans-52" d="M 2841 2188 
Q 3044 2119 3236 1894 
Q 3428 1669 3622 1275 
L 4263 0 
L 3584 0 
L 2988 1197 
Q 2756 1666 2539 1819 
Q 2322 1972 1947 1972 
L 1259 1972 
L 1259 0 
L 628 0 
L 628 4666 
L 2053 4666 
Q 2853 4666 3247 4331 
Q 3641 3997 3641 3322 
Q 3641 2881 3436 2590 
Q 3231 2300 2841 2188 
z
M 1259 4147 
L 1259 2491 
L 2053 2491 
Q 2509 2491 2742 2702 
Q 2975 2913 2975 3322 
Q 2975 3731 2742 3939 
Q 2509 4147 2053 4147 
L 1259 4147 
z
" transform="scale(0.015625)"/>
       <path id="DejaVuSans-65" d="M 3597 1894 
L 3597 1613 
L 953 1613 
Q 991 1019 1311 708 
Q 1631 397 2203 397 
Q 2534 397 2845 478 
Q 3156 559 3463 722 
L 3463 178 
Q 3153 47 2828 -22 
Q 2503 -91 2169 -91 
Q 1331 -91 842 396 
Q 353 884 353 1716 
Q 353 2575 817 3079 
Q 1281 3584 2069 3584 
Q 2775 3584 3186 3129 
Q 3597 2675 3597 1894 
z
M 3022 2063 
Q 3016 2534 2758 2815 
Q 2500 3097 2075 3097 
Q 1594 3097 1305 2825 
Q 1016 2553 972 2059 
L 3022 2063 
z
" transform="scale(0.015625)"/>
       <path id="DejaVuSans-75" d="M 544 1381 
L 544 3500 
L 1119 3500 
L 1119 1403 
Q 1119 906 1312 657 
Q 1506 409 1894 409 
Q 2359 409 2629 706 
Q 2900 1003 2900 1516 
L 2900 3500 
L 3475 3500 
L 3475 0 
L 2900 0 
L 2900 538 
Q 2691 219 2414 64 
Q 2138 -91 1772 -91 
Q 1169 -91 856 284 
Q 544 659 544 1381 
z
M 1991 3584 
L 1991 3584 
z
" transform="scale(0.015625)"/>
       <path id="DejaVuSans-6e" d="M 3513 2113 
L 3513 0 
L 2938 0 
L 2938 2094 
Q 2938 2591 2744 2837 
Q 2550 3084 2163 3084 
Q 1697 3084 1428 2787 
Q 1159 2491 1159 1978 
L 1159 0 
L 581 0 
L 581 3500 
L 1159 3500 
L 1159 2956 
Q 1366 3272 1645 3428 
Q 1925 3584 2291 3584 
Q 2894 3584 3203 3211 
Q 3513 2838 3513 2113 
z
" transform="scale(0.015625)"/>
       <path id="DejaVuSans-69" d="M 603 3500 
L 1178 3500 
L 1178 0 
L 603 0 
L 603 3500 
z
M 603 4863 
L 1178 4863 
L 1178 4134 
L 603 4134 
L 603 4863 
z
" transform="scale(0.015625)"/>
       <path id="DejaVuSans-6f" d="M 1959 3097 
Q 1497 3097 1228 2736 
Q 959 2375 959 1747 
Q 959 1119 1226 758 
Q 1494 397 1959 397 
Q 2419 397 2687 759 
Q 2956 1122 2956 1747 
Q 2956 2369 2687 2733 
Q 2419 3097 1959 3097 
z
M 1959 3584 
Q 2709 3584 3137 3096 
Q 3566 2609 3566 1747 
Q 3566 888 3137 398 
Q 2709 -91 1959 -91 
Q 1206 -91 779 398 
Q 353 888 353 1747 
Q 353 2609 779 3096 
Q 1206 3584 1959 3584 
z
" transform="scale(0.015625)"/>
       <path id="DejaVuSans-73" d="M 2834 3397 
L 2834 2853 
Q 2591 2978 2328 3040 
Q 2066 3103 1784 3103 
Q 1356 3103 1142 2972 
Q 928 2841 928 2578 
Q 928 2378 1081 2264 
Q 1234 2150 1697 2047 
L 1894 2003 
Q 2506 1872 2764 1633 
Q 3022 1394 3022 966 
Q 3022 478 2636 193 
Q 2250 -91 1575 -91 
Q 1294 -91 989 -36 
Q 684 19 347 128 
L 347 722 
Q 666 556 975 473 
Q 1284 391 1588 391 
Q 1994 391 2212 530 
Q 2431 669 2431 922 
Q 2431 1156 2273 1281 
Q 2116 1406 1581 1522 
L 1381 1569 
Q 847 1681 609 1914 
Q 372 2147 372 2553 
Q 372 3047 722 3315 
Q 1072 3584 1716 3584 
Q 2034 3584 2315 3537 
Q 2597 3491 2834 3397 
z
" transform="scale(0.015625)"/>
       <path id="DejaVuSans-20" transform="scale(0.015625)"/>
       <path id="DejaVuSans-61" d="M 2194 1759 
Q 1497 1759 1228 1600 
Q 959 1441 959 1056 
Q 959 750 1161 570 
Q 1363 391 1709 391 
Q 2188 391 2477 730 
Q 2766 1069 2766 1631 
L 2766 1759 
L 2194 1759 
z
M 3341 1997 
L 3341 0 
L 2766 0 
L 2766 531 
Q 2569 213 2275 61 
Q 1981 -91 1556 -91 
Q 1019 -91 701 211 
Q 384 513 384 1019 
Q 384 1609 779 1909 
Q 1175 2209 1959 2209 
L 2766 2209 
L 2766 2266 
Q 2766 2663 2505 2880 
Q 2244 3097 1772 3097 
Q 1472 3097 1187 3025 
Q 903 2953 641 2809 
L 641 3341 
Q 956 3463 1253 3523 
Q 1550 3584 1831 3584 
Q 2591 3584 2966 3190 
Q 3341 2797 3341 1997 
z
" transform="scale(0.015625)"/>
       <path id="DejaVuSans-6c" d="M 603 4863 
L 1178 4863 
L 1178 0 
L 603 0 
L 603 4863 
z
" transform="scale(0.015625)"/>
       <path id="DejaVuSans-7a" d="M 353 3500 
L 3084 3500 
L 3084 2975 
L 922 459 
L 3084 459 
L 3084 0 
L 275 0 
L 275 525 
L 2438 3041 
L 353 3041 
L 353 3500 
z
" transform="scale(0.015625)"/>
       <path id="DejaVuSans-64" d="M 2906 2969 
L 2906 4863 
L 3481 4863 
L 3481 0 
L 2906 0 
L 2906 525 
Q 2725 213 2448 61 
Q 2172 -91 1784 -91 
Q 1150 -91 751 415 
Q 353 922 353 1747 
Q 353 2572 751 3078 
Q 1150 3584 1784 3584 
Q 2172 3584 2448 3432 
Q 2725 3281 2906 2969 
z
M 947 1747 
Q 947 1113 1208 752 
Q 1469 391 1925 391 
Q 2381 391 2643 752 
Q 2906 1113 2906 1747 
Q 2906 2381 2643 2742 
Q 2381 3103 1925 3103 
Q 1469 3103 1208 2742 
Q 947 2381 947 1747 
z
" transform="scale(0.015625)"/>
      </defs>
      <use xlink:href="#DejaVuSans-52"/>
      <use xlink:href="#DejaVuSans-65" transform="translate(64.982422 0)"/>
      <use xlink:href="#DejaVuSans-75" transform="translate(126.505859 0)"/>
      <use xlink:href="#DejaVuSans-6e" transform="translate(189.884766 0)"/>
      <use xlink:href="#DejaVuSans-69" transform="translate(253.263672 0)"/>
      <use xlink:href="#DejaVuSans-6f" transform="translate(281.046875 0)"/>
      <use xlink:href="#DejaVuSans-65" transform="translate(342.228516 0)"/>
      <use xlink:href="#DejaVuSans-73" transform="translate(403.751953 0)"/>
      <use xlink:href="#DejaVuSans-20" transform="translate(455.851562 0)"/>
      <use xlink:href="#DejaVuSans-52" transform="translate(487.638672 0)"/>
      <use xlink:href="#DejaVuSans-65" transform="translate(552.621094 0)"/>
      <use xlink:href="#DejaVuSans-61" transform="translate(614.144531 0)"/>
      <use xlink:href="#DejaVuSans-6c" transform="translate(675.423828 0)"/>
      <use xlink:href="#DejaVuSans-69" transform="translate(703.207031 0)"/>
      <use xlink:href="#DejaVuSans-7a" transform="translate(730.990234 0)"/>
      <use xlink:href="#DejaVuSans-61" transform="translate(783.480469 0)"/>
      <use xlink:href="#DejaVuSans-64" transform="translate(844.759766 0)"/>
      <use xlink:href="#DejaVuSans-61" transform="translate(908.236328 0)"/>
      <use xlink:href="#DejaVuSans-73" transform="translate(969.515625 0)"/>
     </g>
    </g>
   </g>
   <g id="matplotlib.axis_2">
    <g id="ytick_1">
     <g id="line2d_15">
      <path d="M 44.111875 518.33 
L 847.281875 518.33 
" clip-path="url(#pdacbfd8166)" style="fill: none; stroke: #e0e0e0; stroke-opacity: 0.2; stroke-width: 0.8; stroke-linecap: square"/>
     </g>
     <g id="line2d_16">
      <defs>
       <path id="mbd2081908f" d="M 0 0 
L -3.5 0 
" style="stroke: #000000; stroke-width: 0.8"/>
      </defs>
      <g>
       <use xlink:href="#mbd2081908f" x="44.111875" y="518.33" style="stroke: #000000; stroke-width: 0.8"/>
      </g>
     </g>
     <g id="text_9">
      <!-- 0 -->
      <g transform="translate(30.749375 522.129219) scale(0.1 -0.1)">
       <use xlink:href="#DejaVuSans-30"/>
      </g>
     </g>
    </g>
    <g id="ytick_2">
     <g id="line2d_17">
      <path d="M 44.111875 454.805102 
L 847.281875 454.805102 
" clip-path="url(#pdacbfd8166)" style="fill: none; stroke: #e0e0e0; stroke-opacity: 0.2; stroke-width: 0.8; stroke-linecap: square"/>
     </g>
     <g id="line2d_18">
      <g>
       <use xlink:href="#mbd2081908f" x="44.111875" y="454.805102" style="stroke: #000000; stroke-width: 0.8"/>
      </g>
     </g>
     <g id="text_10">
      <!-- 1 -->
      <g transform="translate(30.749375 458.604321) scale(0.1 -0.1)">
       <use xlink:href="#DejaVuSans-31"/>
      </g>
     </g>
    </g>
    <g id="ytick_3">
     <g id="line2d_19">
      <path d="M 44.111875 391.280204 
L 847.281875 391.280204 
" clip-path="url(#pdacbfd8166)" style="fill: none; stroke: #e0e0e0; stroke-opacity: 0.2; stroke-width: 0.8; stroke-linecap: square"/>
     </g>
     <g id="line2d_20">
      <g>
       <use xlink:href="#mbd2081908f" x="44.111875" y="391.280204" style="stroke: #000000; stroke-width: 0.8"/>
      </g>
     </g>
     <g id="text_11">
      <!-- 2 -->
      <g transform="translate(30.749375 395.079423) scale(0.1 -0.1)">
       <use xlink:href="#DejaVuSans-32"/>
      </g>
     </g>
    </g>
    <g id="ytick_4">
     <g id="line2d_21">
      <path d="M 44.111875 327.755306 
L 847.281875 327.755306 
" clip-path="url(#pdacbfd8166)" style="fill: none; stroke: #e0e0e0; stroke-opacity: 0.2; stroke-width: 0.8; stroke-linecap: square"/>
     </g>
     <g id="line2d_22">
      <g>
       <use xlink:href="#mbd2081908f" x="44.111875" y="327.755306" style="stroke: #000000; stroke-width: 0.8"/>
      </g>
     </g>
     <g id="text_12">
      <!-- 3 -->
      <g transform="translate(30.749375 331.554525) scale(0.1 -0.1)">
       <use xlink:href="#DejaVuSans-33"/>
      </g>
     </g>
    </g>
    <g id="ytick_5">
     <g id="line2d_23">
      <path d="M 44.111875 264.230408 
L 847.281875 264.230408 
" clip-path="url(#pdacbfd8166)" style="fill: none; stroke: #e0e0e0; stroke-opacity: 0.2; stroke-width: 0.8; stroke-linecap: square"/>
     </g>
     <g id="line2d_24">
      <g>
       <use xlink:href="#mbd2081908f" x="44.111875" y="264.230408" style="stroke: #000000; stroke-width: 0.8"/>
      </g>
     </g>
     <g id="text_13">
      <!-- 4 -->
      <g transform="translate(30.749375 268.029627) scale(0.1 -0.1)">
       <defs>
        <path id="DejaVuSans-34" d="M 2419 4116 
L 825 1625 
L 2419 1625 
L 2419 4116 
z
M 2253 4666 
L 3047 4666 
L 3047 1625 
L 3713 1625 
L 3713 1100 
L 3047 1100 
L 3047 0 
L 2419 0 
L 2419 1100 
L 313 1100 
L 313 1709 
L 2253 4666 
z
" transform="scale(0.015625)"/>
       </defs>
       <use xlink:href="#DejaVuSans-34"/>
      </g>
     </g>
    </g>
    <g id="ytick_6">
     <g id="line2d_25">
      <path d="M 44.111875 200.70551 
L 847.281875 200.70551 
" clip-path="url(#pdacbfd8166)" style="fill: none; stroke: #e0e0e0; stroke-opacity: 0.2; stroke-width: 0.8; stroke-linecap: square"/>
     </g>
     <g id="line2d_26">
      <g>
       <use xlink:href="#mbd2081908f" x="44.111875" y="200.70551" style="stroke: #000000; stroke-width: 0.8"/>
      </g>
     </g>
     <g id="text_14">
      <!-- 5 -->
      <g transform="translate(30.749375 204.504729) scale(0.1 -0.1)">
       <use xlink:href="#DejaVuSans-35"/>
      </g>
     </g>
    </g>
    <g id="ytick_7">
     <g id="line2d_27">
      <path d="M 44.111875 137.180612 
L 847.281875 137.180612 
" clip-path="url(#pdacbfd8166)" style="fill: none; stroke: #e0e0e0; stroke-opacity: 0.2; stroke-width: 0.8; stroke-linecap: square"/>
     </g>
     <g id="line2d_28">
      <g>
       <use xlink:href="#mbd2081908f" x="44.111875" y="137.180612" style="stroke: #000000; stroke-width: 0.8"/>
      </g>
     </g>
     <g id="text_15">
      <!-- 6 -->
      <g transform="translate(30.749375 140.979831) scale(0.1 -0.1)">
       <defs>
        <path id="DejaVuSans-36" d="M 2113 2584 
Q 1688 2584 1439 2293 
Q 1191 2003 1191 1497 
Q 1191 994 1439 701 
Q 1688 409 2113 409 
Q 2538 409 2786 701 
Q 3034 994 3034 1497 
Q 3034 2003 2786 2293 
Q 2538 2584 2113 2584 
z
M 3366 4563 
L 3366 3988 
Q 3128 4100 2886 4159 
Q 2644 4219 2406 4219 
Q 1781 4219 1451 3797 
Q 1122 3375 1075 2522 
Q 1259 2794 1537 2939 
Q 1816 3084 2150 3084 
Q 2853 3084 3261 2657 
Q 3669 2231 3669 1497 
Q 3669 778 3244 343 
Q 2819 -91 2113 -91 
Q 1303 -91 875 529 
Q 447 1150 447 2328 
Q 447 3434 972 4092 
Q 1497 4750 2381 4750 
Q 2619 4750 2861 4703 
Q 3103 4656 3366 4563 
z
" transform="scale(0.015625)"/>
       </defs>
       <use xlink:href="#DejaVuSans-36"/>
      </g>
     </g>
    </g>
    <g id="ytick_8">
     <g id="line2d_29">
      <path d="M 44.111875 73.655714 
L 847.281875 73.655714 
" clip-path="url(#pdacbfd8166)" style="fill: none; stroke: #e0e0e0; stroke-opacity: 0.2; stroke-width: 0.8; stroke-linecap: square"/>
     </g>
     <g id="line2d_30">
      <g>
       <use xlink:href="#mbd2081908f" x="44.111875" y="73.655714" style="stroke: #000000; stroke-width: 0.8"/>
      </g>
     </g>
     <g id="text_16">
      <!-- 7 -->
      <g transform="translate(30.749375 77.454933) scale(0.1 -0.1)">
       <defs>
        <path id="DejaVuSans-37" d="M 525 4666 
L 3525 4666 
L 3525 4397 
L 1831 0 
L 1172 0 
L 2766 4134 
L 525 4134 
L 525 4666 
z
" transform="scale(0.015625)"/>
       </defs>
       <use xlink:href="#DejaVuSans-37"/>
      </g>
     </g>
    </g>
    <g id="text_17">
     <!-- Densidade -->
     <g transform="translate(17.837813 316.099375) rotate(-90) scale(0.14 -0.14)">
      <defs>
       <path id="DejaVuSans-44" d="M 1259 4147 
L 1259 519 
L 2022 519 
Q 2988 519 3436 956 
Q 3884 1394 3884 2338 
Q 3884 3275 3436 3711 
Q 2988 4147 2022 4147 
L 1259 4147 
z
M 628 4666 
L 1925 4666 
Q 3281 4666 3915 4102 
Q 4550 3538 4550 2338 
Q 4550 1131 3912 565 
Q 3275 0 1925 0 
L 628 0 
L 628 4666 
z
" transform="scale(0.015625)"/>
      </defs>
      <use xlink:href="#DejaVuSans-44"/>
      <use xlink:href="#DejaVuSans-65" transform="translate(77.001953 0)"/>
      <use xlink:href="#DejaVuSans-6e" transform="translate(138.525391 0)"/>
      <use xlink:href="#DejaVuSans-73" transform="translate(201.904297 0)"/>
      <use xlink:href="#DejaVuSans-69" transform="translate(254.003906 0)"/>
      <use xlink:href="#DejaVuSans-64" transform="translate(281.787109 0)"/>
      <use xlink:href="#DejaVuSans-61" transform="translate(345.263672 0)"/>
      <use xlink:href="#DejaVuSans-64" transform="translate(406.542969 0)"/>
      <use xlink:href="#DejaVuSans-65" transform="translate(470.019531 0)"/>
     </g>
    </g>
   </g>
   <g id="line2d_31">
    <path d="M 253.017203 518.33 
L 253.017203 39.45 
" clip-path="url(#pdacbfd8166)" style="fill: none; stroke-dasharray: 7.4,3.2; stroke-dashoffset: 0; stroke: #2e4a6b; stroke-opacity: 0.8; stroke-width: 2"/>
   </g>
   <g id="line2d_32">
    <path d="M 224.154257 518.33 
L 224.154257 39.45 
" clip-path="url(#pdacbfd8166)" style="fill: none; stroke-dasharray: 7.4,3.2; stroke-dashoffset: 0; stroke: #adb5bd; stroke-opacity: 0.8; stroke-width: 2"/>
   </g>
   <g id="patch_83">
    <path d="M 44.111875 518.33 
L 44.111875 39.45 
" style="fill: none; stroke: #000000; stroke-width: 0.8; stroke-linejoin: miter; stroke-linecap: square"/>
   </g>
   <g id="patch_84">
    <path d="M 44.111875 518.33 
L 847.281875 518.33 
" style="fill: none; stroke: #000000; stroke-width: 0.8; stroke-linejoin: miter; stroke-linecap: square"/>
   </g>
   <g id="text_18">
    <g id="patch_85">
     <path d="M 60.175275 75.291131 
L 170.3334 75.291131 
Q 173.6334 75.291131 173.6334 71.991131 
L 173.6334 49.0276 
Q 173.6334 45.7276 170.3334 45.7276 
L 60.175275 45.7276 
Q 56.875275 45.7276 56.875275 49.0276 
L 56.875275 71.991131 
Q 56.875275 75.291131 60.175275 75.291131 
z
" style="fill: #e8f4fd; opacity: 0.8; stroke: #000000; stroke-linejoin: miter"/>
    </g>
    <!-- Convertido: 0.7 -->
    <g transform="translate(60.175275 57.385881) scale(0.11 -0.11)">
     <defs>
      <path id="DejaVuSans-43" d="M 4122 4306 
L 4122 3641 
Q 3803 3938 3442 4084 
Q 3081 4231 2675 4231 
Q 1875 4231 1450 3742 
Q 1025 3253 1025 2328 
Q 1025 1406 1450 917 
Q 1875 428 2675 428 
Q 3081 428 3442 575 
Q 3803 722 4122 1019 
L 4122 359 
Q 3791 134 3420 21 
Q 3050 -91 2638 -91 
Q 1578 -91 968 557 
Q 359 1206 359 2328 
Q 359 3453 968 4101 
Q 1578 4750 2638 4750 
Q 3056 4750 3426 4639 
Q 3797 4528 4122 4306 
z
" transform="scale(0.015625)"/>
      <path id="DejaVuSans-76" d="M 191 3500 
L 800 3500 
L 1894 563 
L 2988 3500 
L 3597 3500 
L 2284 0 
L 1503 0 
L 191 3500 
z
" transform="scale(0.015625)"/>
      <path id="DejaVuSans-72" d="M 2631 2963 
Q 2534 3019 2420 3045 
Q 2306 3072 2169 3072 
Q 1681 3072 1420 2755 
Q 1159 2438 1159 1844 
L 1159 0 
L 581 0 
L 581 3500 
L 1159 3500 
L 1159 2956 
Q 1341 3275 1631 3429 
Q 1922 3584 2338 3584 
Q 2397 3584 2469 3576 
Q 2541 3569 2628 3553 
L 2631 2963 
z
" transform="scale(0.015625)"/>
      <path id="DejaVuSans-74" d="M 1172 4494 
L 1172 3500 
L 2356 3500 
L 2356 3053 
L 1172 3053 
L 1172 1153 
Q 1172 725 1289 603 
Q 1406 481 1766 481 
L 2356 481 
L 2356 0 
L 1766 0 
Q 1100 0 847 248 
Q 594 497 594 1153 
L 594 3053 
L 172 3053 
L 172 3500 
L 594 3500 
L 594 4494 
L 1172 4494 
z
" transform="scale(0.015625)"/>
      <path id="DejaVuSans-3a" d="M 750 794 
L 1409 794 
L 1409 0 
L 750 0 
L 750 794 
z
M 750 3309 
L 1409 3309 
L 1409 2516 
L 750 2516 
L 750 3309 
z
" transform="scale(0.015625)"/>
     </defs>
     <use xlink:href="#DejaVuSans-43"/>
     <use xlink:href="#DejaVuSans-6f" transform="translate(69.824219 0)"/>
     <use xlink:href="#DejaVuSans-6e" transform="translate(131.005859 0)"/>
     <use xlink:href="#DejaVuSans-76" transform="translate(194.384766 0)"/>
     <use xlink:href="#DejaVuSans-65" transform="translate(253.564453 0)"/>
     <use xlink:href="#DejaVuSans-72" transform="translate(315.087891 0)"/>
     <use xlink:href="#DejaVuSans-74" transform="translate(356.201172 0)"/>
     <use xlink:href="#DejaVuSans-69" transform="translate(395.410156 0)"/>
     <use xlink:href="#DejaVuSans-64" transform="translate(423.193359 0)"/>
     <use xlink:href="#DejaVuSans-6f" transform="translate(486.669922 0)"/>
     <use xlink:href="#DejaVuSans-3a" transform="translate(547.851562 0)"/>
     <use xlink:href="#DejaVuSans-20" transform="translate(581.542969 0)"/>
     <use xlink:href="#DejaVuSans-30" transform="translate(613.330078 0)"/>
     <use xlink:href="#DejaVuSans-2e" transform="translate(676.953125 0)"/>
     <use xlink:href="#DejaVuSans-37" transform="translate(708.740234 0)"/>
    </g>
    <!-- Não Convertido: 0.6 -->
    <g transform="translate(60.175275 69.703475) scale(0.11 -0.11)">
     <defs>
      <path id="DejaVuSans-4e" d="M 628 4666 
L 1478 4666 
L 3547 763 
L 3547 4666 
L 4159 4666 
L 4159 0 
L 3309 0 
L 1241 3903 
L 1241 0 
L 628 0 
L 628 4666 
z
" transform="scale(0.015625)"/>
      <path id="DejaVuSans-e3" d="M 2194 1759 
Q 1497 1759 1228 1600 
Q 959 1441 959 1056 
Q 959 750 1161 570 
Q 1363 391 1709 391 
Q 2188 391 2477 730 
Q 2766 1069 2766 1631 
L 2766 1759 
L 2194 1759 
z
M 3341 1997 
L 3341 0 
L 2766 0 
L 2766 531 
Q 2569 213 2275 61 
Q 1981 -91 1556 -91 
Q 1019 -91 701 211 
Q 384 513 384 1019 
Q 384 1609 779 1909 
Q 1175 2209 1959 2209 
L 2766 2209 
L 2766 2266 
Q 2766 2663 2505 2880 
Q 2244 3097 1772 3097 
Q 1472 3097 1187 3025 
Q 903 2953 641 2809 
L 641 3341 
Q 956 3463 1253 3523 
Q 1550 3584 1831 3584 
Q 2591 3584 2966 3190 
Q 3341 2797 3341 1997 
z
M 1844 4281 
L 1665 4453 
Q 1597 4516 1545 4545 
Q 1494 4575 1453 4575 
Q 1334 4575 1278 4461 
Q 1222 4347 1215 4091 
L 825 4091 
Q 831 4513 990 4742 
Q 1150 4972 1434 4972 
Q 1553 4972 1653 4928 
Q 1753 4884 1869 4781 
L 2047 4609 
Q 2115 4547 2167 4517 
Q 2219 4488 2259 4488 
Q 2378 4488 2434 4602 
Q 2490 4716 2497 4972 
L 2887 4972 
Q 2881 4550 2721 4320 
Q 2562 4091 2278 4091 
Q 2159 4091 2059 4134 
Q 1959 4178 1844 4281 
z
" transform="scale(0.015625)"/>
     </defs>
     <use xlink:href="#DejaVuSans-4e"/>
     <use xlink:href="#DejaVuSans-e3" transform="translate(74.804688 0)"/>
     <use xlink:href="#DejaVuSans-6f" transform="translate(136.083984 0)"/>
     <use xlink:href="#DejaVuSans-20" transform="translate(197.265625 0)"/>
     <use xlink:href="#DejaVuSans-43" transform="translate(229.052734 0)"/>
     <use xlink:href="#DejaVuSans-6f" transform="translate(298.876953 0)"/>
     <use xlink:href="#DejaVuSans-6e" transform="translate(360.058594 0)"/>
     <use xlink:href="#DejaVuSans-76" transform="translate(423.4375 0)"/>
     <use xlink:href="#DejaVuSans-65" transform="translate(482.617188 0)"/>
     <use xlink:href="#DejaVuSans-72" transform="translate(544.140625 0)"/>
     <use xlink:href="#DejaVuSans-74" transform="translate(585.253906 0)"/>
     <use xlink:href="#DejaVuSans-69" transform="translate(624.462891 0)"/>
     <use xlink:href="#DejaVuSans-64" transform="translate(652.246094 0)"/>
     <use xlink:href="#DejaVuSans-6f" transform="translate(715.722656 0)"/>
     <use xlink:href="#DejaVuSans-3a" transform="translate(776.904297 0)"/>
     <use xlink:href="#DejaVuSans-20" transform="translate(810.595703 0)"/>
     <use xlink:href="#DejaVuSans-30" transform="translate(842.382812 0)"/>
     <use xlink:href="#DejaVuSans-2e" transform="translate(906.005859 0)"/>
     <use xlink:href="#DejaVuSans-36" transform="translate(937.792969 0)"/>
    </g>
   </g>
   <g id="text_19">
    <!-- Distribuição de Reunioes Realizadas -->
    <g transform="translate(281.918125 19.45) scale(0.16 -0.16)">
     <defs>
      <path id="DejaVuSans-Bold-44" d="M 1791 3756 
L 1791 909 
L 2222 909 
Q 2959 909 3348 1275 
Q 3738 1641 3738 2338 
Q 3738 3031 3350 3393 
Q 2963 3756 2222 3756 
L 1791 3756 
z
M 588 4666 
L 1856 4666 
Q 2919 4666 3439 4514 
Q 3959 4363 4331 4000 
Q 4659 3684 4818 3271 
Q 4978 2859 4978 2338 
Q 4978 1809 4818 1395 
Q 4659 981 4331 666 
Q 3956 303 3431 151 
Q 2906 0 1856 0 
L 588 0 
L 588 4666 
z
" transform="scale(0.015625)"/>
      <path id="DejaVuSans-Bold-69" d="M 538 3500 
L 1656 3500 
L 1656 0 
L 538 0 
L 538 3500 
z
M 538 4863 
L 1656 4863 
L 1656 3950 
L 538 3950 
L 538 4863 
z
" transform="scale(0.015625)"/>
      <path id="DejaVuSans-Bold-73" d="M 3272 3391 
L 3272 2541 
Q 2913 2691 2578 2766 
Q 2244 2841 1947 2841 
Q 1628 2841 1473 2761 
Q 1319 2681 1319 2516 
Q 1319 2381 1436 2309 
Q 1553 2238 1856 2203 
L 2053 2175 
Q 2913 2066 3209 1816 
Q 3506 1566 3506 1031 
Q 3506 472 3093 190 
Q 2681 -91 1863 -91 
Q 1516 -91 1145 -36 
Q 775 19 384 128 
L 384 978 
Q 719 816 1070 734 
Q 1422 653 1784 653 
Q 2113 653 2278 743 
Q 2444 834 2444 1013 
Q 2444 1163 2330 1236 
Q 2216 1309 1875 1350 
L 1678 1375 
Q 931 1469 631 1722 
Q 331 1975 331 2491 
Q 331 3047 712 3315 
Q 1094 3584 1881 3584 
Q 2191 3584 2531 3537 
Q 2872 3491 3272 3391 
z
" transform="scale(0.015625)"/>
      <path id="DejaVuSans-Bold-74" d="M 1759 4494 
L 1759 3500 
L 2913 3500 
L 2913 2700 
L 1759 2700 
L 1759 1216 
Q 1759 972 1856 886 
Q 1953 800 2241 800 
L 2816 800 
L 2816 0 
L 1856 0 
Q 1194 0 917 276 
Q 641 553 641 1216 
L 641 2700 
L 84 2700 
L 84 3500 
L 641 3500 
L 641 4494 
L 1759 4494 
z
" transform="scale(0.015625)"/>
      <path id="DejaVuSans-Bold-72" d="M 3138 2547 
Q 2991 2616 2845 2648 
Q 2700 2681 2553 2681 
Q 2122 2681 1889 2404 
Q 1656 2128 1656 1613 
L 1656 0 
L 538 0 
L 538 3500 
L 1656 3500 
L 1656 2925 
Q 1872 3269 2151 3426 
Q 2431 3584 2822 3584 
Q 2878 3584 2943 3579 
Q 3009 3575 3134 3559 
L 3138 2547 
z
" transform="scale(0.015625)"/>
      <path id="DejaVuSans-Bold-62" d="M 2400 722 
Q 2759 722 2948 984 
Q 3138 1247 3138 1747 
Q 3138 2247 2948 2509 
Q 2759 2772 2400 2772 
Q 2041 2772 1848 2508 
Q 1656 2244 1656 1747 
Q 1656 1250 1848 986 
Q 2041 722 2400 722 
z
M 1656 2988 
Q 1888 3294 2169 3439 
Q 2450 3584 2816 3584 
Q 3463 3584 3878 3070 
Q 4294 2556 4294 1747 
Q 4294 938 3878 423 
Q 3463 -91 2816 -91 
Q 2450 -91 2169 54 
Q 1888 200 1656 506 
L 1656 0 
L 538 0 
L 538 4863 
L 1656 4863 
L 1656 2988 
z
" transform="scale(0.015625)"/>
      <path id="DejaVuSans-Bold-75" d="M 500 1363 
L 500 3500 
L 1625 3500 
L 1625 3150 
Q 1625 2866 1622 2436 
Q 1619 2006 1619 1863 
Q 1619 1441 1641 1255 
Q 1663 1069 1716 984 
Q 1784 875 1895 815 
Q 2006 756 2150 756 
Q 2500 756 2700 1025 
Q 2900 1294 2900 1772 
L 2900 3500 
L 4019 3500 
L 4019 0 
L 2900 0 
L 2900 506 
Q 2647 200 2364 54 
Q 2081 -91 1741 -91 
Q 1134 -91 817 281 
Q 500 653 500 1363 
z
" transform="scale(0.015625)"/>
      <path id="DejaVuSans-Bold-e7" d="M 3366 3391 
L 3366 2478 
Q 3138 2634 2908 2709 
Q 2678 2784 2431 2784 
Q 1963 2784 1702 2511 
Q 1441 2238 1441 1747 
Q 1441 1256 1702 982 
Q 1963 709 2431 709 
Q 2694 709 2930 787 
Q 3166 866 3366 1019 
L 3366 103 
Q 3103 6 2833 -42 
Q 2563 -91 2291 -91 
Q 1344 -91 809 395 
Q 275 881 275 1747 
Q 275 2613 809 3098 
Q 1344 3584 2291 3584 
Q 2566 3584 2833 3536 
Q 3100 3488 3366 3391 
z
M 2457 0 
Q 2639 -194 2724 -359 
Q 2810 -525 2810 -672 
Q 2810 -969 2618 -1111 
Q 2426 -1253 2029 -1253 
Q 1879 -1253 1719 -1233 
Q 1560 -1213 1398 -1172 
L 1395 -697 
Q 1551 -747 1680 -770 
Q 1810 -794 1914 -794 
Q 2095 -794 2196 -722 
Q 2298 -650 2298 -525 
Q 2298 -444 2231 -316 
Q 2164 -188 2023 0 
L 2457 0 
z
" transform="scale(0.015625)"/>
      <path id="DejaVuSans-Bold-e3" d="M 2106 1575 
Q 1756 1575 1579 1456 
Q 1403 1338 1403 1106 
Q 1403 894 1545 773 
Q 1688 653 1941 653 
Q 2256 653 2472 879 
Q 2688 1106 2688 1447 
L 2688 1575 
L 2106 1575 
z
M 3816 1997 
L 3816 0 
L 2688 0 
L 2688 519 
Q 2463 200 2181 54 
Q 1900 -91 1497 -91 
Q 953 -91 614 226 
Q 275 544 275 1050 
Q 275 1666 698 1953 
Q 1122 2241 2028 2241 
L 2688 2241 
L 2688 2328 
Q 2688 2594 2478 2717 
Q 2269 2841 1825 2841 
Q 1466 2841 1156 2769 
Q 847 2697 581 2553 
L 581 3406 
Q 941 3494 1303 3539 
Q 1666 3584 2028 3584 
Q 2975 3584 3395 3211 
Q 3816 2838 3816 1997 
z
M 2190 4263 
L 2018 4378 
Q 2006 4384 1987 4397 
Q 1840 4494 1762 4494 
Q 1650 4494 1590 4397 
Q 1531 4300 1531 4116 
L 1531 4091 
L 1097 4091 
Q 1097 4516 1257 4747 
Q 1418 4978 1709 4978 
Q 1822 4978 1936 4936 
Q 2050 4894 2178 4800 
L 2368 4666 
Q 2437 4619 2495 4594 
Q 2553 4569 2600 4569 
Q 2712 4569 2774 4669 
Q 2837 4769 2837 4947 
L 2837 4972 
L 3272 4972 
Q 3272 4547 3111 4315 
Q 2950 4084 2659 4084 
Q 2547 4084 2442 4121 
Q 2337 4159 2190 4263 
z
" transform="scale(0.015625)"/>
      <path id="DejaVuSans-Bold-6f" d="M 2203 2784 
Q 1831 2784 1636 2517 
Q 1441 2250 1441 1747 
Q 1441 1244 1636 976 
Q 1831 709 2203 709 
Q 2569 709 2762 976 
Q 2956 1244 2956 1747 
Q 2956 2250 2762 2517 
Q 2569 2784 2203 2784 
z
M 2203 3584 
Q 3106 3584 3614 3096 
Q 4122 2609 4122 1747 
Q 4122 884 3614 396 
Q 3106 -91 2203 -91 
Q 1297 -91 786 396 
Q 275 884 275 1747 
Q 275 2609 786 3096 
Q 1297 3584 2203 3584 
z
" transform="scale(0.015625)"/>
      <path id="DejaVuSans-Bold-20" transform="scale(0.015625)"/>
      <path id="DejaVuSans-Bold-64" d="M 2919 2988 
L 2919 4863 
L 4044 4863 
L 4044 0 
L 2919 0 
L 2919 506 
Q 2688 197 2409 53 
Q 2131 -91 1766 -91 
Q 1119 -91 703 423 
Q 288 938 288 1747 
Q 288 2556 703 3070 
Q 1119 3584 1766 3584 
Q 2128 3584 2408 3439 
Q 2688 3294 2919 2988 
z
M 2181 722 
Q 2541 722 2730 984 
Q 2919 1247 2919 1747 
Q 2919 2247 2730 2509 
Q 2541 2772 2181 2772 
Q 1825 2772 1636 2509 
Q 1447 2247 1447 1747 
Q 1447 1247 1636 984 
Q 1825 722 2181 722 
z
" transform="scale(0.015625)"/>
      <path id="DejaVuSans-Bold-65" d="M 4031 1759 
L 4031 1441 
L 1416 1441 
Q 1456 1047 1700 850 
Q 1944 653 2381 653 
Q 2734 653 3104 758 
Q 3475 863 3866 1075 
L 3866 213 
Q 3469 63 3072 -14 
Q 2675 -91 2278 -91 
Q 1328 -91 801 392 
Q 275 875 275 1747 
Q 275 2603 792 3093 
Q 1309 3584 2216 3584 
Q 3041 3584 3536 3087 
Q 4031 2591 4031 1759 
z
M 2881 2131 
Q 2881 2450 2695 2645 
Q 2509 2841 2209 2841 
Q 1884 2841 1681 2658 
Q 1478 2475 1428 2131 
L 2881 2131 
z
" transform="scale(0.015625)"/>
      <path id="DejaVuSans-Bold-52" d="M 2297 2597 
Q 2675 2597 2839 2737 
Q 3003 2878 3003 3200 
Q 3003 3519 2839 3656 
Q 2675 3794 2297 3794 
L 1791 3794 
L 1791 2597 
L 2297 2597 
z
M 1791 1766 
L 1791 0 
L 588 0 
L 588 4666 
L 2425 4666 
Q 3347 4666 3776 4356 
Q 4206 4047 4206 3378 
Q 4206 2916 3982 2619 
Q 3759 2322 3309 2181 
Q 3556 2125 3751 1926 
Q 3947 1728 4147 1325 
L 4800 0 
L 3519 0 
L 2950 1159 
Q 2778 1509 2601 1637 
Q 2425 1766 2131 1766 
L 1791 1766 
z
" transform="scale(0.015625)"/>
      <path id="DejaVuSans-Bold-6e" d="M 4056 2131 
L 4056 0 
L 2931 0 
L 2931 347 
L 2931 1631 
Q 2931 2084 2911 2256 
Q 2891 2428 2841 2509 
Q 2775 2619 2662 2680 
Q 2550 2741 2406 2741 
Q 2056 2741 1856 2470 
Q 1656 2200 1656 1722 
L 1656 0 
L 538 0 
L 538 3500 
L 1656 3500 
L 1656 2988 
Q 1909 3294 2193 3439 
Q 2478 3584 2822 3584 
Q 3428 3584 3742 3212 
Q 4056 2841 4056 2131 
z
" transform="scale(0.015625)"/>
      <path id="DejaVuSans-Bold-61" d="M 2106 1575 
Q 1756 1575 1579 1456 
Q 1403 1338 1403 1106 
Q 1403 894 1545 773 
Q 1688 653 1941 653 
Q 2256 653 2472 879 
Q 2688 1106 2688 1447 
L 2688 1575 
L 2106 1575 
z
M 3816 1997 
L 3816 0 
L 2688 0 
L 2688 519 
Q 2463 200 2181 54 
Q 1900 -91 1497 -91 
Q 953 -91 614 226 
Q 275 544 275 1050 
Q 275 1666 698 1953 
Q 1122 2241 2028 2241 
L 2688 2241 
L 2688 2328 
Q 2688 2594 2478 2717 
Q 2269 2841 1825 2841 
Q 1466 2841 1156 2769 
Q 847 2697 581 2553 
L 581 3406 
Q 941 3494 1303 3539 
Q 1666 3584 2028 3584 
Q 2975 3584 3395 3211 
Q 3816 2838 3816 1997 
z
" transform="scale(0.015625)"/>
      <path id="DejaVuSans-Bold-6c" d="M 538 4863 
L 1656 4863 
L 1656 0 
L 538 0 
L 538 4863 
z
" transform="scale(0.015625)"/>
      <path id="DejaVuSans-Bold-7a" d="M 366 3500 
L 3419 3500 
L 3419 2719 
L 1575 800 
L 3419 800 
L 3419 0 
L 288 0 
L 288 781 
L 2131 2700 
L 366 2700 
L 366 3500 
z
" transform="scale(0.015625)"/>
     </defs>
     <use xlink:href="#DejaVuSans-Bold-44"/>
     <use xlink:href="#DejaVuSans-Bold-69" transform="translate(83.007812 0)"/>
     <use xlink:href="#DejaVuSans-Bold-73" transform="translate(117.285156 0)"/>
     <use xlink:href="#DejaVuSans-Bold-74" transform="translate(176.806641 0)"/>
     <use xlink:href="#DejaVuSans-Bold-72" transform="translate(224.609375 0)"/>
     <use xlink:href="#DejaVuSans-Bold-69" transform="translate(273.925781 0)"/>
     <use xlink:href="#DejaVuSans-Bold-62" transform="translate(308.203125 0)"/>
     <use xlink:href="#DejaVuSans-Bold-75" transform="translate(379.785156 0)"/>
     <use xlink:href="#DejaVuSans-Bold-69" transform="translate(450.976562 0)"/>
     <use xlink:href="#DejaVuSans-Bold-e7" transform="translate(485.253906 0)"/>
     <use xlink:href="#DejaVuSans-Bold-e3" transform="translate(544.53125 0)"/>
     <use xlink:href="#DejaVuSans-Bold-6f" transform="translate(612.011719 0)"/>
     <use xlink:href="#DejaVuSans-Bold-20" transform="translate(680.712891 0)"/>
     <use xlink:href="#DejaVuSans-Bold-64" transform="translate(715.527344 0)"/>
     <use xlink:href="#DejaVuSans-Bold-65" transform="translate(787.109375 0)"/>
     <use xlink:href="#DejaVuSans-Bold-20" transform="translate(854.931641 0)"/>
     <use xlink:href="#DejaVuSans-Bold-52" transform="translate(889.746094 0)"/>
     <use xlink:href="#DejaVuSans-Bold-65" transform="translate(966.748047 0)"/>
     <use xlink:href="#DejaVuSans-Bold-75" transform="translate(1034.570312 0)"/>
     <use xlink:href="#DejaVuSans-Bold-6e" transform="translate(1105.761719 0)"/>
     <use xlink:href="#DejaVuSans-Bold-69" transform="translate(1176.953125 0)"/>
     <use xlink:href="#DejaVuSans-Bold-6f" transform="translate(1211.230469 0)"/>
     <use xlink:href="#DejaVuSans-Bold-65" transform="translate(1279.931641 0)"/>
     <use xlink:href="#DejaVuSans-Bold-73" transform="translate(1347.753906 0)"/>
     <use xlink:href="#DejaVuSans-Bold-20" transform="translate(1407.275391 0)"/>
     <use xlink:href="#DejaVuSans-Bold-52" transform="translate(1442.089844 0)"/>
     <use xlink:href="#DejaVuSans-Bold-65" transform="translate(1519.091797 0)"/>
     <use xlink:href="#DejaVuSans-Bold-61" transform="translate(1586.914062 0)"/>
     <use xlink:href="#DejaVuSans-Bold-6c" transform="translate(1654.394531 0)"/>
     <use xlink:href="#DejaVuSans-Bold-69" transform="translate(1688.671875 0)"/>
     <use xlink:href="#DejaVuSans-Bold-7a" transform="translate(1722.949219 0)"/>
     <use xlink:href="#DejaVuSans-Bold-61" transform="translate(1781.152344 0)"/>
     <use xlink:href="#DejaVuSans-Bold-64" transform="translate(1848.632812 0)"/>
     <use xlink:href="#DejaVuSans-Bold-61" transform="translate(1920.214844 0)"/>
     <use xlink:href="#DejaVuSans-Bold-73" transform="translate(1987.695312 0)"/>
    </g>
   </g>
   <g id="legend_1">
    <g id="patch_86">
     <path d="M 707.249375 84.2775 
L 838.881875 84.2775 
Q 841.281875 84.2775 841.281875 81.8775 
L 841.281875 47.85 
Q 841.281875 45.45 838.881875 45.45 
L 707.249375 45.45 
Q 704.849375 45.45 704.849375 47.85 
L 704.849375 81.8775 
Q 704.849375 84.2775 707.249375 84.2775 
z
" style="fill: #ffffff; opacity: 0.8; stroke: #cccccc; stroke-linejoin: miter"/>
    </g>
    <g id="patch_87">
     <path d="M 709.649375 59.368125 
L 733.649375 59.368125 
L 733.649375 50.968125 
L 709.649375 50.968125 
z
" style="fill: #adb5bd; opacity: 0.6"/>
    </g>
    <g id="text_20">
     <!-- Não Convertido -->
     <g transform="translate(743.249375 59.368125) scale(0.12 -0.12)">
      <use xlink:href="#DejaVuSans-4e"/>
      <use xlink:href="#DejaVuSans-e3" transform="translate(74.804688 0)"/>
      <use xlink:href="#DejaVuSans-6f" transform="translate(136.083984 0)"/>
      <use xlink:href="#DejaVuSans-20" transform="translate(197.265625 0)"/>
      <use xlink:href="#DejaVuSans-43" transform="translate(229.052734 0)"/>
      <use xlink:href="#DejaVuSans-6f" transform="translate(298.876953 0)"/>
      <use xlink:href="#DejaVuSans-6e" transform="translate(360.058594 0)"/>
      <use xlink:href="#DejaVuSans-76" transform="translate(423.4375 0)"/>
      <use xlink:href="#DejaVuSans-65" transform="translate(482.617188 0)"/>
      <use xlink:href="#DejaVuSans-72" transform="translate(544.140625 0)"/>
      <use xlink:href="#DejaVuSans-74" transform="translate(585.253906 0)"/>
      <use xlink:href="#DejaVuSans-69" transform="translate(624.462891 0)"/>
      <use xlink:href="#DejaVuSans-64" transform="translate(652.246094 0)"/>
      <use xlink:href="#DejaVuSans-6f" transform="translate(715.722656 0)"/>
     </g>
    </g>
    <g id="patch_88">
     <path d="M 709.649375 76.981875 
L 733.649375 76.981875 
L 733.649375 68.581875 
L 709.649375 68.581875 
z
" style="fill: #2e4a6b; opacity: 0.6"/>
    </g>
    <g id="text_21">
     <!-- Convertido -->
     <g transform="translate(743.249375 76.981875) scale(0.12 -0.12)">
      <use xlink:href="#DejaVuSans-43"/>
      <use xlink:href="#DejaVuSans-6f" transform="translate(69.824219 0)"/>
      <use xlink:href="#DejaVuSans-6e" transform="translate(131.005859 0)"/>
      <use xlink:href="#DejaVuSans-76" transform="translate(194.384766 0)"/>
      <use xlink:href="#DejaVuSans-65" transform="translate(253.564453 0)"/>
      <use xlink:href="#DejaVuSans-72" transform="translate(315.087891 0)"/>
      <use xlink:href="#DejaVuSans-74" transform="translate(356.201172 0)"/>
      <use xlink:href="#DejaVuSans-69" transform="translate(395.410156 0)"/>
      <use xlink:href="#DejaVuSans-64" transform="translate(423.193359 0)"/>
      <use xlink:href="#DejaVuSans-6f" transform="translate(486.669922 0)"/>
     </g>
    </g>
   </g>
  </g>
 </g>
 <defs>
  <clipPath id="pdacbfd8166">
   <rect x="44.111875" y="39.45" width="803.17" height="478.88"/>
  </clipPath>
 </defs>
</svg>
