<?xml version="1.0" encoding="utf-8" standalone="no"?>
<!DOCTYPE svg PUBLIC "-//W3C//DTD SVG 1.1//EN"
  "http://www.w3.org/Graphics/SVG/1.1/DTD/svg11.dtd">
<svg xmlns:xlink="http://www.w3.org/1999/xlink" width="998.625625pt" height="565.928125pt" viewBox="0 0 998.625625 565.928125" xmlns="http://www.w3.org/2000/svg" version="1.1">
 <metadata>
  <rdf:RDF xmlns:dc="http://purl.org/dc/elements/1.1/" xmlns:cc="http://creativecommons.org/ns#" xmlns:rdf="http://www.w3.org/1999/02/22-rdf-syntax-ns#">
   <cc:Work>
    <dc:type rdf:resource="http://purl.org/dc/dcmitype/StillImage"/>
    <dc:date>2025-10-15T13:23:35.812071</dc:date>
    <dc:format>image/svg+xml</dc:format>
    <dc:creator>
     <cc:Agent>
      <dc:title>Matplotlib v3.10.3, https://matplotlib.org/</dc:title>
     </cc:Agent>
    </dc:creator>
   </cc:Work>
  </rdf:RDF>
 </metadata>
 <defs>
  <style type="text/css">*{stroke-linejoin: round; stroke-linecap: butt}</style>
 </defs>
 <g id="figure_1">
  <g id="patch_1">
   <path d="M 0 565.928125 
L 998.625625 565.928125 
L 998.625625 0 
L 0 0 
z
" style="fill: #ffffff"/>
  </g>
  <g id="axes_1">
   <g id="patch_2">
    <path d="M 150.715625 518.474375 
L 991.425625 518.474375 
L 991.425625 39.645 
L 150.715625 39.645 
z
" style="fill: #ffffff"/>
   </g>
   <g id="patch_3">
    <path d="M 617.143332 496.709403 
L 277.11608 496.709403 
L 277.11608 467.197578 
L 617.143332 467.197578 
z
" clip-path="url(#p3272d04849)" style="fill: #dc3545; opacity: 0.8"/>
   </g>
   <g id="patch_4">
    <path d="M 617.143332 459.819621 
L 865.02517 459.819621 
L 865.02517 430.307795 
L 617.143332 430.307795 
z
" clip-path="url(#p3272d04849)" style="fill: #2e4a6b; opacity: 0.8"/>
   </g>
   <g id="patch_5">
    <path d="M 617.143332 422.929839 
L 425.206352 422.929839 
L 425.206352 393.418013 
L 617.143332 393.418013 
z
" clip-path="url(#p3272d04849)" style="fill: #dc3545; opacity: 0.8"/>
   </g>
   <g id="patch_6">
    <path d="M 617.143332 386.040056 
L 776.241104 386.040056 
L 776.241104 356.52823 
L 617.143332 356.52823 
z
" clip-path="url(#p3272d04849)" style="fill: #2e4a6b; opacity: 0.8"/>
   </g>
   <g id="patch_7">
    <path d="M 617.143332 349.150274 
L 476.877587 349.150274 
L 476.877587 319.638448 
L 617.143332 319.638448 
z
" clip-path="url(#p3272d04849)" style="fill: #dc3545; opacity: 0.8"/>
   </g>
   <g id="patch_8">
    <path d="M 617.143332 312.260492 
L 509.955927 312.260492 
L 509.955927 282.748666 
L 617.143332 282.748666 
z
" clip-path="url(#p3272d04849)" style="fill: #dc3545; opacity: 0.8"/>
   </g>
   <g id="patch_9">
    <path d="M 617.143332 275.370709 
L 704.418704 275.370709 
L 704.418704 245.858883 
L 617.143332 245.858883 
z
" clip-path="url(#p3272d04849)" style="fill: #2e4a6b; opacity: 0.8"/>
   </g>
   <g id="patch_10">
    <path d="M 617.143332 238.480927 
L 535.180603 238.480927 
L 535.180603 208.969101 
L 617.143332 208.969101 
z
" clip-path="url(#p3272d04849)" style="fill: #dc3545; opacity: 0.8"/>
   </g>
   <g id="patch_11">
    <path d="M 617.143332 201.591145 
L 697.286755 201.591145 
L 697.286755 172.079319 
L 617.143332 172.079319 
z
" clip-path="url(#p3272d04849)" style="fill: #2e4a6b; opacity: 0.8"/>
   </g>
   <g id="patch_12">
    <path d="M 617.143332 164.701362 
L 686.948207 164.701362 
L 686.948207 135.189536 
L 617.143332 135.189536 
z
" clip-path="url(#p3272d04849)" style="fill: #2e4a6b; opacity: 0.8"/>
   </g>
   <g id="patch_13">
    <path d="M 617.143332 127.81158 
L 668.192958 127.81158 
L 668.192958 98.299754 
L 617.143332 98.299754 
z
" clip-path="url(#p3272d04849)" style="fill: #2e4a6b; opacity: 0.8"/>
   </g>
   <g id="patch_14">
    <path d="M 617.143332 90.921797 
L 626.300994 90.921797 
L 626.300994 61.409972 
L 617.143332 61.409972 
z
" clip-path="url(#p3272d04849)" style="fill: #2e4a6b; opacity: 0.8"/>
   </g>
   <g id="matplotlib.axis_1">
    <g id="xtick_1">
     <g id="line2d_1">
      <path d="M 214.58935 518.474375 
L 214.58935 39.645 
" clip-path="url(#p3272d04849)" style="fill: none; stroke: #e0e0e0; stroke-opacity: 0.2; stroke-width: 0.8; stroke-linecap: square"/>
     </g>
     <g id="line2d_2">
      <defs>
       <path id="m07edbd2f79" d="M 0 0 
L 0 3.5 
" style="stroke: #000000; stroke-width: 0.8"/>
      </defs>
      <g>
       <use xlink:href="#m07edbd2f79" x="214.58935" y="518.474375" style="stroke: #000000; stroke-width: 0.8"/>
      </g>
     </g>
     <g id="text_1">
      <!-- −0.20 -->
      <g transform="translate(199.266693 533.072813) scale(0.1 -0.1)">
       <defs>
        <path id="DejaVuSans-2212" d="M 678 2272 
L 4684 2272 
L 4684 1741 
L 678 1741 
L 678 2272 
z
" transform="scale(0.015625)"/>
        <path id="DejaVuSans-30" d="M 2034 4250 
Q 1547 4250 1301 3770 
Q 1056 3291 1056 2328 
Q 1056 1369 1301 889 
Q 1547 409 2034 409 
Q 2525 409 2770 889 
Q 3016 1369 3016 2328 
Q 3016 3291 2770 3770 
Q 2525 4250 2034 4250 
z
M 2034 4750 
Q 2819 4750 3233 4129 
Q 3647 3509 3647 2328 
Q 3647 1150 3233 529 
Q 2819 -91 2034 -91 
Q 1250 -91 836 529 
Q 422 1150 422 2328 
Q 422 3509 836 4129 
Q 1250 4750 2034 4750 
z
" transform="scale(0.015625)"/>
        <path id="DejaVuSans-2e" d="M 684 794 
L 1344 794 
L 1344 0 
L 684 0 
L 684 794 
z
" transform="scale(0.015625)"/>
        <path id="DejaVuSans-32" d="M 1228 531 
L 3431 531 
L 3431 0 
L 469 0 
L 469 531 
Q 828 903 1448 1529 
Q 2069 2156 2228 2338 
Q 2531 2678 2651 2914 
Q 2772 3150 2772 3378 
Q 2772 3750 2511 3984 
Q 2250 4219 1831 4219 
Q 1534 4219 1204 4116 
Q 875 4013 500 3803 
L 500 4441 
Q 881 4594 1212 4672 
Q 1544 4750 1819 4750 
Q 2544 4750 2975 4387 
Q 3406 4025 3406 3419 
Q 3406 3131 3298 2873 
Q 3191 2616 2906 2266 
Q 2828 2175 2409 1742 
Q 1991 1309 1228 531 
z
" transform="scale(0.015625)"/>
       </defs>
       <use xlink:href="#DejaVuSans-2212"/>
       <use xlink:href="#DejaVuSans-30" transform="translate(83.789062 0)"/>
       <use xlink:href="#DejaVuSans-2e" transform="translate(147.412109 0)"/>
       <use xlink:href="#DejaVuSans-32" transform="translate(179.199219 0)"/>
       <use xlink:href="#DejaVuSans-30" transform="translate(242.822266 0)"/>
      </g>
     </g>
    </g>
    <g id="xtick_2">
     <g id="line2d_3">
      <path d="M 315.227845 518.474375 
L 315.227845 39.645 
" clip-path="url(#p3272d04849)" style="fill: none; stroke: #e0e0e0; stroke-opacity: 0.2; stroke-width: 0.8; stroke-linecap: square"/>
     </g>
     <g id="line2d_4">
      <g>
       <use xlink:href="#m07edbd2f79" x="315.227845" y="518.474375" style="stroke: #000000; stroke-width: 0.8"/>
      </g>
     </g>
     <g id="text_2">
      <!-- −0.15 -->
      <g transform="translate(299.905189 533.072813) scale(0.1 -0.1)">
       <defs>
        <path id="DejaVuSans-31" d="M 794 531 
L 1825 531 
L 1825 4091 
L 703 3866 
L 703 4441 
L 1819 4666 
L 2450 4666 
L 2450 531 
L 3481 531 
L 3481 0 
L 794 0 
L 794 531 
z
" transform="scale(0.015625)"/>
        <path id="DejaVuSans-35" d="M 691 4666 
L 3169 4666 
L 3169 4134 
L 1269 4134 
L 1269 2991 
Q 1406 3038 1543 3061 
Q 1681 3084 1819 3084 
Q 2600 3084 3056 2656 
Q 3513 2228 3513 1497 
Q 3513 744 3044 326 
Q 2575 -91 1722 -91 
Q 1428 -91 1123 -41 
Q 819 9 494 109 
L 494 744 
Q 775 591 1075 516 
Q 1375 441 1709 441 
Q 2250 441 2565 725 
Q 2881 1009 2881 1497 
Q 2881 1984 2565 2268 
Q 2250 2553 1709 2553 
Q 1456 2553 1204 2497 
Q 953 2441 691 2322 
L 691 4666 
z
" transform="scale(0.015625)"/>
       </defs>
       <use xlink:href="#DejaVuSans-2212"/>
       <use xlink:href="#DejaVuSans-30" transform="translate(83.789062 0)"/>
       <use xlink:href="#DejaVuSans-2e" transform="translate(147.412109 0)"/>
       <use xlink:href="#DejaVuSans-31" transform="translate(179.199219 0)"/>
       <use xlink:href="#DejaVuSans-35" transform="translate(242.822266 0)"/>
      </g>
     </g>
    </g>
    <g id="xtick_3">
     <g id="line2d_5">
      <path d="M 415.866341 518.474375 
L 415.866341 39.645 
" clip-path="url(#p3272d04849)" style="fill: none; stroke: #e0e0e0; stroke-opacity: 0.2; stroke-width: 0.8; stroke-linecap: square"/>
     </g>
     <g id="line2d_6">
      <g>
       <use xlink:href="#m07edbd2f79" x="415.866341" y="518.474375" style="stroke: #000000; stroke-width: 0.8"/>
      </g>
     </g>
     <g id="text_3">
      <!-- −0.10 -->
      <g transform="translate(400.543685 533.072813) scale(0.1 -0.1)">
       <use xlink:href="#DejaVuSans-2212"/>
       <use xlink:href="#DejaVuSans-30" transform="translate(83.789062 0)"/>
       <use xlink:href="#DejaVuSans-2e" transform="translate(147.412109 0)"/>
       <use xlink:href="#DejaVuSans-31" transform="translate(179.199219 0)"/>
       <use xlink:href="#DejaVuSans-30" transform="translate(242.822266 0)"/>
      </g>
     </g>
    </g>
    <g id="xtick_4">
     <g id="line2d_7">
      <path d="M 516.504837 518.474375 
L 516.504837 39.645 
" clip-path="url(#p3272d04849)" style="fill: none; stroke: #e0e0e0; stroke-opacity: 0.2; stroke-width: 0.8; stroke-linecap: square"/>
     </g>
     <g id="line2d_8">
      <g>
       <use xlink:href="#m07edbd2f79" x="516.504837" y="518.474375" style="stroke: #000000; stroke-width: 0.8"/>
      </g>
     </g>
     <g id="text_4">
      <!-- −0.05 -->
      <g transform="translate(501.18218 533.072813) scale(0.1 -0.1)">
       <use xlink:href="#DejaVuSans-2212"/>
       <use xlink:href="#DejaVuSans-30" transform="translate(83.789062 0)"/>
       <use xlink:href="#DejaVuSans-2e" transform="translate(147.412109 0)"/>
       <use xlink:href="#DejaVuSans-30" transform="translate(179.199219 0)"/>
       <use xlink:href="#DejaVuSans-35" transform="translate(242.822266 0)"/>
      </g>
     </g>
    </g>
    <g id="xtick_5">
     <g id="line2d_9">
      <path d="M 617.143332 518.474375 
L 617.143332 39.645 
" clip-path="url(#p3272d04849)" style="fill: none; stroke: #e0e0e0; stroke-opacity: 0.2; stroke-width: 0.8; stroke-linecap: square"/>
     </g>
     <g id="line2d_10">
      <g>
       <use xlink:href="#m07edbd2f79" x="617.143332" y="518.474375" style="stroke: #000000; stroke-width: 0.8"/>
      </g>
     </g>
     <g id="text_5">
      <!-- 0.00 -->
      <g transform="translate(606.01052 533.072813) scale(0.1 -0.1)">
       <use xlink:href="#DejaVuSans-30"/>
       <use xlink:href="#DejaVuSans-2e" transform="translate(63.623047 0)"/>
       <use xlink:href="#DejaVuSans-30" transform="translate(95.410156 0)"/>
       <use xlink:href="#DejaVuSans-30" transform="translate(159.033203 0)"/>
      </g>
     </g>
    </g>
    <g id="xtick_6">
     <g id="line2d_11">
      <path d="M 717.781828 518.474375 
L 717.781828 39.645 
" clip-path="url(#p3272d04849)" style="fill: none; stroke: #e0e0e0; stroke-opacity: 0.2; stroke-width: 0.8; stroke-linecap: square"/>
     </g>
     <g id="line2d_12">
      <g>
       <use xlink:href="#m07edbd2f79" x="717.781828" y="518.474375" style="stroke: #000000; stroke-width: 0.8"/>
      </g>
     </g>
     <g id="text_6">
      <!-- 0.05 -->
      <g transform="translate(706.649016 533.072813) scale(0.1 -0.1)">
       <use xlink:href="#DejaVuSans-30"/>
       <use xlink:href="#DejaVuSans-2e" transform="translate(63.623047 0)"/>
       <use xlink:href="#DejaVuSans-30" transform="translate(95.410156 0)"/>
       <use xlink:href="#DejaVuSans-35" transform="translate(159.033203 0)"/>
      </g>
     </g>
    </g>
    <g id="xtick_7">
     <g id="line2d_13">
      <path d="M 818.420324 518.474375 
L 818.420324 39.645 
" clip-path="url(#p3272d04849)" style="fill: none; stroke: #e0e0e0; stroke-opacity: 0.2; stroke-width: 0.8; stroke-linecap: square"/>
     </g>
     <g id="line2d_14">
      <g>
       <use xlink:href="#m07edbd2f79" x="818.420324" y="518.474375" style="stroke: #000000; stroke-width: 0.8"/>
      </g>
     </g>
     <g id="text_7">
      <!-- 0.10 -->
      <g transform="translate(807.287511 533.072813) scale(0.1 -0.1)">
       <use xlink:href="#DejaVuSans-30"/>
       <use xlink:href="#DejaVuSans-2e" transform="translate(63.623047 0)"/>
       <use xlink:href="#DejaVuSans-31" transform="translate(95.410156 0)"/>
       <use xlink:href="#DejaVuSans-30" transform="translate(159.033203 0)"/>
      </g>
     </g>
    </g>
    <g id="xtick_8">
     <g id="line2d_15">
      <path d="M 919.05882 518.474375 
L 919.05882 39.645 
" clip-path="url(#p3272d04849)" style="fill: none; stroke: #e0e0e0; stroke-opacity: 0.2; stroke-width: 0.8; stroke-linecap: square"/>
     </g>
     <g id="line2d_16">
      <g>
       <use xlink:href="#m07edbd2f79" x="919.05882" y="518.474375" style="stroke: #000000; stroke-width: 0.8"/>
      </g>
     </g>
     <g id="text_8">
      <!-- 0.15 -->
      <g transform="translate(907.926007 533.072813) scale(0.1 -0.1)">
       <use xlink:href="#DejaVuSans-30"/>
       <use xlink:href="#DejaVuSans-2e" transform="translate(63.623047 0)"/>
       <use xlink:href="#DejaVuSans-31" transform="translate(95.410156 0)"/>
       <use xlink:href="#DejaVuSans-35" transform="translate(159.033203 0)"/>
      </g>
     </g>
    </g>
    <g id="text_9">
     <!-- Correlação com Conversão -->
     <g transform="translate(476.906406 555.816563) scale(0.14 -0.14)">
      <defs>
       <path id="DejaVuSans-43" d="M 4122 4306 
L 4122 3641 
Q 3803 3938 3442 4084 
Q 3081 4231 2675 4231 
Q 1875 4231 1450 3742 
Q 1025 3253 1025 2328 
Q 1025 1406 1450 917 
Q 1875 428 2675 428 
Q 3081 428 3442 575 
Q 3803 722 4122 1019 
L 4122 359 
Q 3791 134 3420 21 
Q 3050 -91 2638 -91 
Q 1578 -91 968 557 
Q 359 1206 359 2328 
Q 359 3453 968 4101 
Q 1578 4750 2638 4750 
Q 3056 4750 3426 4639 
Q 3797 4528 4122 4306 
z
" transform="scale(0.015625)"/>
       <path id="DejaVuSans-6f" d="M 1959 3097 
Q 1497 3097 1228 2736 
Q 959 2375 959 1747 
Q 959 1119 1226 758 
Q 1494 397 1959 397 
Q 2419 397 2687 759 
Q 2956 1122 2956 1747 
Q 2956 2369 2687 2733 
Q 2419 3097 1959 3097 
z
M 1959 3584 
Q 2709 3584 3137 3096 
Q 3566 2609 3566 1747 
Q 3566 888 3137 398 
Q 2709 -91 1959 -91 
Q 1206 -91 779 398 
Q 353 888 353 1747 
Q 353 2609 779 3096 
Q 1206 3584 1959 3584 
z
" transform="scale(0.015625)"/>
       <path id="DejaVuSans-72" d="M 2631 2963 
Q 2534 3019 2420 3045 
Q 2306 3072 2169 3072 
Q 1681 3072 1420 2755 
Q 1159 2438 1159 1844 
L 1159 0 
L 581 0 
L 581 3500 
L 1159 3500 
L 1159 2956 
Q 1341 3275 1631 3429 
Q 1922 3584 2338 3584 
Q 2397 3584 2469 3576 
Q 2541 3569 2628 3553 
L 2631 2963 
z
" transform="scale(0.015625)"/>
       <path id="DejaVuSans-65" d="M 3597 1894 
L 3597 1613 
L 953 1613 
Q 991 1019 1311 708 
Q 1631 397 2203 397 
Q 2534 397 2845 478 
Q 3156 559 3463 722 
L 3463 178 
Q 3153 47 2828 -22 
Q 2503 -91 2169 -91 
Q 1331 -91 842 396 
Q 353 884 353 1716 
Q 353 2575 817 3079 
Q 1281 3584 2069 3584 
Q 2775 3584 3186 3129 
Q 3597 2675 3597 1894 
z
M 3022 2063 
Q 3016 2534 2758 2815 
Q 2500 3097 2075 3097 
Q 1594 3097 1305 2825 
Q 1016 2553 972 2059 
L 3022 2063 
z
" transform="scale(0.015625)"/>
       <path id="DejaVuSans-6c" d="M 603 4863 
L 1178 4863 
L 1178 0 
L 603 0 
L 603 4863 
z
" transform="scale(0.015625)"/>
       <path id="DejaVuSans-61" d="M 2194 1759 
Q 1497 1759 1228 1600 
Q 959 1441 959 1056 
Q 959 750 1161 570 
Q 1363 391 1709 391 
Q 2188 391 2477 730 
Q 2766 1069 2766 1631 
L 2766 1759 
L 2194 1759 
z
M 3341 1997 
L 3341 0 
L 2766 0 
L 2766 531 
Q 2569 213 2275 61 
Q 1981 -91 1556 -91 
Q 1019 -91 701 211 
Q 384 513 384 1019 
Q 384 1609 779 1909 
Q 1175 2209 1959 2209 
L 2766 2209 
L 2766 2266 
Q 2766 2663 2505 2880 
Q 2244 3097 1772 3097 
Q 1472 3097 1187 3025 
Q 903 2953 641 2809 
L 641 3341 
Q 956 3463 1253 3523 
Q 1550 3584 1831 3584 
Q 2591 3584 2966 3190 
Q 3341 2797 3341 1997 
z
" transform="scale(0.015625)"/>
       <path id="DejaVuSans-e7" d="M 3122 3366 
L 3122 2828 
Q 2878 2963 2633 3030 
Q 2388 3097 2138 3097 
Q 1578 3097 1268 2742 
Q 959 2388 959 1747 
Q 959 1106 1268 751 
Q 1578 397 2138 397 
Q 2388 397 2633 464 
Q 2878 531 3122 666 
L 3122 134 
Q 2881 22 2623 -34 
Q 2366 -91 2075 -91 
Q 1284 -91 818 406 
Q 353 903 353 1747 
Q 353 2603 823 3093 
Q 1294 3584 2113 3584 
Q 2378 3584 2631 3529 
Q 2884 3475 3122 3366 
z
M 2311 0 
Q 2482 -194 2566 -358 
Q 2651 -522 2651 -672 
Q 2651 -950 2463 -1092 
Q 2276 -1234 1907 -1234 
Q 1764 -1234 1628 -1215 
Q 1492 -1197 1357 -1159 
L 1357 -750 
Q 1464 -803 1579 -826 
Q 1695 -850 1842 -850 
Q 2026 -850 2120 -775 
Q 2214 -700 2214 -556 
Q 2214 -463 2146 -327 
Q 2079 -191 1939 0 
L 2311 0 
z
" transform="scale(0.015625)"/>
       <path id="DejaVuSans-e3" d="M 2194 1759 
Q 1497 1759 1228 1600 
Q 959 1441 959 1056 
Q 959 750 1161 570 
Q 1363 391 1709 391 
Q 2188 391 2477 730 
Q 2766 1069 2766 1631 
L 2766 1759 
L 2194 1759 
z
M 3341 1997 
L 3341 0 
L 2766 0 
L 2766 531 
Q 2569 213 2275 61 
Q 1981 -91 1556 -91 
Q 1019 -91 701 211 
Q 384 513 384 1019 
Q 384 1609 779 1909 
Q 1175 2209 1959 2209 
L 2766 2209 
L 2766 2266 
Q 2766 2663 2505 2880 
Q 2244 3097 1772 3097 
Q 1472 3097 1187 3025 
Q 903 2953 641 2809 
L 641 3341 
Q 956 3463 1253 3523 
Q 1550 3584 1831 3584 
Q 2591 3584 2966 3190 
Q 3341 2797 3341 1997 
z
M 1844 4281 
L 1665 4453 
Q 1597 4516 1545 4545 
Q 1494 4575 1453 4575 
Q 1334 4575 1278 4461 
Q 1222 4347 1215 4091 
L 825 4091 
Q 831 4513 990 4742 
Q 1150 4972 1434 4972 
Q 1553 4972 1653 4928 
Q 1753 4884 1869 4781 
L 2047 4609 
Q 2115 4547 2167 4517 
Q 2219 4488 2259 4488 
Q 2378 4488 2434 4602 
Q 2490 4716 2497 4972 
L 2887 4972 
Q 2881 4550 2721 4320 
Q 2562 4091 2278 4091 
Q 2159 4091 2059 4134 
Q 1959 4178 1844 4281 
z
" transform="scale(0.015625)"/>
       <path id="DejaVuSans-20" transform="scale(0.015625)"/>
       <path id="DejaVuSans-63" d="M 3122 3366 
L 3122 2828 
Q 2878 2963 2633 3030 
Q 2388 3097 2138 3097 
Q 1578 3097 1268 2742 
Q 959 2388 959 1747 
Q 959 1106 1268 751 
Q 1578 397 2138 397 
Q 2388 397 2633 464 
Q 2878 531 3122 666 
L 3122 134 
Q 2881 22 2623 -34 
Q 2366 -91 2075 -91 
Q 1284 -91 818 406 
Q 353 903 353 1747 
Q 353 2603 823 3093 
Q 1294 3584 2113 3584 
Q 2378 3584 2631 3529 
Q 2884 3475 3122 3366 
z
" transform="scale(0.015625)"/>
       <path id="DejaVuSans-6d" d="M 3328 2828 
Q 3544 3216 3844 3400 
Q 4144 3584 4550 3584 
Q 5097 3584 5394 3201 
Q 5691 2819 5691 2113 
L 5691 0 
L 5113 0 
L 5113 2094 
Q 5113 2597 4934 2840 
Q 4756 3084 4391 3084 
Q 3944 3084 3684 2787 
Q 3425 2491 3425 1978 
L 3425 0 
L 2847 0 
L 2847 2094 
Q 2847 2600 2669 2842 
Q 2491 3084 2119 3084 
Q 1678 3084 1418 2786 
Q 1159 2488 1159 1978 
L 1159 0 
L 581 0 
L 581 3500 
L 1159 3500 
L 1159 2956 
Q 1356 3278 1631 3431 
Q 1906 3584 2284 3584 
Q 2666 3584 2933 3390 
Q 3200 3197 3328 2828 
z
" transform="scale(0.015625)"/>
       <path id="DejaVuSans-6e" d="M 3513 2113 
L 3513 0 
L 2938 0 
L 2938 2094 
Q 2938 2591 2744 2837 
Q 2550 3084 2163 3084 
Q 1697 3084 1428 2787 
Q 1159 2491 1159 1978 
L 1159 0 
L 581 0 
L 581 3500 
L 1159 3500 
L 1159 2956 
Q 1366 3272 1645 3428 
Q 1925 3584 2291 3584 
Q 2894 3584 3203 3211 
Q 3513 2838 3513 2113 
z
" transform="scale(0.015625)"/>
       <path id="DejaVuSans-76" d="M 191 3500 
L 800 3500 
L 1894 563 
L 2988 3500 
L 3597 3500 
L 2284 0 
L 1503 0 
L 191 3500 
z
" transform="scale(0.015625)"/>
       <path id="DejaVuSans-73" d="M 2834 3397 
L 2834 2853 
Q 2591 2978 2328 3040 
Q 2066 3103 1784 3103 
Q 1356 3103 1142 2972 
Q 928 2841 928 2578 
Q 928 2378 1081 2264 
Q 1234 2150 1697 2047 
L 1894 2003 
Q 2506 1872 2764 1633 
Q 3022 1394 3022 966 
Q 3022 478 2636 193 
Q 2250 -91 1575 -91 
Q 1294 -91 989 -36 
Q 684 19 347 128 
L 347 722 
Q 666 556 975 473 
Q 1284 391 1588 391 
Q 1994 391 2212 530 
Q 2431 669 2431 922 
Q 2431 1156 2273 1281 
Q 2116 1406 1581 1522 
L 1381 1569 
Q 847 1681 609 1914 
Q 372 2147 372 2553 
Q 372 3047 722 3315 
Q 1072 3584 1716 3584 
Q 2034 3584 2315 3537 
Q 2597 3491 2834 3397 
z
" transform="scale(0.015625)"/>
      </defs>
      <use xlink:href="#DejaVuSans-43"/>
      <use xlink:href="#DejaVuSans-6f" transform="translate(69.824219 0)"/>
      <use xlink:href="#DejaVuSans-72" transform="translate(131.005859 0)"/>
      <use xlink:href="#DejaVuSans-72" transform="translate(170.369141 0)"/>
      <use xlink:href="#DejaVuSans-65" transform="translate(209.232422 0)"/>
      <use xlink:href="#DejaVuSans-6c" transform="translate(270.755859 0)"/>
      <use xlink:href="#DejaVuSans-61" transform="translate(298.539062 0)"/>
      <use xlink:href="#DejaVuSans-e7" transform="translate(359.818359 0)"/>
      <use xlink:href="#DejaVuSans-e3" transform="translate(414.798828 0)"/>
      <use xlink:href="#DejaVuSans-6f" transform="translate(476.078125 0)"/>
      <use xlink:href="#DejaVuSans-20" transform="translate(537.259766 0)"/>
      <use xlink:href="#DejaVuSans-63" transform="translate(569.046875 0)"/>
      <use xlink:href="#DejaVuSans-6f" transform="translate(624.027344 0)"/>
      <use xlink:href="#DejaVuSans-6d" transform="translate(685.208984 0)"/>
      <use xlink:href="#DejaVuSans-20" transform="translate(782.621094 0)"/>
      <use xlink:href="#DejaVuSans-43" transform="translate(814.408203 0)"/>
      <use xlink:href="#DejaVuSans-6f" transform="translate(884.232422 0)"/>
      <use xlink:href="#DejaVuSans-6e" transform="translate(945.414062 0)"/>
      <use xlink:href="#DejaVuSans-76" transform="translate(1008.792969 0)"/>
      <use xlink:href="#DejaVuSans-65" transform="translate(1067.972656 0)"/>
      <use xlink:href="#DejaVuSans-72" transform="translate(1129.496094 0)"/>
      <use xlink:href="#DejaVuSans-73" transform="translate(1170.609375 0)"/>
      <use xlink:href="#DejaVuSans-e3" transform="translate(1222.708984 0)"/>
      <use xlink:href="#DejaVuSans-6f" transform="translate(1283.988281 0)"/>
     </g>
    </g>
   </g>
   <g id="matplotlib.axis_2">
    <g id="ytick_1">
     <g id="line2d_17">
      <path d="M 150.715625 481.95349 
L 991.425625 481.95349 
" clip-path="url(#p3272d04849)" style="fill: none; stroke: #e0e0e0; stroke-opacity: 0.2; stroke-width: 0.8; stroke-linecap: square"/>
     </g>
     <g id="line2d_18">
      <defs>
       <path id="mbc0fe11e0d" d="M 0 0 
L -3.5 0 
" style="stroke: #000000; stroke-width: 0.8"/>
      </defs>
      <g>
       <use xlink:href="#mbc0fe11e0d" x="150.715625" y="481.95349" style="stroke: #000000; stroke-width: 0.8"/>
      </g>
     </g>
     <g id="text_10">
      <!-- Days Since First Touch -->
      <g transform="translate(32.364062 485.752709) scale(0.1 -0.1)">
       <defs>
        <path id="DejaVuSans-44" d="M 1259 4147 
L 1259 519 
L 2022 519 
Q 2988 519 3436 956 
Q 3884 1394 3884 2338 
Q 3884 3275 3436 3711 
Q 2988 4147 2022 4147 
L 1259 4147 
z
M 628 4666 
L 1925 4666 
Q 3281 4666 3915 4102 
Q 4550 3538 4550 2338 
Q 4550 1131 3912 565 
Q 3275 0 1925 0 
L 628 0 
L 628 4666 
z
" transform="scale(0.015625)"/>
        <path id="DejaVuSans-79" d="M 2059 -325 
Q 1816 -950 1584 -1140 
Q 1353 -1331 966 -1331 
L 506 -1331 
L 506 -850 
L 844 -850 
Q 1081 -850 1212 -737 
Q 1344 -625 1503 -206 
L 1606 56 
L 191 3500 
L 800 3500 
L 1894 763 
L 2988 3500 
L 3597 3500 
L 2059 -325 
z
" transform="scale(0.015625)"/>
        <path id="DejaVuSans-53" d="M 3425 4513 
L 3425 3897 
Q 3066 4069 2747 4153 
Q 2428 4238 2131 4238 
Q 1616 4238 1336 4038 
Q 1056 3838 1056 3469 
Q 1056 3159 1242 3001 
Q 1428 2844 1947 2747 
L 2328 2669 
Q 3034 2534 3370 2195 
Q 3706 1856 3706 1288 
Q 3706 609 3251 259 
Q 2797 -91 1919 -91 
Q 1588 -91 1214 -16 
Q 841 59 441 206 
L 441 856 
Q 825 641 1194 531 
Q 1563 422 1919 422 
Q 2459 422 2753 634 
Q 3047 847 3047 1241 
Q 3047 1584 2836 1778 
Q 2625 1972 2144 2069 
L 1759 2144 
Q 1053 2284 737 2584 
Q 422 2884 422 3419 
Q 422 4038 858 4394 
Q 1294 4750 2059 4750 
Q 2388 4750 2728 4690 
Q 3069 4631 3425 4513 
z
" transform="scale(0.015625)"/>
        <path id="DejaVuSans-69" d="M 603 3500 
L 1178 3500 
L 1178 0 
L 603 0 
L 603 3500 
z
M 603 4863 
L 1178 4863 
L 1178 4134 
L 603 4134 
L 603 4863 
z
" transform="scale(0.015625)"/>
        <path id="DejaVuSans-46" d="M 628 4666 
L 3309 4666 
L 3309 4134 
L 1259 4134 
L 1259 2759 
L 3109 2759 
L 3109 2228 
L 1259 2228 
L 1259 0 
L 628 0 
L 628 4666 
z
" transform="scale(0.015625)"/>
        <path id="DejaVuSans-74" d="M 1172 4494 
L 1172 3500 
L 2356 3500 
L 2356 3053 
L 1172 3053 
L 1172 1153 
Q 1172 725 1289 603 
Q 1406 481 1766 481 
L 2356 481 
L 2356 0 
L 1766 0 
Q 1100 0 847 248 
Q 594 497 594 1153 
L 594 3053 
L 172 3053 
L 172 3500 
L 594 3500 
L 594 4494 
L 1172 4494 
z
" transform="scale(0.015625)"/>
        <path id="DejaVuSans-54" d="M -19 4666 
L 3928 4666 
L 3928 4134 
L 2272 4134 
L 2272 0 
L 1638 0 
L 1638 4134 
L -19 4134 
L -19 4666 
z
" transform="scale(0.015625)"/>
        <path id="DejaVuSans-75" d="M 544 1381 
L 544 3500 
L 1119 3500 
L 1119 1403 
Q 1119 906 1312 657 
Q 1506 409 1894 409 
Q 2359 409 2629 706 
Q 2900 1003 2900 1516 
L 2900 3500 
L 3475 3500 
L 3475 0 
L 2900 0 
L 2900 538 
Q 2691 219 2414 64 
Q 2138 -91 1772 -91 
Q 1169 -91 856 284 
Q 544 659 544 1381 
z
M 1991 3584 
L 1991 3584 
z
" transform="scale(0.015625)"/>
        <path id="DejaVuSans-68" d="M 3513 2113 
L 3513 0 
L 2938 0 
L 2938 2094 
Q 2938 2591 2744 2837 
Q 2550 3084 2163 3084 
Q 1697 3084 1428 2787 
Q 1159 2491 1159 1978 
L 1159 0 
L 581 0 
L 581 4863 
L 1159 4863 
L 1159 2956 
Q 1366 3272 1645 3428 
Q 1925 3584 2291 3584 
Q 2894 3584 3203 3211 
Q 3513 2838 3513 2113 
z
" transform="scale(0.015625)"/>
       </defs>
       <use xlink:href="#DejaVuSans-44"/>
       <use xlink:href="#DejaVuSans-61" transform="translate(77.001953 0)"/>
       <use xlink:href="#DejaVuSans-79" transform="translate(138.28125 0)"/>
       <use xlink:href="#DejaVuSans-73" transform="translate(197.460938 0)"/>
       <use xlink:href="#DejaVuSans-20" transform="translate(249.560547 0)"/>
       <use xlink:href="#DejaVuSans-53" transform="translate(281.347656 0)"/>
       <use xlink:href="#DejaVuSans-69" transform="translate(344.824219 0)"/>
       <use xlink:href="#DejaVuSans-6e" transform="translate(372.607422 0)"/>
       <use xlink:href="#DejaVuSans-63" transform="translate(435.986328 0)"/>
       <use xlink:href="#DejaVuSans-65" transform="translate(490.966797 0)"/>
       <use xlink:href="#DejaVuSans-20" transform="translate(552.490234 0)"/>
       <use xlink:href="#DejaVuSans-46" transform="translate(584.277344 0)"/>
       <use xlink:href="#DejaVuSans-69" transform="translate(634.546875 0)"/>
       <use xlink:href="#DejaVuSans-72" transform="translate(662.330078 0)"/>
       <use xlink:href="#DejaVuSans-73" transform="translate(703.443359 0)"/>
       <use xlink:href="#DejaVuSans-74" transform="translate(755.542969 0)"/>
       <use xlink:href="#DejaVuSans-20" transform="translate(794.751953 0)"/>
       <use xlink:href="#DejaVuSans-54" transform="translate(826.539062 0)"/>
       <use xlink:href="#DejaVuSans-6f" transform="translate(870.623047 0)"/>
       <use xlink:href="#DejaVuSans-75" transform="translate(931.804688 0)"/>
       <use xlink:href="#DejaVuSans-63" transform="translate(995.183594 0)"/>
       <use xlink:href="#DejaVuSans-68" transform="translate(1050.164062 0)"/>
      </g>
     </g>
    </g>
    <g id="ytick_2">
     <g id="line2d_19">
      <path d="M 150.715625 445.063708 
L 991.425625 445.063708 
" clip-path="url(#p3272d04849)" style="fill: none; stroke: #e0e0e0; stroke-opacity: 0.2; stroke-width: 0.8; stroke-linecap: square"/>
     </g>
     <g id="line2d_20">
      <g>
       <use xlink:href="#mbc0fe11e0d" x="150.715625" y="445.063708" style="stroke: #000000; stroke-width: 0.8"/>
      </g>
     </g>
     <g id="text_11">
      <!-- Numero Skus -->
      <g transform="translate(77.446875 448.862927) scale(0.1 -0.1)">
       <defs>
        <path id="DejaVuSans-4e" d="M 628 4666 
L 1478 4666 
L 3547 763 
L 3547 4666 
L 4159 4666 
L 4159 0 
L 3309 0 
L 1241 3903 
L 1241 0 
L 628 0 
L 628 4666 
z
" transform="scale(0.015625)"/>
        <path id="DejaVuSans-6b" d="M 581 4863 
L 1159 4863 
L 1159 1991 
L 2875 3500 
L 3609 3500 
L 1753 1863 
L 3688 0 
L 2938 0 
L 1159 1709 
L 1159 0 
L 581 0 
L 581 4863 
z
" transform="scale(0.015625)"/>
       </defs>
       <use xlink:href="#DejaVuSans-4e"/>
       <use xlink:href="#DejaVuSans-75" transform="translate(74.804688 0)"/>
       <use xlink:href="#DejaVuSans-6d" transform="translate(138.183594 0)"/>
       <use xlink:href="#DejaVuSans-65" transform="translate(235.595703 0)"/>
       <use xlink:href="#DejaVuSans-72" transform="translate(297.119141 0)"/>
       <use xlink:href="#DejaVuSans-6f" transform="translate(335.982422 0)"/>
       <use xlink:href="#DejaVuSans-20" transform="translate(397.164062 0)"/>
       <use xlink:href="#DejaVuSans-53" transform="translate(428.951172 0)"/>
       <use xlink:href="#DejaVuSans-6b" transform="translate(492.427734 0)"/>
       <use xlink:href="#DejaVuSans-75" transform="translate(547.212891 0)"/>
       <use xlink:href="#DejaVuSans-73" transform="translate(610.591797 0)"/>
      </g>
     </g>
    </g>
    <g id="ytick_3">
     <g id="line2d_21">
      <path d="M 150.715625 408.173926 
L 991.425625 408.173926 
" clip-path="url(#p3272d04849)" style="fill: none; stroke: #e0e0e0; stroke-opacity: 0.2; stroke-width: 0.8; stroke-linecap: square"/>
     </g>
     <g id="line2d_22">
      <g>
       <use xlink:href="#mbc0fe11e0d" x="150.715625" y="408.173926" style="stroke: #000000; stroke-width: 0.8"/>
      </g>
     </g>
     <g id="text_12">
      <!-- Email Open Rate -->
      <g transform="translate(59.979687 411.973145) scale(0.1 -0.1)">
       <defs>
        <path id="DejaVuSans-45" d="M 628 4666 
L 3578 4666 
L 3578 4134 
L 1259 4134 
L 1259 2753 
L 3481 2753 
L 3481 2222 
L 1259 2222 
L 1259 531 
L 3634 531 
L 3634 0 
L 628 0 
L 628 4666 
z
" transform="scale(0.015625)"/>
        <path id="DejaVuSans-4f" d="M 2522 4238 
Q 1834 4238 1429 3725 
Q 1025 3213 1025 2328 
Q 1025 1447 1429 934 
Q 1834 422 2522 422 
Q 3209 422 3611 934 
Q 4013 1447 4013 2328 
Q 4013 3213 3611 3725 
Q 3209 4238 2522 4238 
z
M 2522 4750 
Q 3503 4750 4090 4092 
Q 4678 3434 4678 2328 
Q 4678 1225 4090 567 
Q 3503 -91 2522 -91 
Q 1538 -91 948 565 
Q 359 1222 359 2328 
Q 359 3434 948 4092 
Q 1538 4750 2522 4750 
z
" transform="scale(0.015625)"/>
        <path id="DejaVuSans-70" d="M 1159 525 
L 1159 -1331 
L 581 -1331 
L 581 3500 
L 1159 3500 
L 1159 2969 
Q 1341 3281 1617 3432 
Q 1894 3584 2278 3584 
Q 2916 3584 3314 3078 
Q 3713 2572 3713 1747 
Q 3713 922 3314 415 
Q 2916 -91 2278 -91 
Q 1894 -91 1617 61 
Q 1341 213 1159 525 
z
M 3116 1747 
Q 3116 2381 2855 2742 
Q 2594 3103 2138 3103 
Q 1681 3103 1420 2742 
Q 1159 2381 1159 1747 
Q 1159 1113 1420 752 
Q 1681 391 2138 391 
Q 2594 391 2855 752 
Q 3116 1113 3116 1747 
z
" transform="scale(0.015625)"/>
        <path id="DejaVuSans-52" d="M 2841 2188 
Q 3044 2119 3236 1894 
Q 3428 1669 3622 1275 
L 4263 0 
L 3584 0 
L 2988 1197 
Q 2756 1666 2539 1819 
Q 2322 1972 1947 1972 
L 1259 1972 
L 1259 0 
L 628 0 
L 628 4666 
L 2053 4666 
Q 2853 4666 3247 4331 
Q 3641 3997 3641 3322 
Q 3641 2881 3436 2590 
Q 3231 2300 2841 2188 
z
M 1259 4147 
L 1259 2491 
L 2053 2491 
Q 2509 2491 2742 2702 
Q 2975 2913 2975 3322 
Q 2975 3731 2742 3939 
Q 2509 4147 2053 4147 
L 1259 4147 
z
" transform="scale(0.015625)"/>
       </defs>
       <use xlink:href="#DejaVuSans-45"/>
       <use xlink:href="#DejaVuSans-6d" transform="translate(63.183594 0)"/>
       <use xlink:href="#DejaVuSans-61" transform="translate(160.595703 0)"/>
       <use xlink:href="#DejaVuSans-69" transform="translate(221.875 0)"/>
       <use xlink:href="#DejaVuSans-6c" transform="translate(249.658203 0)"/>
       <use xlink:href="#DejaVuSans-20" transform="translate(277.441406 0)"/>
       <use xlink:href="#DejaVuSans-4f" transform="translate(309.228516 0)"/>
       <use xlink:href="#DejaVuSans-70" transform="translate(387.939453 0)"/>
       <use xlink:href="#DejaVuSans-65" transform="translate(451.416016 0)"/>
       <use xlink:href="#DejaVuSans-6e" transform="translate(512.939453 0)"/>
       <use xlink:href="#DejaVuSans-20" transform="translate(576.318359 0)"/>
       <use xlink:href="#DejaVuSans-52" transform="translate(608.105469 0)"/>
       <use xlink:href="#DejaVuSans-61" transform="translate(675.337891 0)"/>
       <use xlink:href="#DejaVuSans-74" transform="translate(736.617188 0)"/>
       <use xlink:href="#DejaVuSans-65" transform="translate(775.826172 0)"/>
      </g>
     </g>
    </g>
    <g id="ytick_4">
     <g id="line2d_23">
      <path d="M 150.715625 371.284143 
L 991.425625 371.284143 
" clip-path="url(#p3272d04849)" style="fill: none; stroke: #e0e0e0; stroke-opacity: 0.2; stroke-width: 0.8; stroke-linecap: square"/>
     </g>
     <g id="line2d_24">
      <g>
       <use xlink:href="#mbc0fe11e0d" x="150.715625" y="371.284143" style="stroke: #000000; stroke-width: 0.8"/>
      </g>
     </g>
     <g id="text_13">
      <!-- Reunioes Realizadas -->
      <g transform="translate(41.553125 375.083362) scale(0.1 -0.1)">
       <defs>
        <path id="DejaVuSans-7a" d="M 353 3500 
L 3084 3500 
L 3084 2975 
L 922 459 
L 3084 459 
L 3084 0 
L 275 0 
L 275 525 
L 2438 3041 
L 353 3041 
L 353 3500 
z
" transform="scale(0.015625)"/>
        <path id="DejaVuSans-64" d="M 2906 2969 
L 2906 4863 
L 3481 4863 
L 3481 0 
L 2906 0 
L 2906 525 
Q 2725 213 2448 61 
Q 2172 -91 1784 -91 
Q 1150 -91 751 415 
Q 353 922 353 1747 
Q 353 2572 751 3078 
Q 1150 3584 1784 3584 
Q 2172 3584 2448 3432 
Q 2725 3281 2906 2969 
z
M 947 1747 
Q 947 1113 1208 752 
Q 1469 391 1925 391 
Q 2381 391 2643 752 
Q 2906 1113 2906 1747 
Q 2906 2381 2643 2742 
Q 2381 3103 1925 3103 
Q 1469 3103 1208 2742 
Q 947 2381 947 1747 
z
" transform="scale(0.015625)"/>
       </defs>
       <use xlink:href="#DejaVuSans-52"/>
       <use xlink:href="#DejaVuSans-65" transform="translate(64.982422 0)"/>
       <use xlink:href="#DejaVuSans-75" transform="translate(126.505859 0)"/>
       <use xlink:href="#DejaVuSans-6e" transform="translate(189.884766 0)"/>
       <use xlink:href="#DejaVuSans-69" transform="translate(253.263672 0)"/>
       <use xlink:href="#DejaVuSans-6f" transform="translate(281.046875 0)"/>
       <use xlink:href="#DejaVuSans-65" transform="translate(342.228516 0)"/>
       <use xlink:href="#DejaVuSans-73" transform="translate(403.751953 0)"/>
       <use xlink:href="#DejaVuSans-20" transform="translate(455.851562 0)"/>
       <use xlink:href="#DejaVuSans-52" transform="translate(487.638672 0)"/>
       <use xlink:href="#DejaVuSans-65" transform="translate(552.621094 0)"/>
       <use xlink:href="#DejaVuSans-61" transform="translate(614.144531 0)"/>
       <use xlink:href="#DejaVuSans-6c" transform="translate(675.423828 0)"/>
       <use xlink:href="#DejaVuSans-69" transform="translate(703.207031 0)"/>
       <use xlink:href="#DejaVuSans-7a" transform="translate(730.990234 0)"/>
       <use xlink:href="#DejaVuSans-61" transform="translate(783.480469 0)"/>
       <use xlink:href="#DejaVuSans-64" transform="translate(844.759766 0)"/>
       <use xlink:href="#DejaVuSans-61" transform="translate(908.236328 0)"/>
       <use xlink:href="#DejaVuSans-73" transform="translate(969.515625 0)"/>
      </g>
     </g>
    </g>
    <g id="ytick_5">
     <g id="line2d_25">
      <path d="M 150.715625 334.394361 
L 991.425625 334.394361 
" clip-path="url(#p3272d04849)" style="fill: none; stroke: #e0e0e0; stroke-opacity: 0.2; stroke-width: 0.8; stroke-linecap: square"/>
     </g>
     <g id="line2d_26">
      <g>
       <use xlink:href="#mbc0fe11e0d" x="150.715625" y="334.394361" style="stroke: #000000; stroke-width: 0.8"/>
      </g>
     </g>
     <g id="text_14">
      <!-- Emails Abertos -->
      <g transform="translate(68.882812 338.19358) scale(0.1 -0.1)">
       <defs>
        <path id="DejaVuSans-41" d="M 2188 4044 
L 1331 1722 
L 3047 1722 
L 2188 4044 
z
M 1831 4666 
L 2547 4666 
L 4325 0 
L 3669 0 
L 3244 1197 
L 1141 1197 
L 716 0 
L 50 0 
L 1831 4666 
z
" transform="scale(0.015625)"/>
        <path id="DejaVuSans-62" d="M 3116 1747 
Q 3116 2381 2855 2742 
Q 2594 3103 2138 3103 
Q 1681 3103 1420 2742 
Q 1159 2381 1159 1747 
Q 1159 1113 1420 752 
Q 1681 391 2138 391 
Q 2594 391 2855 752 
Q 3116 1113 3116 1747 
z
M 1159 2969 
Q 1341 3281 1617 3432 
Q 1894 3584 2278 3584 
Q 2916 3584 3314 3078 
Q 3713 2572 3713 1747 
Q 3713 922 3314 415 
Q 2916 -91 2278 -91 
Q 1894 -91 1617 61 
Q 1341 213 1159 525 
L 1159 0 
L 581 0 
L 581 4863 
L 1159 4863 
L 1159 2969 
z
" transform="scale(0.015625)"/>
       </defs>
       <use xlink:href="#DejaVuSans-45"/>
       <use xlink:href="#DejaVuSans-6d" transform="translate(63.183594 0)"/>
       <use xlink:href="#DejaVuSans-61" transform="translate(160.595703 0)"/>
       <use xlink:href="#DejaVuSans-69" transform="translate(221.875 0)"/>
       <use xlink:href="#DejaVuSans-6c" transform="translate(249.658203 0)"/>
       <use xlink:href="#DejaVuSans-73" transform="translate(277.441406 0)"/>
       <use xlink:href="#DejaVuSans-20" transform="translate(329.541016 0)"/>
       <use xlink:href="#DejaVuSans-41" transform="translate(361.328125 0)"/>
       <use xlink:href="#DejaVuSans-62" transform="translate(429.736328 0)"/>
       <use xlink:href="#DejaVuSans-65" transform="translate(493.212891 0)"/>
       <use xlink:href="#DejaVuSans-72" transform="translate(554.736328 0)"/>
       <use xlink:href="#DejaVuSans-74" transform="translate(595.849609 0)"/>
       <use xlink:href="#DejaVuSans-6f" transform="translate(635.058594 0)"/>
       <use xlink:href="#DejaVuSans-73" transform="translate(696.240234 0)"/>
      </g>
     </g>
    </g>
    <g id="ytick_6">
     <g id="line2d_27">
      <path d="M 150.715625 297.504579 
L 991.425625 297.504579 
" clip-path="url(#p3272d04849)" style="fill: none; stroke: #e0e0e0; stroke-opacity: 0.2; stroke-width: 0.8; stroke-linecap: square"/>
     </g>
     <g id="line2d_28">
      <g>
       <use xlink:href="#mbc0fe11e0d" x="150.715625" y="297.504579" style="stroke: #000000; stroke-width: 0.8"/>
      </g>
     </g>
     <g id="text_15">
      <!-- Margem Media Setor -->
      <g transform="translate(39.7375 301.303797) scale(0.1 -0.1)">
       <defs>
        <path id="DejaVuSans-4d" d="M 628 4666 
L 1569 4666 
L 2759 1491 
L 3956 4666 
L 4897 4666 
L 4897 0 
L 4281 0 
L 4281 4097 
L 3078 897 
L 2444 897 
L 1241 4097 
L 1241 0 
L 628 0 
L 628 4666 
z
" transform="scale(0.015625)"/>
        <path id="DejaVuSans-67" d="M 2906 1791 
Q 2906 2416 2648 2759 
Q 2391 3103 1925 3103 
Q 1463 3103 1205 2759 
Q 947 2416 947 1791 
Q 947 1169 1205 825 
Q 1463 481 1925 481 
Q 2391 481 2648 825 
Q 2906 1169 2906 1791 
z
M 3481 434 
Q 3481 -459 3084 -895 
Q 2688 -1331 1869 -1331 
Q 1566 -1331 1297 -1286 
Q 1028 -1241 775 -1147 
L 775 -588 
Q 1028 -725 1275 -790 
Q 1522 -856 1778 -856 
Q 2344 -856 2625 -561 
Q 2906 -266 2906 331 
L 2906 616 
Q 2728 306 2450 153 
Q 2172 0 1784 0 
Q 1141 0 747 490 
Q 353 981 353 1791 
Q 353 2603 747 3093 
Q 1141 3584 1784 3584 
Q 2172 3584 2450 3431 
Q 2728 3278 2906 2969 
L 2906 3500 
L 3481 3500 
L 3481 434 
z
" transform="scale(0.015625)"/>
       </defs>
       <use xlink:href="#DejaVuSans-4d"/>
       <use xlink:href="#DejaVuSans-61" transform="translate(86.279297 0)"/>
       <use xlink:href="#DejaVuSans-72" transform="translate(147.558594 0)"/>
       <use xlink:href="#DejaVuSans-67" transform="translate(186.921875 0)"/>
       <use xlink:href="#DejaVuSans-65" transform="translate(250.398438 0)"/>
       <use xlink:href="#DejaVuSans-6d" transform="translate(311.921875 0)"/>
       <use xlink:href="#DejaVuSans-20" transform="translate(409.333984 0)"/>
       <use xlink:href="#DejaVuSans-4d" transform="translate(441.121094 0)"/>
       <use xlink:href="#DejaVuSans-65" transform="translate(527.400391 0)"/>
       <use xlink:href="#DejaVuSans-64" transform="translate(588.923828 0)"/>
       <use xlink:href="#DejaVuSans-69" transform="translate(652.400391 0)"/>
       <use xlink:href="#DejaVuSans-61" transform="translate(680.183594 0)"/>
       <use xlink:href="#DejaVuSans-20" transform="translate(741.462891 0)"/>
       <use xlink:href="#DejaVuSans-53" transform="translate(773.25 0)"/>
       <use xlink:href="#DejaVuSans-65" transform="translate(836.726562 0)"/>
       <use xlink:href="#DejaVuSans-74" transform="translate(898.25 0)"/>
       <use xlink:href="#DejaVuSans-6f" transform="translate(937.458984 0)"/>
       <use xlink:href="#DejaVuSans-72" transform="translate(998.640625 0)"/>
      </g>
     </g>
    </g>
    <g id="ytick_7">
     <g id="line2d_29">
      <path d="M 150.715625 260.614796 
L 991.425625 260.614796 
" clip-path="url(#p3272d04849)" style="fill: none; stroke: #e0e0e0; stroke-opacity: 0.2; stroke-width: 0.8; stroke-linecap: square"/>
     </g>
     <g id="line2d_30">
      <g>
       <use xlink:href="#mbc0fe11e0d" x="150.715625" y="260.614796" style="stroke: #000000; stroke-width: 0.8"/>
      </g>
     </g>
     <g id="text_16">
      <!-- Engagement Score -->
      <g transform="translate(48.746875 264.414015) scale(0.1 -0.1)">
       <use xlink:href="#DejaVuSans-45"/>
       <use xlink:href="#DejaVuSans-6e" transform="translate(63.183594 0)"/>
       <use xlink:href="#DejaVuSans-67" transform="translate(126.5625 0)"/>
       <use xlink:href="#DejaVuSans-61" transform="translate(190.039062 0)"/>
       <use xlink:href="#DejaVuSans-67" transform="translate(251.318359 0)"/>
       <use xlink:href="#DejaVuSans-65" transform="translate(314.794922 0)"/>
       <use xlink:href="#DejaVuSans-6d" transform="translate(376.318359 0)"/>
       <use xlink:href="#DejaVuSans-65" transform="translate(473.730469 0)"/>
       <use xlink:href="#DejaVuSans-6e" transform="translate(535.253906 0)"/>
       <use xlink:href="#DejaVuSans-74" transform="translate(598.632812 0)"/>
       <use xlink:href="#DejaVuSans-20" transform="translate(637.841797 0)"/>
       <use xlink:href="#DejaVuSans-53" transform="translate(669.628906 0)"/>
       <use xlink:href="#DejaVuSans-63" transform="translate(733.105469 0)"/>
       <use xlink:href="#DejaVuSans-6f" transform="translate(788.085938 0)"/>
       <use xlink:href="#DejaVuSans-72" transform="translate(849.267578 0)"/>
       <use xlink:href="#DejaVuSans-65" transform="translate(888.130859 0)"/>
      </g>
     </g>
    </g>
    <g id="ytick_8">
     <g id="line2d_31">
      <path d="M 150.715625 223.725014 
L 991.425625 223.725014 
" clip-path="url(#p3272d04849)" style="fill: none; stroke: #e0e0e0; stroke-opacity: 0.2; stroke-width: 0.8; stroke-linecap: square"/>
     </g>
     <g id="line2d_32">
      <g>
       <use xlink:href="#mbc0fe11e0d" x="150.715625" y="223.725014" style="stroke: #000000; stroke-width: 0.8"/>
      </g>
     </g>
     <g id="text_17">
      <!-- Faturamento Anual Milhoes -->
      <g transform="translate(7.2 227.524233) scale(0.1 -0.1)">
       <use xlink:href="#DejaVuSans-46"/>
       <use xlink:href="#DejaVuSans-61" transform="translate(48.394531 0)"/>
       <use xlink:href="#DejaVuSans-74" transform="translate(109.673828 0)"/>
       <use xlink:href="#DejaVuSans-75" transform="translate(148.882812 0)"/>
       <use xlink:href="#DejaVuSans-72" transform="translate(212.261719 0)"/>
       <use xlink:href="#DejaVuSans-61" transform="translate(253.375 0)"/>
       <use xlink:href="#DejaVuSans-6d" transform="translate(314.654297 0)"/>
       <use xlink:href="#DejaVuSans-65" transform="translate(412.066406 0)"/>
       <use xlink:href="#DejaVuSans-6e" transform="translate(473.589844 0)"/>
       <use xlink:href="#DejaVuSans-74" transform="translate(536.96875 0)"/>
       <use xlink:href="#DejaVuSans-6f" transform="translate(576.177734 0)"/>
       <use xlink:href="#DejaVuSans-20" transform="translate(637.359375 0)"/>
       <use xlink:href="#DejaVuSans-41" transform="translate(669.146484 0)"/>
       <use xlink:href="#DejaVuSans-6e" transform="translate(737.554688 0)"/>
       <use xlink:href="#DejaVuSans-75" transform="translate(800.933594 0)"/>
       <use xlink:href="#DejaVuSans-61" transform="translate(864.3125 0)"/>
       <use xlink:href="#DejaVuSans-6c" transform="translate(925.591797 0)"/>
       <use xlink:href="#DejaVuSans-20" transform="translate(953.375 0)"/>
       <use xlink:href="#DejaVuSans-4d" transform="translate(985.162109 0)"/>
       <use xlink:href="#DejaVuSans-69" transform="translate(1071.441406 0)"/>
       <use xlink:href="#DejaVuSans-6c" transform="translate(1099.224609 0)"/>
       <use xlink:href="#DejaVuSans-68" transform="translate(1127.007812 0)"/>
       <use xlink:href="#DejaVuSans-6f" transform="translate(1190.386719 0)"/>
       <use xlink:href="#DejaVuSans-65" transform="translate(1251.568359 0)"/>
       <use xlink:href="#DejaVuSans-73" transform="translate(1313.091797 0)"/>
      </g>
     </g>
    </g>
    <g id="ytick_9">
     <g id="line2d_33">
      <path d="M 150.715625 186.835232 
L 991.425625 186.835232 
" clip-path="url(#p3272d04849)" style="fill: none; stroke: #e0e0e0; stroke-opacity: 0.2; stroke-width: 0.8; stroke-linecap: square"/>
     </g>
     <g id="line2d_34">
      <g>
       <use xlink:href="#mbc0fe11e0d" x="150.715625" y="186.835232" style="stroke: #000000; stroke-width: 0.8"/>
      </g>
     </g>
     <g id="text_18">
      <!-- Company Size Score -->
      <g transform="translate(41.251562 190.63445) scale(0.1 -0.1)">
       <use xlink:href="#DejaVuSans-43"/>
       <use xlink:href="#DejaVuSans-6f" transform="translate(69.824219 0)"/>
       <use xlink:href="#DejaVuSans-6d" transform="translate(131.005859 0)"/>
       <use xlink:href="#DejaVuSans-70" transform="translate(228.417969 0)"/>
       <use xlink:href="#DejaVuSans-61" transform="translate(291.894531 0)"/>
       <use xlink:href="#DejaVuSans-6e" transform="translate(353.173828 0)"/>
       <use xlink:href="#DejaVuSans-79" transform="translate(416.552734 0)"/>
       <use xlink:href="#DejaVuSans-20" transform="translate(475.732422 0)"/>
       <use xlink:href="#DejaVuSans-53" transform="translate(507.519531 0)"/>
       <use xlink:href="#DejaVuSans-69" transform="translate(570.996094 0)"/>
       <use xlink:href="#DejaVuSans-7a" transform="translate(598.779297 0)"/>
       <use xlink:href="#DejaVuSans-65" transform="translate(651.269531 0)"/>
       <use xlink:href="#DejaVuSans-20" transform="translate(712.792969 0)"/>
       <use xlink:href="#DejaVuSans-53" transform="translate(744.580078 0)"/>
       <use xlink:href="#DejaVuSans-63" transform="translate(808.056641 0)"/>
       <use xlink:href="#DejaVuSans-6f" transform="translate(863.037109 0)"/>
       <use xlink:href="#DejaVuSans-72" transform="translate(924.21875 0)"/>
       <use xlink:href="#DejaVuSans-65" transform="translate(963.082031 0)"/>
      </g>
     </g>
    </g>
    <g id="ytick_10">
     <g id="line2d_35">
      <path d="M 150.715625 149.945449 
L 991.425625 149.945449 
" clip-path="url(#p3272d04849)" style="fill: none; stroke: #e0e0e0; stroke-opacity: 0.2; stroke-width: 0.8; stroke-linecap: square"/>
     </g>
     <g id="line2d_36">
      <g>
       <use xlink:href="#mbc0fe11e0d" x="150.715625" y="149.945449" style="stroke: #000000; stroke-width: 0.8"/>
      </g>
     </g>
     <g id="text_19">
      <!-- Email Response Rate -->
      <g transform="translate(38.6625 153.744668) scale(0.1 -0.1)">
       <use xlink:href="#DejaVuSans-45"/>
       <use xlink:href="#DejaVuSans-6d" transform="translate(63.183594 0)"/>
       <use xlink:href="#DejaVuSans-61" transform="translate(160.595703 0)"/>
       <use xlink:href="#DejaVuSans-69" transform="translate(221.875 0)"/>
       <use xlink:href="#DejaVuSans-6c" transform="translate(249.658203 0)"/>
       <use xlink:href="#DejaVuSans-20" transform="translate(277.441406 0)"/>
       <use xlink:href="#DejaVuSans-52" transform="translate(309.228516 0)"/>
       <use xlink:href="#DejaVuSans-65" transform="translate(374.210938 0)"/>
       <use xlink:href="#DejaVuSans-73" transform="translate(435.734375 0)"/>
       <use xlink:href="#DejaVuSans-70" transform="translate(487.833984 0)"/>
       <use xlink:href="#DejaVuSans-6f" transform="translate(551.310547 0)"/>
       <use xlink:href="#DejaVuSans-6e" transform="translate(612.492188 0)"/>
       <use xlink:href="#DejaVuSans-73" transform="translate(675.871094 0)"/>
       <use xlink:href="#DejaVuSans-65" transform="translate(727.970703 0)"/>
       <use xlink:href="#DejaVuSans-20" transform="translate(789.494141 0)"/>
       <use xlink:href="#DejaVuSans-52" transform="translate(821.28125 0)"/>
       <use xlink:href="#DejaVuSans-61" transform="translate(888.513672 0)"/>
       <use xlink:href="#DejaVuSans-74" transform="translate(949.792969 0)"/>
       <use xlink:href="#DejaVuSans-65" transform="translate(989.001953 0)"/>
      </g>
     </g>
    </g>
    <g id="ytick_11">
     <g id="line2d_37">
      <path d="M 150.715625 113.055667 
L 991.425625 113.055667 
" clip-path="url(#p3272d04849)" style="fill: none; stroke: #e0e0e0; stroke-opacity: 0.2; stroke-width: 0.8; stroke-linecap: square"/>
     </g>
     <g id="line2d_38">
      <g>
       <use xlink:href="#mbc0fe11e0d" x="150.715625" y="113.055667" style="stroke: #000000; stroke-width: 0.8"/>
      </g>
     </g>
     <g id="text_20">
      <!-- Emails Enviados -->
      <g transform="translate(62.426562 116.854886) scale(0.1 -0.1)">
       <use xlink:href="#DejaVuSans-45"/>
       <use xlink:href="#DejaVuSans-6d" transform="translate(63.183594 0)"/>
       <use xlink:href="#DejaVuSans-61" transform="translate(160.595703 0)"/>
       <use xlink:href="#DejaVuSans-69" transform="translate(221.875 0)"/>
       <use xlink:href="#DejaVuSans-6c" transform="translate(249.658203 0)"/>
       <use xlink:href="#DejaVuSans-73" transform="translate(277.441406 0)"/>
       <use xlink:href="#DejaVuSans-20" transform="translate(329.541016 0)"/>
       <use xlink:href="#DejaVuSans-45" transform="translate(361.328125 0)"/>
       <use xlink:href="#DejaVuSans-6e" transform="translate(424.511719 0)"/>
       <use xlink:href="#DejaVuSans-76" transform="translate(487.890625 0)"/>
       <use xlink:href="#DejaVuSans-69" transform="translate(547.070312 0)"/>
       <use xlink:href="#DejaVuSans-61" transform="translate(574.853516 0)"/>
       <use xlink:href="#DejaVuSans-64" transform="translate(636.132812 0)"/>
       <use xlink:href="#DejaVuSans-6f" transform="translate(699.609375 0)"/>
       <use xlink:href="#DejaVuSans-73" transform="translate(760.791016 0)"/>
      </g>
     </g>
    </g>
    <g id="ytick_12">
     <g id="line2d_39">
      <path d="M 150.715625 76.165885 
L 991.425625 76.165885 
" clip-path="url(#p3272d04849)" style="fill: none; stroke: #e0e0e0; stroke-opacity: 0.2; stroke-width: 0.8; stroke-linecap: square"/>
     </g>
     <g id="line2d_40">
      <g>
       <use xlink:href="#mbc0fe11e0d" x="150.715625" y="76.165885" style="stroke: #000000; stroke-width: 0.8"/>
      </g>
     </g>
     <g id="text_21">
      <!-- Emails Respondidos -->
      <g transform="translate(44.115625 79.965103) scale(0.1 -0.1)">
       <use xlink:href="#DejaVuSans-45"/>
       <use xlink:href="#DejaVuSans-6d" transform="translate(63.183594 0)"/>
       <use xlink:href="#DejaVuSans-61" transform="translate(160.595703 0)"/>
       <use xlink:href="#DejaVuSans-69" transform="translate(221.875 0)"/>
       <use xlink:href="#DejaVuSans-6c" transform="translate(249.658203 0)"/>
       <use xlink:href="#DejaVuSans-73" transform="translate(277.441406 0)"/>
       <use xlink:href="#DejaVuSans-20" transform="translate(329.541016 0)"/>
       <use xlink:href="#DejaVuSans-52" transform="translate(361.328125 0)"/>
       <use xlink:href="#DejaVuSans-65" transform="translate(426.310547 0)"/>
       <use xlink:href="#DejaVuSans-73" transform="translate(487.833984 0)"/>
       <use xlink:href="#DejaVuSans-70" transform="translate(539.933594 0)"/>
       <use xlink:href="#DejaVuSans-6f" transform="translate(603.410156 0)"/>
       <use xlink:href="#DejaVuSans-6e" transform="translate(664.591797 0)"/>
       <use xlink:href="#DejaVuSans-64" transform="translate(727.970703 0)"/>
       <use xlink:href="#DejaVuSans-69" transform="translate(791.447266 0)"/>
       <use xlink:href="#DejaVuSans-64" transform="translate(819.230469 0)"/>
       <use xlink:href="#DejaVuSans-6f" transform="translate(882.707031 0)"/>
       <use xlink:href="#DejaVuSans-73" transform="translate(943.888672 0)"/>
      </g>
     </g>
    </g>
   </g>
   <g id="patch_15">
    <path d="M 150.715625 518.474375 
L 150.715625 39.645 
" style="fill: none; stroke: #000000; stroke-width: 0.8; stroke-linejoin: miter; stroke-linecap: square"/>
   </g>
   <g id="patch_16">
    <path d="M 150.715625 518.474375 
L 991.425625 518.474375 
" style="fill: none; stroke: #000000; stroke-width: 0.8; stroke-linejoin: miter; stroke-linecap: square"/>
   </g>
   <g id="text_22">
    <g id="patch_17">
     <path d="M 205.423423 490.576459 
L 244.78108 490.576459 
Q 248.08108 490.576459 248.08108 487.276459 
L 248.08108 476.630522 
Q 248.08108 473.330522 244.78108 473.330522 
L 205.423423 473.330522 
Q 202.123423 473.330522 202.123423 476.630522 
L 202.123423 487.276459 
Q 202.123423 490.576459 205.423423 490.576459 
z
" style="fill: #ffffff; opacity: 0.8"/>
    </g>
    <!-- -0.169 -->
    <g style="fill: #1b365d" transform="translate(205.423423 484.988803) scale(0.11 -0.11)">
     <defs>
      <path id="DejaVuSans-Bold-2d" d="M 347 2297 
L 2309 2297 
L 2309 1388 
L 347 1388 
L 347 2297 
z
" transform="scale(0.015625)"/>
      <path id="DejaVuSans-Bold-30" d="M 2944 2338 
Q 2944 3213 2780 3570 
Q 2616 3928 2228 3928 
Q 1841 3928 1675 3570 
Q 1509 3213 1509 2338 
Q 1509 1453 1675 1090 
Q 1841 728 2228 728 
Q 2613 728 2778 1090 
Q 2944 1453 2944 2338 
z
M 4147 2328 
Q 4147 1169 3647 539 
Q 3147 -91 2228 -91 
Q 1306 -91 806 539 
Q 306 1169 306 2328 
Q 306 3491 806 4120 
Q 1306 4750 2228 4750 
Q 3147 4750 3647 4120 
Q 4147 3491 4147 2328 
z
" transform="scale(0.015625)"/>
      <path id="DejaVuSans-Bold-2e" d="M 653 1209 
L 1778 1209 
L 1778 0 
L 653 0 
L 653 1209 
z
" transform="scale(0.015625)"/>
      <path id="DejaVuSans-Bold-31" d="M 750 831 
L 1813 831 
L 1813 3847 
L 722 3622 
L 722 4441 
L 1806 4666 
L 2950 4666 
L 2950 831 
L 4013 831 
L 4013 0 
L 750 0 
L 750 831 
z
" transform="scale(0.015625)"/>
      <path id="DejaVuSans-Bold-36" d="M 2316 2303 
Q 2000 2303 1842 2098 
Q 1684 1894 1684 1484 
Q 1684 1075 1842 870 
Q 2000 666 2316 666 
Q 2634 666 2792 870 
Q 2950 1075 2950 1484 
Q 2950 1894 2792 2098 
Q 2634 2303 2316 2303 
z
M 3803 4544 
L 3803 3681 
Q 3506 3822 3243 3889 
Q 2981 3956 2731 3956 
Q 2194 3956 1894 3657 
Q 1594 3359 1544 2772 
Q 1750 2925 1990 3001 
Q 2231 3078 2516 3078 
Q 3231 3078 3670 2659 
Q 4109 2241 4109 1563 
Q 4109 813 3618 361 
Q 3128 -91 2303 -91 
Q 1394 -91 895 523 
Q 397 1138 397 2266 
Q 397 3422 980 4083 
Q 1563 4744 2578 4744 
Q 2900 4744 3203 4694 
Q 3506 4644 3803 4544 
z
" transform="scale(0.015625)"/>
      <path id="DejaVuSans-Bold-39" d="M 641 103 
L 641 966 
Q 928 831 1190 764 
Q 1453 697 1709 697 
Q 2247 697 2547 995 
Q 2847 1294 2900 1881 
Q 2688 1725 2447 1647 
Q 2206 1569 1925 1569 
Q 1209 1569 770 1986 
Q 331 2403 331 3084 
Q 331 3838 820 4291 
Q 1309 4744 2131 4744 
Q 3044 4744 3544 4128 
Q 4044 3513 4044 2388 
Q 4044 1231 3459 570 
Q 2875 -91 1856 -91 
Q 1528 -91 1228 -42 
Q 928 6 641 103 
z
M 2125 2350 
Q 2441 2350 2600 2554 
Q 2759 2759 2759 3169 
Q 2759 3575 2600 3781 
Q 2441 3988 2125 3988 
Q 1809 3988 1650 3781 
Q 1491 3575 1491 3169 
Q 1491 2759 1650 2554 
Q 1809 2350 2125 2350 
z
" transform="scale(0.015625)"/>
     </defs>
     <use xlink:href="#DejaVuSans-Bold-2d"/>
     <use xlink:href="#DejaVuSans-Bold-30" transform="translate(41.503906 0)"/>
     <use xlink:href="#DejaVuSans-Bold-2e" transform="translate(111.083984 0)"/>
     <use xlink:href="#DejaVuSans-Bold-31" transform="translate(149.072266 0)"/>
     <use xlink:href="#DejaVuSans-Bold-36" transform="translate(218.652344 0)"/>
     <use xlink:href="#DejaVuSans-Bold-39" transform="translate(288.232422 0)"/>
    </g>
   </g>
   <g id="text_23">
    <g id="patch_18">
     <path d="M 897.36017 453.686677 
L 932.152827 453.686677 
Q 935.452827 453.686677 935.452827 450.386677 
L 935.452827 439.740739 
Q 935.452827 436.440739 932.152827 436.440739 
L 897.36017 436.440739 
Q 894.06017 436.440739 894.06017 439.740739 
L 894.06017 450.386677 
Q 894.06017 453.686677 897.36017 453.686677 
z
" style="fill: #ffffff; opacity: 0.8"/>
    </g>
    <!-- 0.123 -->
    <g style="fill: #1b365d" transform="translate(897.36017 448.099021) scale(0.11 -0.11)">
     <defs>
      <path id="DejaVuSans-Bold-32" d="M 1844 884 
L 3897 884 
L 3897 0 
L 506 0 
L 506 884 
L 2209 2388 
Q 2438 2594 2547 2791 
Q 2656 2988 2656 3200 
Q 2656 3528 2436 3728 
Q 2216 3928 1850 3928 
Q 1569 3928 1234 3808 
Q 900 3688 519 3450 
L 519 4475 
Q 925 4609 1322 4679 
Q 1719 4750 2100 4750 
Q 2938 4750 3402 4381 
Q 3866 4013 3866 3353 
Q 3866 2972 3669 2642 
Q 3472 2313 2841 1759 
L 1844 884 
z
" transform="scale(0.015625)"/>
      <path id="DejaVuSans-Bold-33" d="M 2981 2516 
Q 3453 2394 3698 2092 
Q 3944 1791 3944 1325 
Q 3944 631 3412 270 
Q 2881 -91 1863 -91 
Q 1503 -91 1142 -33 
Q 781 25 428 141 
L 428 1069 
Q 766 900 1098 814 
Q 1431 728 1753 728 
Q 2231 728 2486 893 
Q 2741 1059 2741 1369 
Q 2741 1688 2480 1852 
Q 2219 2016 1709 2016 
L 1228 2016 
L 1228 2791 
L 1734 2791 
Q 2188 2791 2409 2933 
Q 2631 3075 2631 3366 
Q 2631 3634 2415 3781 
Q 2200 3928 1806 3928 
Q 1516 3928 1219 3862 
Q 922 3797 628 3669 
L 628 4550 
Q 984 4650 1334 4700 
Q 1684 4750 2022 4750 
Q 2931 4750 3382 4451 
Q 3834 4153 3834 3553 
Q 3834 3144 3618 2883 
Q 3403 2622 2981 2516 
z
" transform="scale(0.015625)"/>
     </defs>
     <use xlink:href="#DejaVuSans-Bold-30"/>
     <use xlink:href="#DejaVuSans-Bold-2e" transform="translate(69.580078 0)"/>
     <use xlink:href="#DejaVuSans-Bold-31" transform="translate(107.568359 0)"/>
     <use xlink:href="#DejaVuSans-Bold-32" transform="translate(177.148438 0)"/>
     <use xlink:href="#DejaVuSans-Bold-33" transform="translate(246.728516 0)"/>
    </g>
   </g>
   <g id="text_24">
    <g id="patch_19">
     <path d="M 353.513696 416.796895 
L 392.871352 416.796895 
Q 396.171352 416.796895 396.171352 413.496895 
L 396.171352 402.850957 
Q 396.171352 399.550957 392.871352 399.550957 
L 353.513696 399.550957 
Q 350.213696 399.550957 350.213696 402.850957 
L 350.213696 413.496895 
Q 350.213696 416.796895 353.513696 416.796895 
z
" style="fill: #ffffff; opacity: 0.8"/>
    </g>
    <!-- -0.095 -->
    <g style="fill: #1b365d" transform="translate(353.513696 411.209238) scale(0.11 -0.11)">
     <defs>
      <path id="DejaVuSans-Bold-35" d="M 678 4666 
L 3669 4666 
L 3669 3781 
L 1638 3781 
L 1638 3059 
Q 1775 3097 1914 3117 
Q 2053 3138 2203 3138 
Q 3056 3138 3531 2711 
Q 4006 2284 4006 1522 
Q 4006 766 3489 337 
Q 2972 -91 2053 -91 
Q 1656 -91 1267 -14 
Q 878 63 494 219 
L 494 1166 
Q 875 947 1217 837 
Q 1559 728 1863 728 
Q 2300 728 2551 942 
Q 2803 1156 2803 1522 
Q 2803 1891 2551 2103 
Q 2300 2316 1863 2316 
Q 1603 2316 1309 2248 
Q 1016 2181 678 2041 
L 678 4666 
z
" transform="scale(0.015625)"/>
     </defs>
     <use xlink:href="#DejaVuSans-Bold-2d"/>
     <use xlink:href="#DejaVuSans-Bold-30" transform="translate(41.503906 0)"/>
     <use xlink:href="#DejaVuSans-Bold-2e" transform="translate(111.083984 0)"/>
     <use xlink:href="#DejaVuSans-Bold-30" transform="translate(149.072266 0)"/>
     <use xlink:href="#DejaVuSans-Bold-39" transform="translate(218.652344 0)"/>
     <use xlink:href="#DejaVuSans-Bold-35" transform="translate(288.232422 0)"/>
    </g>
   </g>
   <g id="text_25">
    <g id="patch_20">
     <path d="M 808.576104 379.907112 
L 843.36876 379.907112 
Q 846.66876 379.907112 846.66876 376.607112 
L 846.66876 365.961175 
Q 846.66876 362.661175 843.36876 362.661175 
L 808.576104 362.661175 
Q 805.276104 362.661175 805.276104 365.961175 
L 805.276104 376.607112 
Q 805.276104 379.907112 808.576104 379.907112 
z
" style="fill: #ffffff; opacity: 0.8"/>
    </g>
    <!-- 0.079 -->
    <g style="fill: #1b365d" transform="translate(808.576104 374.319456) scale(0.11 -0.11)">
     <defs>
      <path id="DejaVuSans-Bold-37" d="M 428 4666 
L 3944 4666 
L 3944 3988 
L 2125 0 
L 953 0 
L 2675 3781 
L 428 3781 
L 428 4666 
z
" transform="scale(0.015625)"/>
     </defs>
     <use xlink:href="#DejaVuSans-Bold-30"/>
     <use xlink:href="#DejaVuSans-Bold-2e" transform="translate(69.580078 0)"/>
     <use xlink:href="#DejaVuSans-Bold-30" transform="translate(107.568359 0)"/>
     <use xlink:href="#DejaVuSans-Bold-37" transform="translate(177.148438 0)"/>
     <use xlink:href="#DejaVuSans-Bold-39" transform="translate(246.728516 0)"/>
    </g>
   </g>
   <g id="text_26">
    <g id="patch_21">
     <path d="M 405.184931 343.01733 
L 444.542587 343.01733 
Q 447.842587 343.01733 447.842587 339.71733 
L 447.842587 329.071392 
Q 447.842587 325.771392 444.542587 325.771392 
L 405.184931 325.771392 
Q 401.884931 325.771392 401.884931 329.071392 
L 401.884931 339.71733 
Q 401.884931 343.01733 405.184931 343.01733 
z
" style="fill: #ffffff; opacity: 0.8"/>
    </g>
    <!-- -0.070 -->
    <g style="fill: #1b365d" transform="translate(405.184931 337.429674) scale(0.11 -0.11)">
     <use xlink:href="#DejaVuSans-Bold-2d"/>
     <use xlink:href="#DejaVuSans-Bold-30" transform="translate(41.503906 0)"/>
     <use xlink:href="#DejaVuSans-Bold-2e" transform="translate(111.083984 0)"/>
     <use xlink:href="#DejaVuSans-Bold-30" transform="translate(149.072266 0)"/>
     <use xlink:href="#DejaVuSans-Bold-37" transform="translate(218.652344 0)"/>
     <use xlink:href="#DejaVuSans-Bold-30" transform="translate(288.232422 0)"/>
    </g>
   </g>
   <g id="text_27">
    <g id="patch_22">
     <path d="M 438.26327 306.127547 
L 477.620927 306.127547 
Q 480.920927 306.127547 480.920927 302.827547 
L 480.920927 292.18161 
Q 480.920927 288.88161 477.620927 288.88161 
L 438.26327 288.88161 
Q 434.96327 288.88161 434.96327 292.18161 
L 434.96327 302.827547 
Q 434.96327 306.127547 438.26327 306.127547 
z
" style="fill: #ffffff; opacity: 0.8"/>
    </g>
    <!-- -0.053 -->
    <g style="fill: #1b365d" transform="translate(438.26327 300.539891) scale(0.11 -0.11)">
     <use xlink:href="#DejaVuSans-Bold-2d"/>
     <use xlink:href="#DejaVuSans-Bold-30" transform="translate(41.503906 0)"/>
     <use xlink:href="#DejaVuSans-Bold-2e" transform="translate(111.083984 0)"/>
     <use xlink:href="#DejaVuSans-Bold-30" transform="translate(149.072266 0)"/>
     <use xlink:href="#DejaVuSans-Bold-35" transform="translate(218.652344 0)"/>
     <use xlink:href="#DejaVuSans-Bold-33" transform="translate(288.232422 0)"/>
    </g>
   </g>
   <g id="text_28">
    <g id="patch_23">
     <path d="M 736.753704 269.237765 
L 771.546361 269.237765 
Q 774.846361 269.237765 774.846361 265.937765 
L 774.846361 255.291828 
Q 774.846361 251.991828 771.546361 251.991828 
L 736.753704 251.991828 
Q 733.453704 251.991828 733.453704 255.291828 
L 733.453704 265.937765 
Q 733.453704 269.237765 736.753704 269.237765 
z
" style="fill: #ffffff; opacity: 0.8"/>
    </g>
    <!-- 0.043 -->
    <g style="fill: #1b365d" transform="translate(736.753704 263.650109) scale(0.11 -0.11)">
     <defs>
      <path id="DejaVuSans-Bold-34" d="M 2356 3675 
L 1038 1722 
L 2356 1722 
L 2356 3675 
z
M 2156 4666 
L 3494 4666 
L 3494 1722 
L 4159 1722 
L 4159 850 
L 3494 850 
L 3494 0 
L 2356 0 
L 2356 850 
L 288 850 
L 288 1881 
L 2156 4666 
z
" transform="scale(0.015625)"/>
     </defs>
     <use xlink:href="#DejaVuSans-Bold-30"/>
     <use xlink:href="#DejaVuSans-Bold-2e" transform="translate(69.580078 0)"/>
     <use xlink:href="#DejaVuSans-Bold-30" transform="translate(107.568359 0)"/>
     <use xlink:href="#DejaVuSans-Bold-34" transform="translate(177.148438 0)"/>
     <use xlink:href="#DejaVuSans-Bold-33" transform="translate(246.728516 0)"/>
    </g>
   </g>
   <g id="text_29">
    <g id="patch_24">
     <path d="M 463.487947 232.347983 
L 502.845603 232.347983 
Q 506.145603 232.347983 506.145603 229.047983 
L 506.145603 218.402045 
Q 506.145603 215.102045 502.845603 215.102045 
L 463.487947 215.102045 
Q 460.187947 215.102045 460.187947 218.402045 
L 460.187947 229.047983 
Q 460.187947 232.347983 463.487947 232.347983 
z
" style="fill: #ffffff; opacity: 0.8"/>
    </g>
    <!-- -0.041 -->
    <g style="fill: #1b365d" transform="translate(463.487947 226.760326) scale(0.11 -0.11)">
     <use xlink:href="#DejaVuSans-Bold-2d"/>
     <use xlink:href="#DejaVuSans-Bold-30" transform="translate(41.503906 0)"/>
     <use xlink:href="#DejaVuSans-Bold-2e" transform="translate(111.083984 0)"/>
     <use xlink:href="#DejaVuSans-Bold-30" transform="translate(149.072266 0)"/>
     <use xlink:href="#DejaVuSans-Bold-34" transform="translate(218.652344 0)"/>
     <use xlink:href="#DejaVuSans-Bold-31" transform="translate(288.232422 0)"/>
    </g>
   </g>
   <g id="text_30">
    <g id="patch_25">
     <path d="M 729.621755 195.4582 
L 764.414411 195.4582 
Q 767.714411 195.4582 767.714411 192.1582 
L 767.714411 181.512263 
Q 767.714411 178.212263 764.414411 178.212263 
L 729.621755 178.212263 
Q 726.321755 178.212263 726.321755 181.512263 
L 726.321755 192.1582 
Q 726.321755 195.4582 729.621755 195.4582 
z
" style="fill: #ffffff; opacity: 0.8"/>
    </g>
    <!-- 0.040 -->
    <g style="fill: #1b365d" transform="translate(729.621755 189.870544) scale(0.11 -0.11)">
     <use xlink:href="#DejaVuSans-Bold-30"/>
     <use xlink:href="#DejaVuSans-Bold-2e" transform="translate(69.580078 0)"/>
     <use xlink:href="#DejaVuSans-Bold-30" transform="translate(107.568359 0)"/>
     <use xlink:href="#DejaVuSans-Bold-34" transform="translate(177.148438 0)"/>
     <use xlink:href="#DejaVuSans-Bold-30" transform="translate(246.728516 0)"/>
    </g>
   </g>
   <g id="text_31">
    <g id="patch_26">
     <path d="M 719.283207 158.568418 
L 754.075863 158.568418 
Q 757.375863 158.568418 757.375863 155.268418 
L 757.375863 144.62248 
Q 757.375863 141.32248 754.075863 141.32248 
L 719.283207 141.32248 
Q 715.983207 141.32248 715.983207 144.62248 
L 715.983207 155.268418 
Q 715.983207 158.568418 719.283207 158.568418 
z
" style="fill: #ffffff; opacity: 0.8"/>
    </g>
    <!-- 0.035 -->
    <g style="fill: #1b365d" transform="translate(719.283207 152.980762) scale(0.11 -0.11)">
     <use xlink:href="#DejaVuSans-Bold-30"/>
     <use xlink:href="#DejaVuSans-Bold-2e" transform="translate(69.580078 0)"/>
     <use xlink:href="#DejaVuSans-Bold-30" transform="translate(107.568359 0)"/>
     <use xlink:href="#DejaVuSans-Bold-33" transform="translate(177.148438 0)"/>
     <use xlink:href="#DejaVuSans-Bold-35" transform="translate(246.728516 0)"/>
    </g>
   </g>
   <g id="text_32">
    <g id="patch_27">
     <path d="M 700.527958 121.678636 
L 735.320615 121.678636 
Q 738.620615 121.678636 738.620615 118.378636 
L 738.620615 107.732698 
Q 738.620615 104.432698 735.320615 104.432698 
L 700.527958 104.432698 
Q 697.227958 104.432698 697.227958 107.732698 
L 697.227958 118.378636 
Q 697.227958 121.678636 700.527958 121.678636 
z
" style="fill: #ffffff; opacity: 0.8"/>
    </g>
    <!-- 0.025 -->
    <g style="fill: #1b365d" transform="translate(700.527958 116.090979) scale(0.11 -0.11)">
     <use xlink:href="#DejaVuSans-Bold-30"/>
     <use xlink:href="#DejaVuSans-Bold-2e" transform="translate(69.580078 0)"/>
     <use xlink:href="#DejaVuSans-Bold-30" transform="translate(107.568359 0)"/>
     <use xlink:href="#DejaVuSans-Bold-32" transform="translate(177.148438 0)"/>
     <use xlink:href="#DejaVuSans-Bold-35" transform="translate(246.728516 0)"/>
    </g>
   </g>
   <g id="text_33">
    <g id="patch_28">
     <path d="M 658.635994 84.788853 
L 693.428651 84.788853 
Q 696.728651 84.788853 696.728651 81.488853 
L 696.728651 70.842916 
Q 696.728651 67.542916 693.428651 67.542916 
L 658.635994 67.542916 
Q 655.335994 67.542916 655.335994 70.842916 
L 655.335994 81.488853 
Q 655.335994 84.788853 658.635994 84.788853 
z
" style="fill: #ffffff; opacity: 0.8"/>
    </g>
    <!-- 0.005 -->
    <g style="fill: #1b365d" transform="translate(658.635994 79.201197) scale(0.11 -0.11)">
     <use xlink:href="#DejaVuSans-Bold-30"/>
     <use xlink:href="#DejaVuSans-Bold-2e" transform="translate(69.580078 0)"/>
     <use xlink:href="#DejaVuSans-Bold-30" transform="translate(107.568359 0)"/>
     <use xlink:href="#DejaVuSans-Bold-30" transform="translate(177.148438 0)"/>
     <use xlink:href="#DejaVuSans-Bold-35" transform="translate(246.728516 0)"/>
    </g>
   </g>
   <g id="text_34">
    <!-- Correlação das Features com o Target de Conversão -->
    <g transform="translate(336.329375 19.645) scale(0.16 -0.16)">
     <defs>
      <path id="DejaVuSans-Bold-43" d="M 4288 256 
Q 3956 84 3597 -3 
Q 3238 -91 2847 -91 
Q 1681 -91 1000 561 
Q 319 1213 319 2328 
Q 319 3447 1000 4098 
Q 1681 4750 2847 4750 
Q 3238 4750 3597 4662 
Q 3956 4575 4288 4403 
L 4288 3438 
Q 3953 3666 3628 3772 
Q 3303 3878 2944 3878 
Q 2300 3878 1931 3465 
Q 1563 3053 1563 2328 
Q 1563 1606 1931 1193 
Q 2300 781 2944 781 
Q 3303 781 3628 887 
Q 3953 994 4288 1222 
L 4288 256 
z
" transform="scale(0.015625)"/>
      <path id="DejaVuSans-Bold-6f" d="M 2203 2784 
Q 1831 2784 1636 2517 
Q 1441 2250 1441 1747 
Q 1441 1244 1636 976 
Q 1831 709 2203 709 
Q 2569 709 2762 976 
Q 2956 1244 2956 1747 
Q 2956 2250 2762 2517 
Q 2569 2784 2203 2784 
z
M 2203 3584 
Q 3106 3584 3614 3096 
Q 4122 2609 4122 1747 
Q 4122 884 3614 396 
Q 3106 -91 2203 -91 
Q 1297 -91 786 396 
Q 275 884 275 1747 
Q 275 2609 786 3096 
Q 1297 3584 2203 3584 
z
" transform="scale(0.015625)"/>
      <path id="DejaVuSans-Bold-72" d="M 3138 2547 
Q 2991 2616 2845 2648 
Q 2700 2681 2553 2681 
Q 2122 2681 1889 2404 
Q 1656 2128 1656 1613 
L 1656 0 
L 538 0 
L 538 3500 
L 1656 3500 
L 1656 2925 
Q 1872 3269 2151 3426 
Q 2431 3584 2822 3584 
Q 2878 3584 2943 3579 
Q 3009 3575 3134 3559 
L 3138 2547 
z
" transform="scale(0.015625)"/>
      <path id="DejaVuSans-Bold-65" d="M 4031 1759 
L 4031 1441 
L 1416 1441 
Q 1456 1047 1700 850 
Q 1944 653 2381 653 
Q 2734 653 3104 758 
Q 3475 863 3866 1075 
L 3866 213 
Q 3469 63 3072 -14 
Q 2675 -91 2278 -91 
Q 1328 -91 801 392 
Q 275 875 275 1747 
Q 275 2603 792 3093 
Q 1309 3584 2216 3584 
Q 3041 3584 3536 3087 
Q 4031 2591 4031 1759 
z
M 2881 2131 
Q 2881 2450 2695 2645 
Q 2509 2841 2209 2841 
Q 1884 2841 1681 2658 
Q 1478 2475 1428 2131 
L 2881 2131 
z
" transform="scale(0.015625)"/>
      <path id="DejaVuSans-Bold-6c" d="M 538 4863 
L 1656 4863 
L 1656 0 
L 538 0 
L 538 4863 
z
" transform="scale(0.015625)"/>
      <path id="DejaVuSans-Bold-61" d="M 2106 1575 
Q 1756 1575 1579 1456 
Q 1403 1338 1403 1106 
Q 1403 894 1545 773 
Q 1688 653 1941 653 
Q 2256 653 2472 879 
Q 2688 1106 2688 1447 
L 2688 1575 
L 2106 1575 
z
M 3816 1997 
L 3816 0 
L 2688 0 
L 2688 519 
Q 2463 200 2181 54 
Q 1900 -91 1497 -91 
Q 953 -91 614 226 
Q 275 544 275 1050 
Q 275 1666 698 1953 
Q 1122 2241 2028 2241 
L 2688 2241 
L 2688 2328 
Q 2688 2594 2478 2717 
Q 2269 2841 1825 2841 
Q 1466 2841 1156 2769 
Q 847 2697 581 2553 
L 581 3406 
Q 941 3494 1303 3539 
Q 1666 3584 2028 3584 
Q 2975 3584 3395 3211 
Q 3816 2838 3816 1997 
z
" transform="scale(0.015625)"/>
      <path id="DejaVuSans-Bold-e7" d="M 3366 3391 
L 3366 2478 
Q 3138 2634 2908 2709 
Q 2678 2784 2431 2784 
Q 1963 2784 1702 2511 
Q 1441 2238 1441 1747 
Q 1441 1256 1702 982 
Q 1963 709 2431 709 
Q 2694 709 2930 787 
Q 3166 866 3366 1019 
L 3366 103 
Q 3103 6 2833 -42 
Q 2563 -91 2291 -91 
Q 1344 -91 809 395 
Q 275 881 275 1747 
Q 275 2613 809 3098 
Q 1344 3584 2291 3584 
Q 2566 3584 2833 3536 
Q 3100 3488 3366 3391 
z
M 2457 0 
Q 2639 -194 2724 -359 
Q 2810 -525 2810 -672 
Q 2810 -969 2618 -1111 
Q 2426 -1253 2029 -1253 
Q 1879 -1253 1719 -1233 
Q 1560 -1213 1398 -1172 
L 1395 -697 
Q 1551 -747 1680 -770 
Q 1810 -794 1914 -794 
Q 2095 -794 2196 -722 
Q 2298 -650 2298 -525 
Q 2298 -444 2231 -316 
Q 2164 -188 2023 0 
L 2457 0 
z
" transform="scale(0.015625)"/>
      <path id="DejaVuSans-Bold-e3" d="M 2106 1575 
Q 1756 1575 1579 1456 
Q 1403 1338 1403 1106 
Q 1403 894 1545 773 
Q 1688 653 1941 653 
Q 2256 653 2472 879 
Q 2688 1106 2688 1447 
L 2688 1575 
L 2106 1575 
z
M 3816 1997 
L 3816 0 
L 2688 0 
L 2688 519 
Q 2463 200 2181 54 
Q 1900 -91 1497 -91 
Q 953 -91 614 226 
Q 275 544 275 1050 
Q 275 1666 698 1953 
Q 1122 2241 2028 2241 
L 2688 2241 
L 2688 2328 
Q 2688 2594 2478 2717 
Q 2269 2841 1825 2841 
Q 1466 2841 1156 2769 
Q 847 2697 581 2553 
L 581 3406 
Q 941 3494 1303 3539 
Q 1666 3584 2028 3584 
Q 2975 3584 3395 3211 
Q 3816 2838 3816 1997 
z
M 2190 4263 
L 2018 4378 
Q 2006 4384 1987 4397 
Q 1840 4494 1762 4494 
Q 1650 4494 1590 4397 
Q 1531 4300 1531 4116 
L 1531 4091 
L 1097 4091 
Q 1097 4516 1257 4747 
Q 1418 4978 1709 4978 
Q 1822 4978 1936 4936 
Q 2050 4894 2178 4800 
L 2368 4666 
Q 2437 4619 2495 4594 
Q 2553 4569 2600 4569 
Q 2712 4569 2774 4669 
Q 2837 4769 2837 4947 
L 2837 4972 
L 3272 4972 
Q 3272 4547 3111 4315 
Q 2950 4084 2659 4084 
Q 2547 4084 2442 4121 
Q 2337 4159 2190 4263 
z
" transform="scale(0.015625)"/>
      <path id="DejaVuSans-Bold-20" transform="scale(0.015625)"/>
      <path id="DejaVuSans-Bold-64" d="M 2919 2988 
L 2919 4863 
L 4044 4863 
L 4044 0 
L 2919 0 
L 2919 506 
Q 2688 197 2409 53 
Q 2131 -91 1766 -91 
Q 1119 -91 703 423 
Q 288 938 288 1747 
Q 288 2556 703 3070 
Q 1119 3584 1766 3584 
Q 2128 3584 2408 3439 
Q 2688 3294 2919 2988 
z
M 2181 722 
Q 2541 722 2730 984 
Q 2919 1247 2919 1747 
Q 2919 2247 2730 2509 
Q 2541 2772 2181 2772 
Q 1825 2772 1636 2509 
Q 1447 2247 1447 1747 
Q 1447 1247 1636 984 
Q 1825 722 2181 722 
z
" transform="scale(0.015625)"/>
      <path id="DejaVuSans-Bold-73" d="M 3272 3391 
L 3272 2541 
Q 2913 2691 2578 2766 
Q 2244 2841 1947 2841 
Q 1628 2841 1473 2761 
Q 1319 2681 1319 2516 
Q 1319 2381 1436 2309 
Q 1553 2238 1856 2203 
L 2053 2175 
Q 2913 2066 3209 1816 
Q 3506 1566 3506 1031 
Q 3506 472 3093 190 
Q 2681 -91 1863 -91 
Q 1516 -91 1145 -36 
Q 775 19 384 128 
L 384 978 
Q 719 816 1070 734 
Q 1422 653 1784 653 
Q 2113 653 2278 743 
Q 2444 834 2444 1013 
Q 2444 1163 2330 1236 
Q 2216 1309 1875 1350 
L 1678 1375 
Q 931 1469 631 1722 
Q 331 1975 331 2491 
Q 331 3047 712 3315 
Q 1094 3584 1881 3584 
Q 2191 3584 2531 3537 
Q 2872 3491 3272 3391 
z
" transform="scale(0.015625)"/>
      <path id="DejaVuSans-Bold-46" d="M 588 4666 
L 3834 4666 
L 3834 3756 
L 1791 3756 
L 1791 2888 
L 3713 2888 
L 3713 1978 
L 1791 1978 
L 1791 0 
L 588 0 
L 588 4666 
z
" transform="scale(0.015625)"/>
      <path id="DejaVuSans-Bold-74" d="M 1759 4494 
L 1759 3500 
L 2913 3500 
L 2913 2700 
L 1759 2700 
L 1759 1216 
Q 1759 972 1856 886 
Q 1953 800 2241 800 
L 2816 800 
L 2816 0 
L 1856 0 
Q 1194 0 917 276 
Q 641 553 641 1216 
L 641 2700 
L 84 2700 
L 84 3500 
L 641 3500 
L 641 4494 
L 1759 4494 
z
" transform="scale(0.015625)"/>
      <path id="DejaVuSans-Bold-75" d="M 500 1363 
L 500 3500 
L 1625 3500 
L 1625 3150 
Q 1625 2866 1622 2436 
Q 1619 2006 1619 1863 
Q 1619 1441 1641 1255 
Q 1663 1069 1716 984 
Q 1784 875 1895 815 
Q 2006 756 2150 756 
Q 2500 756 2700 1025 
Q 2900 1294 2900 1772 
L 2900 3500 
L 4019 3500 
L 4019 0 
L 2900 0 
L 2900 506 
Q 2647 200 2364 54 
Q 2081 -91 1741 -91 
Q 1134 -91 817 281 
Q 500 653 500 1363 
z
" transform="scale(0.015625)"/>
      <path id="DejaVuSans-Bold-63" d="M 3366 3391 
L 3366 2478 
Q 3138 2634 2908 2709 
Q 2678 2784 2431 2784 
Q 1963 2784 1702 2511 
Q 1441 2238 1441 1747 
Q 1441 1256 1702 982 
Q 1963 709 2431 709 
Q 2694 709 2930 787 
Q 3166 866 3366 1019 
L 3366 103 
Q 3103 6 2833 -42 
Q 2563 -91 2291 -91 
Q 1344 -91 809 395 
Q 275 881 275 1747 
Q 275 2613 809 3098 
Q 1344 3584 2291 3584 
Q 2566 3584 2833 3536 
Q 3100 3488 3366 3391 
z
" transform="scale(0.015625)"/>
      <path id="DejaVuSans-Bold-6d" d="M 3781 2919 
Q 3994 3244 4286 3414 
Q 4578 3584 4928 3584 
Q 5531 3584 5847 3212 
Q 6163 2841 6163 2131 
L 6163 0 
L 5038 0 
L 5038 1825 
Q 5041 1866 5042 1909 
Q 5044 1953 5044 2034 
Q 5044 2406 4934 2573 
Q 4825 2741 4581 2741 
Q 4263 2741 4089 2478 
Q 3916 2216 3909 1719 
L 3909 0 
L 2784 0 
L 2784 1825 
Q 2784 2406 2684 2573 
Q 2584 2741 2328 2741 
Q 2006 2741 1831 2477 
Q 1656 2213 1656 1722 
L 1656 0 
L 531 0 
L 531 3500 
L 1656 3500 
L 1656 2988 
Q 1863 3284 2130 3434 
Q 2397 3584 2719 3584 
Q 3081 3584 3359 3409 
Q 3638 3234 3781 2919 
z
" transform="scale(0.015625)"/>
      <path id="DejaVuSans-Bold-54" d="M 31 4666 
L 4331 4666 
L 4331 3756 
L 2784 3756 
L 2784 0 
L 1581 0 
L 1581 3756 
L 31 3756 
L 31 4666 
z
" transform="scale(0.015625)"/>
      <path id="DejaVuSans-Bold-67" d="M 2919 594 
Q 2688 288 2409 144 
Q 2131 0 1766 0 
Q 1125 0 706 504 
Q 288 1009 288 1791 
Q 288 2575 706 3076 
Q 1125 3578 1766 3578 
Q 2131 3578 2409 3434 
Q 2688 3291 2919 2981 
L 2919 3500 
L 4044 3500 
L 4044 353 
Q 4044 -491 3511 -936 
Q 2978 -1381 1966 -1381 
Q 1638 -1381 1331 -1331 
Q 1025 -1281 716 -1178 
L 716 -306 
Q 1009 -475 1290 -558 
Q 1572 -641 1856 -641 
Q 2406 -641 2662 -400 
Q 2919 -159 2919 353 
L 2919 594 
z
M 2181 2772 
Q 1834 2772 1640 2515 
Q 1447 2259 1447 1791 
Q 1447 1309 1634 1061 
Q 1822 813 2181 813 
Q 2531 813 2725 1069 
Q 2919 1325 2919 1791 
Q 2919 2259 2725 2515 
Q 2531 2772 2181 2772 
z
" transform="scale(0.015625)"/>
      <path id="DejaVuSans-Bold-6e" d="M 4056 2131 
L 4056 0 
L 2931 0 
L 2931 347 
L 2931 1631 
Q 2931 2084 2911 2256 
Q 2891 2428 2841 2509 
Q 2775 2619 2662 2680 
Q 2550 2741 2406 2741 
Q 2056 2741 1856 2470 
Q 1656 2200 1656 1722 
L 1656 0 
L 538 0 
L 538 3500 
L 1656 3500 
L 1656 2988 
Q 1909 3294 2193 3439 
Q 2478 3584 2822 3584 
Q 3428 3584 3742 3212 
Q 4056 2841 4056 2131 
z
" transform="scale(0.015625)"/>
      <path id="DejaVuSans-Bold-76" d="M 97 3500 
L 1216 3500 
L 2088 1081 
L 2956 3500 
L 4078 3500 
L 2700 0 
L 1472 0 
L 97 3500 
z
" transform="scale(0.015625)"/>
     </defs>
     <use xlink:href="#DejaVuSans-Bold-43"/>
     <use xlink:href="#DejaVuSans-Bold-6f" transform="translate(73.388672 0)"/>
     <use xlink:href="#DejaVuSans-Bold-72" transform="translate(142.089844 0)"/>
     <use xlink:href="#DejaVuSans-Bold-72" transform="translate(191.40625 0)"/>
     <use xlink:href="#DejaVuSans-Bold-65" transform="translate(240.722656 0)"/>
     <use xlink:href="#DejaVuSans-Bold-6c" transform="translate(308.544922 0)"/>
     <use xlink:href="#DejaVuSans-Bold-61" transform="translate(342.822266 0)"/>
     <use xlink:href="#DejaVuSans-Bold-e7" transform="translate(410.302734 0)"/>
     <use xlink:href="#DejaVuSans-Bold-e3" transform="translate(469.580078 0)"/>
     <use xlink:href="#DejaVuSans-Bold-6f" transform="translate(537.060547 0)"/>
     <use xlink:href="#DejaVuSans-Bold-20" transform="translate(605.761719 0)"/>
     <use xlink:href="#DejaVuSans-Bold-64" transform="translate(640.576172 0)"/>
     <use xlink:href="#DejaVuSans-Bold-61" transform="translate(712.158203 0)"/>
     <use xlink:href="#DejaVuSans-Bold-73" transform="translate(779.638672 0)"/>
     <use xlink:href="#DejaVuSans-Bold-20" transform="translate(839.160156 0)"/>
     <use xlink:href="#DejaVuSans-Bold-46" transform="translate(873.974609 0)"/>
     <use xlink:href="#DejaVuSans-Bold-65" transform="translate(938.285156 0)"/>
     <use xlink:href="#DejaVuSans-Bold-61" transform="translate(1006.107422 0)"/>
     <use xlink:href="#DejaVuSans-Bold-74" transform="translate(1073.587891 0)"/>
     <use xlink:href="#DejaVuSans-Bold-75" transform="translate(1121.390625 0)"/>
     <use xlink:href="#DejaVuSans-Bold-72" transform="translate(1192.582031 0)"/>
     <use xlink:href="#DejaVuSans-Bold-65" transform="translate(1241.898438 0)"/>
     <use xlink:href="#DejaVuSans-Bold-73" transform="translate(1309.720703 0)"/>
     <use xlink:href="#DejaVuSans-Bold-20" transform="translate(1369.242188 0)"/>
     <use xlink:href="#DejaVuSans-Bold-63" transform="translate(1404.056641 0)"/>
     <use xlink:href="#DejaVuSans-Bold-6f" transform="translate(1463.333984 0)"/>
     <use xlink:href="#DejaVuSans-Bold-6d" transform="translate(1532.035156 0)"/>
     <use xlink:href="#DejaVuSans-Bold-20" transform="translate(1636.234375 0)"/>
     <use xlink:href="#DejaVuSans-Bold-6f" transform="translate(1671.048828 0)"/>
     <use xlink:href="#DejaVuSans-Bold-20" transform="translate(1739.75 0)"/>
     <use xlink:href="#DejaVuSans-Bold-54" transform="translate(1774.564453 0)"/>
     <use xlink:href="#DejaVuSans-Bold-61" transform="translate(1829.902344 0)"/>
     <use xlink:href="#DejaVuSans-Bold-72" transform="translate(1897.382812 0)"/>
     <use xlink:href="#DejaVuSans-Bold-67" transform="translate(1946.699219 0)"/>
     <use xlink:href="#DejaVuSans-Bold-65" transform="translate(2018.28125 0)"/>
     <use xlink:href="#DejaVuSans-Bold-74" transform="translate(2086.103516 0)"/>
     <use xlink:href="#DejaVuSans-Bold-20" transform="translate(2133.90625 0)"/>
     <use xlink:href="#DejaVuSans-Bold-64" transform="translate(2168.720703 0)"/>
     <use xlink:href="#DejaVuSans-Bold-65" transform="translate(2240.302734 0)"/>
     <use xlink:href="#DejaVuSans-Bold-20" transform="translate(2308.125 0)"/>
     <use xlink:href="#DejaVuSans-Bold-43" transform="translate(2342.939453 0)"/>
     <use xlink:href="#DejaVuSans-Bold-6f" transform="translate(2416.328125 0)"/>
     <use xlink:href="#DejaVuSans-Bold-6e" transform="translate(2485.029297 0)"/>
     <use xlink:href="#DejaVuSans-Bold-76" transform="translate(2556.220703 0)"/>
     <use xlink:href="#DejaVuSans-Bold-65" transform="translate(2621.40625 0)"/>
     <use xlink:href="#DejaVuSans-Bold-72" transform="translate(2689.228516 0)"/>
     <use xlink:href="#DejaVuSans-Bold-73" transform="translate(2738.544922 0)"/>
     <use xlink:href="#DejaVuSans-Bold-e3" transform="translate(2798.066406 0)"/>
     <use xlink:href="#DejaVuSans-Bold-6f" transform="translate(2865.546875 0)"/>
    </g>
   </g>
  </g>
 </g>
 <defs>
  <clipPath id="p3272d04849">
   <rect x="150.715625" y="39.645" width="840.71" height="478.829375"/>
  </clipPath>
 </defs>
</svg>
